    <svg xmlns="http://www.w3.org/2000/svg">
        <symbol viewBox="0 0 448 512" id="instagram">
            <path class="inst-i" d="M224.1 141c-63.6 0-114.9 51.3-114.9 114.9s51.3 114.9 114.9 114.9S339 319.5 339 255.9 287.7 141 224.1 141zm0 189.6c-41.1 0-74.7-33.5-74.7-74.7s33.5-74.7 74.7-74.7 74.7 33.5 74.7 74.7-33.6 74.7-74.7 74.7zm146.4-194.3c0 14.9-12 26.8-26.8 26.8-14.9 0-26.8-12-26.8-26.8s12-26.8 26.8-26.8 26.8 12 26.8 26.8zm76.1 27.2c-1.7-35.9-9.9-67.7-36.2-93.9-26.2-26.2-58-34.4-93.9-36.2-37-2.1-147.9-2.1-184.9 0-35.8 1.7-67.6 9.9-93.9 36.1s-34.4 58-36.2 93.9c-2.1 37-2.1 147.9 0 184.9 1.7 35.9 9.9 67.7 36.2 93.9s58 34.4 93.9 36.2c37 2.1 147.9 2.1 184.9 0 35.9-1.7 67.7-9.9 93.9-36.2 26.2-26.2 34.4-58 36.2-93.9 2.1-37 2.1-147.8 0-184.8zM398.8 388c-7.8 19.6-22.9 34.7-42.6 42.6-29.5 11.7-99.5 9-132.1 9s-102.7 2.6-132.1-9c-19.6-7.8-34.7-22.9-42.6-42.6-11.7-29.5-9-99.5-9-132.1s-2.6-102.7 9-132.1c7.8-19.6 22.9-34.7 42.6-42.6 29.5-11.7 99.5-9 132.1-9s102.7-2.6 132.1 9c19.6 7.8 34.7 22.9 42.6 42.6 11.7 29.5 9 99.5 9 132.1s2.7 102.7-9 132.1z"></path>
        </symbol>
        <symbol viewBox="0 0 760 447" id="trucks">
              <g clip-path="url(#clip0_249_41)">
              <path class="path-headlight" d="M542.27 52H537V57.27H542.27V52Z"/>
              </g>
              <g clip-path="url(#clip1_249_41)">
              <mask id="mask0_249_41" style="mask-type:alpha" maskUnits="userSpaceOnUse" x="658" y="8" width="71" height="131">
              <rect width="71" height="131" transform="translate(658 8)" fill="black"/>
              </mask>
              <g mask="url(#mask0_249_41)">
              <path d="M689.093 83.8903C689.093 83.8903 664 87.3103 664 71.3403C664 55.3703 680.362 45.1003 680.362 39.3903C680.362 33.6803 674.911 14.2903 683.632 14.2903C692.353 14.2903 694.543 8.59029 697.814 2.88029C701.084 -2.82971 712.005 0.600291 713.095 7.44029C714.185 14.2803 728.367 10.8703 729.457 14.2903C730.547 17.7103 733.817 31.4103 737.088 36.0003C740.358 40.5903 739.268 52.0003 738.178 60.0003C737.088 68.0003 742.548 48.5903 742.548 66.8503C742.548 85.1103 730.547 83.9603 730.547 83.9603L689.093 83.8903Z" fill="#E7E7E6"/>
              <path d="M699.494 84H694.493V131H699.494V84Z" fill="#E7E7E6"/>
              <path d="M718.496 106C718.496 106 681.492 94.2801 681.492 82.5701C681.492 70.8601 697.813 63.3301 697.813 59.1501C697.813 54.9701 692.363 40.7401 701.094 40.7401C709.825 40.7401 712.005 36.5601 715.275 32.3801C718.546 28.2001 729.457 30.7001 730.547 35.7201C731.637 40.7401 745.818 38.2301 746.909 40.7201C747.999 43.2101 751.269 53.2701 754.539 56.6201C757.81 59.9701 756.6 62.6201 755.539 68.4501C754.479 74.2801 760.01 65.8401 760.01 79.2301C760.01 89.2301 752.679 92.5401 745.508 93.0001C742.788 93.1701 734.567 99.2101 732.507 101L718.496 106Z" fill="#CCCCCC"/>
              <path d="M723.496 94H718.496V131H723.496V94Z" fill="#CCCCCC"/>
              </g>
              </g>
              <g clip-path="url(#clip2_249_41)">
              <path d="M484.32 131.1C490.804 131.1 496.06 125.844 496.06 119.36C496.06 112.876 490.804 107.62 484.32 107.62C477.836 107.62 472.58 112.876 472.58 119.36C472.58 125.844 477.836 131.1 484.32 131.1Z" fill="#333434"/>
              <path d="M552.72 131.1C559.204 131.1 564.46 125.844 564.46 119.36C564.46 112.876 559.204 107.62 552.72 107.62C546.236 107.62 540.98 112.876 540.98 119.36C540.98 125.844 546.236 131.1 552.72 131.1Z" fill="#333434"/>
              <path d="M447.85 102.32H299.96V112.64H447.85V102.32Z" fill="#333434"/>
              <path d="M528.13 96.1299H446.33V103.36H528.13V96.1299Z" fill="#333434"/>
              <path d="M528.13 104.19H446.33V105.68H528.13V104.19Z" fill="#333434"/>
              <path d="M532.55 123.41H498.22V124.9H532.55V123.41Z" fill="#676767"/>
              <path d="M580.88 85.3197V111.83C580.885 112.245 580.808 112.657 580.652 113.042C580.497 113.427 580.266 113.777 579.974 114.072C579.682 114.367 579.334 114.601 578.95 114.761C578.567 114.92 578.155 115.001 577.74 115H570.55C569.92 114.997 569.306 114.804 568.787 114.448C568.268 114.091 567.869 113.586 567.64 113C566.858 111.023 565.657 109.24 564.121 107.771C562.585 106.302 560.749 105.183 558.74 104.49C551.86 101.85 545 106.3 542.68 108C542.132 108.41 541.465 108.631 540.78 108.63H536C534.197 108.627 532.469 107.91 531.195 106.635C529.92 105.36 529.203 103.632 529.2 101.83V67.3497C529.199 66.5444 529.356 65.7466 529.664 65.0023C529.971 64.258 530.423 63.5817 530.992 63.0122C531.562 62.4427 532.238 61.9913 532.983 61.6837C533.727 61.3761 534.525 61.2184 535.33 61.2197H562.73C563.759 61.218 564.772 61.4765 565.674 61.9713C566.576 62.4661 567.338 63.1811 567.89 64.0497L570.12 67.5397L580.35 83.6397C580.691 84.1341 580.875 84.7193 580.88 85.3197V85.3197Z" fill="#F8EA2E" stroke="#1E1E1C" stroke-width="0.76" stroke-miterlimit="10"/>
              <path d="M322.11 130.34C327.749 130.34 332.32 125.769 332.32 120.13C332.32 114.491 327.749 109.92 322.11 109.92C316.471 109.92 311.9 114.491 311.9 120.13C311.9 125.769 316.471 130.34 322.11 130.34Z" fill="#333434"/>
              <path d="M347.32 130.34C352.959 130.34 357.53 125.769 357.53 120.13C357.53 114.491 352.959 109.92 347.32 109.92C341.681 109.92 337.11 114.491 337.11 120.13C337.11 125.769 341.681 130.34 347.32 130.34Z" fill="#333434"/>
              <path d="M370.23 130.34C375.869 130.34 380.44 125.769 380.44 120.13C380.44 114.491 375.869 109.92 370.23 109.92C364.591 109.92 360.02 114.491 360.02 120.13C360.02 125.769 364.591 130.34 370.23 130.34Z" fill="#333434"/>
              <path d="M322.11 124.78C324.678 124.78 326.76 122.699 326.76 120.13C326.76 117.562 324.678 115.48 322.11 115.48C319.542 115.48 317.46 117.562 317.46 120.13C317.46 122.699 319.542 124.78 322.11 124.78Z" fill="#676767"/>
              <path d="M347.32 124.78C349.888 124.78 351.97 122.699 351.97 120.13C351.97 117.562 349.888 115.48 347.32 115.48C344.752 115.48 342.67 117.562 342.67 120.13C342.67 122.699 344.752 124.78 347.32 124.78Z" fill="#676767"/>
              <path d="M370.23 124.78C372.798 124.78 374.88 122.699 374.88 120.13C374.88 117.562 372.798 115.48 370.23 115.48C367.662 115.48 365.58 117.562 365.58 120.13C365.58 122.699 367.662 124.78 370.23 124.78Z" fill="#676767"/>
              <path d="M484.32 125.55C487.739 125.55 490.51 122.779 490.51 119.36C490.51 115.941 487.739 113.17 484.32 113.17C480.901 113.17 478.13 115.941 478.13 119.36C478.13 122.779 480.901 125.55 484.32 125.55Z" fill="#676767"/>
              <path d="M459.95 131.1C466.434 131.1 471.69 125.844 471.69 119.36C471.69 112.876 466.434 107.62 459.95 107.62C453.466 107.62 448.21 112.876 448.21 119.36C448.21 125.844 453.466 131.1 459.95 131.1Z" fill="#333434"/>
              <path d="M459.95 125.55C463.369 125.55 466.14 122.779 466.14 119.36C466.14 115.941 463.369 113.17 459.95 113.17C456.531 113.17 453.76 115.941 453.76 119.36C453.76 122.779 456.531 125.55 459.95 125.55Z" fill="#676767"/>
              <path d="M552.72 125.55C556.139 125.55 558.91 122.779 558.91 119.36C558.91 115.941 556.139 113.17 552.72 113.17C549.301 113.17 546.53 115.941 546.53 119.36C546.53 122.779 549.301 125.55 552.72 125.55Z" fill="#676767"/>
              <path d="M444.22 112.64H401.58V121.93H444.22V112.64Z" fill="#676767"/>
              <path d="M529.17 106.45H516.78V113.68H529.17V106.45Z" fill="#676767"/>
              <path d="M529.17 114.71H516.78V121.94H529.17V114.71Z" fill="#676767"/>
              <path d="M508.51 107.48H498.19V121.93H508.51V107.48Z" fill="#676767"/>
              <path d="M513.68 107.48H510.58V121.93H513.68V107.48Z" fill="#676767"/>
              <path d="M545.35 67.54H536.3C535.306 67.54 534.5 68.3459 534.5 69.34V79.44C534.5 80.4342 535.306 81.24 536.3 81.24H545.35C546.344 81.24 547.15 80.4342 547.15 79.44V69.34C547.15 68.3459 546.344 67.54 545.35 67.54Z" fill="#333434"/>
              <path d="M580.88 85.32V88.81C580.664 88.9839 580.411 89.1059 580.141 89.1666C579.87 89.2273 579.59 89.225 579.32 89.16L551 82.36C550.449 82.1734 549.975 81.809 549.652 81.324C549.33 80.839 549.178 80.2608 549.22 79.68V70.26C549.158 69.6105 549.352 68.9625 549.761 68.4543C550.171 67.9461 550.762 67.618 551.41 67.54H570.11L580.34 83.64C580.684 84.1332 580.873 84.7186 580.88 85.32Z" fill="#333434"/>
              <path d="M554.52 57H535.55V61.22H554.52V57Z" fill="#333434"/>
              <path d="M319.88 105.67L274 122.41V111.87L300.04 102.57" fill="#333434"/>
              <path d="M532.56 108.15H531.42V124.89H532.56V108.15Z" fill="#333434"/>
              </g>
              <g clip-path="url(#clip3_249_41)">
              <path d="M439.29 39.8301H311.32C297.888 39.8301 287 50.7185 287 64.1501V70.4901C287 83.9216 297.888 94.8101 311.32 94.8101H439.29C452.722 94.8101 463.61 83.9216 463.61 70.4901V64.1501C463.61 50.7185 452.722 39.8301 439.29 39.8301Z" fill="#1A1A1A"/>
              <path d="M342.82 93.9805H316.16V102.99H342.82V93.9805Z" fill="#1A1A1A"/>
              <path d="M337.82 34H321.16V37.33H337.82V34Z" fill="#1A1A1A"/>
              <path d="M383.64 34H366.98V37.33H383.64V34Z" fill="#1A1A1A"/>
              <path d="M431.96 34H415.3V37.33H431.96V34Z" fill="#1A1A1A"/>
              <path d="M388.64 93.9805H361.98V102.99H388.64V93.9805Z" fill="#1A1A1A"/>
              <path d="M435.29 93.9805H408.63V102.99H435.29V93.9805Z" fill="#1A1A1A"/>
              </g>
              <g clip-path="url(#clip4_249_41)">
              <path d="M728.02 131H147V145.73H728.02V131Z" fill="url(#paint0_linear_249_41)"/>
              </g>
              <g clip-path="url(#clip5_249_41)">
              <path d="M578 114.41H583.41V109H578V114.41Z"fill="#edc255"/>
              </g>
              <path id="path-light" class="path-light" d="M698.406 75C698.406 75 585.406 103.61 593.406 112.805C601.406 122 698.406 143 698.406 143V75Z" fill="url(#paint1_linear_249_41)"/>
              <defs>
                <path id="path1" d="M288.337 291.998C263.3 275.687 263.3 275.687 254.048 260.63C240.852 235.904 226.348 219.203 203.252 200.487C185.641 186.216 163.691 177.164 139.288 178.902C122.356 180.108 102.214 184.888 98.1269 200.487C96.2197 207.766 103.827 216.856 113.701 218.796C113.701 218.796 121.842 220.861 129.019 218.796C137.361 216.397 140.765 211.886 141.684 207.087C142.941 200.523 140.523 191.036 136.721 185.934C131.094 178.383 130.75 175.712 101.11 165.271C71.4693 154.83 101.11 165.271 71.4693 154.83C36.6542 142.566 31.988 109.438 31.988 109.438"/>
                <mask id="mask1">
                  <use class="mask" xlink:href="#path1"></use>
                </mask>
              </defs>
              <use class="paths" xlink:href="#path1" mask="url(#mask1)"></use>
              <path d="M305.762 231.021H307.7C307.797 231.048 307.895 231.07 307.995 231.086C311.037 231.248 313.979 232.116 316.533 233.604C320.346 235.745 323.127 239.088 324.329 242.974C325.32 245.921 325.211 249.077 324.019 251.963C322.913 254.657 321.579 257.271 320.027 259.783C316.285 265.747 312.122 271.49 307.563 276.979L306.713 277.999C305.877 276.96 305.056 275.965 304.256 274.958C299.735 269.421 295.675 263.594 292.108 257.523C290.767 255.264 289.702 252.883 288.931 250.42C288.665 249.535 288.549 248.573 288.369 247.63V247.262C288.408 247.1 288.437 246.936 288.456 246.771C288.567 243.373 289.896 240.096 292.245 237.427C293.672 235.737 295.459 234.316 297.502 233.248C299.545 232.179 301.804 231.484 304.148 231.202C304.681 231.131 305.221 231.08 305.762 231.021ZM299.998 247.462C300.005 248.656 300.407 249.822 301.153 250.811C301.899 251.8 302.956 252.569 304.19 253.02C305.423 253.471 306.779 253.584 308.084 253.345C309.389 253.106 310.586 252.525 311.523 251.676C312.46 250.827 313.095 249.748 313.348 248.576C313.601 247.404 313.461 246.19 312.944 245.089C312.428 243.989 311.559 243.05 310.447 242.392C309.335 241.734 308.031 241.386 306.698 241.392C304.91 241.401 303.199 242.045 301.94 243.183C300.681 244.321 299.978 245.86 299.983 247.462H299.998Z" fill="#CCCCCC"/>
              <path d="M17.3926 38H19.3308C19.4277 38.0269 19.5263 38.0484 19.6262 38.0646C22.6676 38.2262 25.6099 39.0941 28.164 40.583C31.9771 42.7239 34.7581 46.0664 35.9597 49.9527C36.9504 52.8994 36.8416 56.0552 35.6499 58.9415C34.5439 61.6356 33.2095 64.2499 31.6583 66.7614C27.9158 72.7252 23.7525 78.4689 19.1939 83.9576L18.3437 84.9778C17.5079 83.9382 16.6866 82.9437 15.8868 81.9364C11.3662 76.3995 7.30606 70.5721 3.73934 64.5013C2.39822 62.2429 1.33294 59.8614 0.561982 57.3981C0.295401 56.5135 0.180123 55.5513 0 54.6085V54.2404C0.0393476 54.0785 0.0682154 53.9146 0.0864588 53.7497C0.197608 50.3511 1.52639 47.075 3.87624 44.4058C5.30333 42.7152 7.08988 41.2947 9.13279 40.2263C11.1757 39.1579 13.4345 38.4627 15.7787 38.1808C16.3119 38.1098 16.8523 38.0581 17.3926 38ZM11.6287 54.4406C11.6358 55.6347 12.038 56.8002 12.7841 57.7894C13.5302 58.7788 14.5869 59.5476 15.8206 59.9987C17.0542 60.4497 18.4094 60.5628 19.7148 60.3235C21.0202 60.0843 22.217 59.5036 23.1541 58.6547C24.0912 57.8058 24.7264 56.7269 24.9792 55.5545C25.2322 54.3821 25.0916 53.1688 24.5751 52.068C24.0587 50.9672 23.1896 50.0284 22.0779 49.3702C20.9661 48.7122 19.6616 48.3642 18.3293 48.3706C16.5413 48.3792 14.8301 49.0231 13.5712 50.1611C12.3123 51.299 11.6085 52.8381 11.6143 54.4406H11.6287Z" fill="#CCCCCC"/>
              <g clip-path="url(#clip6_249_41)">
              <path d="M648.17 384.89C648.17 384.89 623.08 388.31 623.08 372.34C623.08 356.37 639.44 346.1 639.44 340.39C639.44 334.68 634 315.29 642.71 315.29C651.42 315.29 653.62 309.59 656.89 303.88C660.16 298.17 671.07 301.6 672.16 308.44C673.25 315.28 687.43 311.87 688.52 315.29C689.61 318.71 692.89 332.41 696.16 336.97C699.43 341.53 698.34 352.97 697.25 360.97C696.16 368.97 701.61 349.56 701.61 367.82C701.61 386.08 689.61 384.93 689.61 384.93L648.17 384.89Z" fill="#E7E7E6"/>
              <path d="M658.57 385H653.57V432H658.57V385Z" fill="#E7E7E6"/>
              <path d="M677.57 407C677.57 407 640.57 395.28 640.57 383.57C640.57 371.86 656.89 364.33 656.89 360.15C656.89 355.97 651.44 341.74 660.16 341.74C668.88 341.74 671.07 337.56 674.34 333.38C677.61 329.2 688.52 331.7 689.62 336.72C690.72 341.74 704.89 339.23 705.98 341.72C707.07 344.21 710.34 354.27 713.61 357.62C716.88 360.97 715.61 363.62 714.61 369.45C713.61 375.28 719.11 366.82 719.11 380.21C719.11 390.21 711.78 393.52 704.61 393.98C701.89 394.15 693.66 400.19 691.61 401.98L677.57 407Z" fill="#CCCCCC"/>
              <path d="M682.57 385H677.57V432H682.57V385Z" fill="#CCCCCC"/>
              <path d="M599.81 398.56C599.81 398.56 582 401 582 389.65C582 378.3 593.62 371 593.62 367C593.62 363 589.74 349.15 595.94 349.15C602.14 349.15 603.68 345.09 606 341C608.32 336.91 616.06 339.38 616.84 344.24C617.62 349.1 627.68 346.67 628.45 349.11C629.22 351.55 631.55 361.26 633.87 364.5C636.19 367.74 635.42 375.84 634.65 381.5C633.88 387.16 637.74 373.4 637.74 386.36C637.74 399.32 629.23 398.51 629.23 398.51L599.81 398.56Z" fill="#E7E7E6"/>
              <path d="M607.2 398.63H603.65V432H607.2V398.63Z" fill="#E7E7E6"/>
              <path d="M620.69 414.25C620.69 414.25 594.39 405.93 594.39 397.62C594.39 389.31 606 384 606 381C606 378 602.12 367.93 608.32 367.93C614.52 367.93 616.07 365 618.4 362C620.73 359 628.46 360.82 629.24 364.38C630.02 367.94 640.08 366.16 640.85 367.94C641.62 369.72 643.95 376.85 646.27 379.23C648.59 381.61 647.73 383.47 646.95 387.63C646.17 391.79 650.14 385.76 650.14 395.26C650.14 402.39 644.95 404.72 639.85 405.04C637.92 405.17 632.08 409.45 630.63 410.72L620.69 414.25Z" fill="#CCCCCC"/>
              <path d="M624.24 398.63H620.69V432H624.24V398.63Z" fill="#CCCCCC"/>
              </g>
              <g clip-path="url(#clip7_249_41)">
              <path d="M99.09 384.89C99.09 384.89 74 388.31 74 372.34C74 356.37 90.36 346.1 90.36 340.39C90.36 334.68 84.91 315.29 93.63 315.29C102.35 315.29 104.54 309.59 107.81 303.88C111.08 298.17 122 301.6 123.09 308.44C124.18 315.28 138.36 311.87 139.45 315.29C140.54 318.71 143.81 332.41 147.08 337C150.35 341.59 149.26 353 148.17 361C147.08 369 152.54 349.59 152.54 367.85C152.54 386.11 140.54 384.96 140.54 384.96L99.09 384.89Z" fill="#E7E7E6"/>
              <path d="M109.49 385H104.49V432H109.49V385Z" fill="#E7E7E6"/>
              <path d="M128.49 407C128.49 407 91.49 395.28 91.49 383.57C91.49 371.86 107.81 364.33 107.81 360.15C107.81 355.97 102.36 341.74 111.09 341.74C119.82 341.74 122 337.56 125.27 333.38C128.54 329.2 139.45 331.7 140.54 336.72C141.63 341.74 155.81 339.23 156.9 341.72C157.99 344.21 161.26 354.27 164.53 357.62C167.8 360.97 166.59 363.62 165.53 369.45C164.47 375.28 170 366.84 170 380.23C170 390.23 162.67 393.54 155.5 394C152.78 394.17 144.56 400.21 142.5 402L128.49 407Z" fill="#CCCCCC"/>
              <path d="M133.49 395H128.49V432H133.49V395Z" fill="#CCCCCC"/>
              </g>
              <g clip-path="url(#clip8_249_41)">
              <path d="M0 446.73L760 446.73V432L0 432V446.73Z" fill="url(#paint2_linear_249_41)"/>
              </g>
              <g clip-path="url(#clip9_249_41)">
              <path id="path-6" class="path-headlight" d="M59.8 404.45H64.25V400H59.8V404.45Z"/>
              </g>
              <g clip-path="url(#clip10_249_41)">
              <path d="M91.4499 418.45C91.4622 417.821 91.3471 417.196 91.1115 416.613C90.8759 416.03 90.5247 415.5 90.079 415.057C89.6333 414.613 89.1024 414.264 88.5182 414.031C87.934 413.797 87.3087 413.685 86.6799 413.7C85.7599 413.7 84.8499 413.7 83.9299 413.7C83.6596 413.677 83.4071 413.556 83.2199 413.36C81.7599 411.56 80.2899 409.81 78.9199 408C78.3384 407.074 77.575 406.276 76.6761 405.654C75.7771 405.031 74.7612 404.598 73.6899 404.38H58.9999C58.5399 404.49 58.0599 404.59 57.5999 404.73C56.2348 405.13 54.9952 405.874 53.9999 406.89C51.8299 409 49.6899 411.14 47.5699 413.28C47.4426 413.418 47.2878 413.527 47.1155 413.601C46.9433 413.675 46.7574 413.712 46.5699 413.71C45.0431 413.656 43.5144 413.729 41.9999 413.93C40.3415 414.259 38.8255 415.093 37.6599 416.317C36.4943 417.542 35.7363 419.097 35.4899 420.77C35.4899 420.9 35.4099 421.03 35.3799 421.16V426.16C35.5302 426.371 35.7352 426.538 35.9731 426.642C36.2109 426.746 36.4725 426.783 36.7299 426.75C38.2499 426.75 39.7299 426.75 41.2799 426.75C41.6598 427.85 42.3782 428.801 43.3321 429.468C44.286 430.134 45.4264 430.481 46.5899 430.46C47.7533 430.481 48.8937 430.134 49.8476 429.468C50.8015 428.801 51.5199 427.85 51.8999 426.75H72.5099C72.6759 426.722 72.8465 426.754 72.9912 426.84C73.1359 426.926 73.2453 427.061 73.2999 427.22C73.7475 428.189 74.4633 429.01 75.3626 429.585C76.262 430.161 77.3073 430.466 78.3749 430.466C79.4425 430.466 80.4878 430.161 81.3871 429.585C82.2865 429.01 83.0023 428.189 83.4499 427.22C83.4977 427.069 83.5968 426.939 83.7301 426.853C83.8634 426.767 84.0225 426.731 84.1799 426.75C86.1799 426.75 88.1799 426.75 90.2499 426.75C91.1299 426.75 91.4499 426.43 91.4499 425.56C91.4499 423.19 91.4599 420.82 91.4499 418.45ZM78.3299 418.36C78.0199 418.36 77.6999 418.36 77.3999 418.36C77.6999 418.36 78.0199 418.36 78.3299 418.36C78.6399 418.36 78.9899 418.36 79.3299 418.36C78.9999 418.38 78.6599 418.36 78.3299 418.36V418.36Z" fill="#EDE417"/>
              <path d="M78.3299 418.36C78.0199 418.36 77.6999 418.36 77.3999 418.36C77.6999 418.36 78.0199 418.36 78.3299 418.36ZM78.3299 418.36C78.6399 418.36 78.9899 418.36 79.3299 418.36C78.9999 418.38 78.6599 418.36 78.3299 418.36V418.36ZM91.4499 418.45C91.4622 417.821 91.3471 417.196 91.1115 416.613C90.8759 416.03 90.5247 415.5 90.079 415.057C89.6333 414.613 89.1024 414.264 88.5182 414.031C87.934 413.797 87.3087 413.685 86.6799 413.7C85.7599 413.7 84.8499 413.7 83.9299 413.7C83.6596 413.677 83.4071 413.556 83.2199 413.36C81.7599 411.56 80.2899 409.81 78.9199 408C78.3384 407.074 77.575 406.276 76.6761 405.654C75.7771 405.031 74.7612 404.598 73.6899 404.38H58.9999C58.5399 404.49 58.0599 404.59 57.5999 404.73C56.2348 405.13 54.9952 405.874 53.9999 406.89C51.8299 409 49.6899 411.14 47.5699 413.28C47.4426 413.418 47.2878 413.527 47.1155 413.601C46.9433 413.675 46.7574 413.712 46.5699 413.71C45.0431 413.656 43.5144 413.729 41.9999 413.93C40.3415 414.259 38.8255 415.093 37.6599 416.317C36.4943 417.542 35.7363 419.097 35.4899 420.77C35.4899 420.9 35.4099 421.03 35.3799 421.16V426.16C35.5302 426.371 35.7352 426.538 35.9731 426.642C36.2109 426.746 36.4725 426.783 36.7299 426.75C38.2499 426.75 39.7299 426.75 41.2799 426.75C41.6598 427.85 42.3782 428.801 43.3321 429.468C44.286 430.134 45.4264 430.481 46.5899 430.46C47.7533 430.481 48.8937 430.134 49.8476 429.468C50.8015 428.801 51.5199 427.85 51.8999 426.75H72.5099C72.6759 426.722 72.8465 426.754 72.9912 426.84C73.1359 426.926 73.2453 427.061 73.2999 427.22C73.7475 428.189 74.4633 429.01 75.3626 429.585C76.262 430.161 77.3073 430.466 78.3749 430.466C79.4425 430.466 80.4878 430.161 81.3871 429.585C82.2865 429.01 83.0023 428.189 83.4499 427.22C83.4977 427.069 83.5968 426.939 83.7301 426.853C83.8634 426.767 84.0225 426.731 84.1799 426.75C86.1799 426.75 88.1799 426.75 90.2499 426.75C91.1299 426.75 91.4499 426.43 91.4499 425.56C91.4499 423.19 91.4599 420.82 91.4499 418.45Z" stroke="#060606" stroke-width="0.75" stroke-miterlimit="10"/>
              <path d="M60.5901 406.23C57.8801 406.07 55.9001 407.34 54.2201 409.28C54.142 409.362 54.0928 409.468 54.0801 409.58C54.0801 410.93 54.0801 412.29 54.0801 413.67H64.3001V406.24C63.0001 406.24 61.8101 406.3 60.5901 406.23Z" fill="#333434"/>
              <path d="M81.07 413.65C79.44 411.65 77.88 409.65 76.28 407.74C75.9691 407.35 75.5834 407.026 75.1454 406.788C74.7075 406.549 74.2263 406.4 73.73 406.35C72.54 406.24 71.33 406.27 70.12 406.24C69.76 406.24 69.4 406.24 69.03 406.24H66.25V413.64H81.07V413.65Z" fill="#333434"/>
              <path d="M46.6399 432.39C50.0641 432.39 52.8399 429.614 52.8399 426.19C52.8399 422.766 50.0641 419.99 46.6399 419.99C43.2158 419.99 40.4399 422.766 40.4399 426.19C40.4399 429.614 43.2158 432.39 46.6399 432.39Z" fill="#333434"/>
              <path d="M46.6401 429.46C48.4461 429.46 49.9101 427.996 49.9101 426.19C49.9101 424.384 48.4461 422.92 46.6401 422.92C44.8341 422.92 43.3701 424.384 43.3701 426.19C43.3701 427.996 44.8341 429.46 46.6401 429.46Z" fill="#676767"/>
              <path d="M78.7701 432.39C82.1942 432.39 84.9701 429.614 84.9701 426.19C84.9701 422.766 82.1942 419.99 78.7701 419.99C75.3459 419.99 72.5701 422.766 72.5701 426.19C72.5701 429.614 75.3459 432.39 78.7701 432.39Z" fill="#333434"/>
              <path d="M78.77 429.46C80.576 429.46 82.04 427.996 82.04 426.19C82.04 424.384 80.576 422.92 78.77 422.92C76.964 422.92 75.5 424.384 75.5 426.19C75.5 427.996 76.964 429.46 78.77 429.46Z" fill="#676767"/>
              </g>
              <g clip-path="url(#clip11_249_41)">
              <path class="path-headlight" d="M279 356.41H284.41V351H279V356.41Z"/>
              </g>
              <g clip-path="url(#clip12_249_41)">
              <path d="M348.42 431.99C355.069 431.99 360.46 426.6 360.46 419.95C360.46 413.301 355.069 407.91 348.42 407.91C341.77 407.91 336.38 413.301 336.38 419.95C336.38 426.6 341.77 431.99 348.42 431.99Z" fill="#333434"/>
              <path d="M278.27 431.99C284.919 431.99 290.31 426.6 290.31 419.95C290.31 413.301 284.919 407.91 278.27 407.91C271.62 407.91 266.23 413.301 266.23 419.95C266.23 426.6 271.62 431.99 278.27 431.99Z" fill="#333434"/>
              <path d="M385.82 413.07H537.5V402.48H385.82V413.07Z" fill="#333434"/>
              <path d="M303.49 403.54H387.38V396.13H303.49V403.54Z" fill="#333434"/>
              <path d="M303.49 405.92H387.38V404.4H303.49V405.92Z" fill="#333434"/>
              <path d="M298.95 425.63H334.16V424.11H298.95V425.63Z" fill="#676767"/>
              <path d="M249.39 385.05V412.24C249.39 413.094 249.729 413.913 250.333 414.517C250.937 415.121 251.756 415.46 252.61 415.46H260C260.652 415.454 261.288 415.252 261.823 414.879C262.358 414.506 262.768 413.98 263 413.37C263.8 411.344 265.03 409.516 266.604 408.011C268.178 406.505 270.06 405.359 272.12 404.65C279.18 402 286.24 406.56 288.6 408.32C289.159 408.741 289.84 408.97 290.54 408.97H295.42C297.276 408.97 299.057 408.233 300.37 406.92C301.682 405.607 302.42 403.827 302.42 401.97V366.62C302.423 365.793 302.262 364.973 301.947 364.209C301.632 363.444 301.169 362.749 300.584 362.163C300 361.578 299.305 361.114 298.541 360.797C297.777 360.481 296.957 360.319 296.13 360.32H268C266.945 360.321 265.906 360.588 264.982 361.097C264.057 361.605 263.276 362.339 262.71 363.23L260.4 366.81L249.9 383.32C249.564 383.834 249.387 384.436 249.39 385.05Z" fill="#F8EA2E" stroke="#1E1E1C" stroke-width="0.78" stroke-miterlimit="10"/>
              <path d="M514.79 431.23C520.578 431.23 525.27 426.537 525.27 420.75C525.27 414.962 520.578 410.27 514.79 410.27C509.002 410.27 504.31 414.962 504.31 420.75C504.31 426.537 509.002 431.23 514.79 431.23Z" fill="#333434"/>
              <path d="M488.93 431.23C494.718 431.23 499.41 426.537 499.41 420.75C499.41 414.962 494.718 410.27 488.93 410.27C483.142 410.27 478.45 414.962 478.45 420.75C478.45 426.537 483.142 431.23 488.93 431.23Z" fill="#333434"/>
              <path d="M465.43 431.23C471.218 431.23 475.91 426.537 475.91 420.75C475.91 414.962 471.218 410.27 465.43 410.27C459.642 410.27 454.95 414.962 454.95 420.75C454.95 426.537 459.642 431.23 465.43 431.23Z" fill="#333434"/>
              <path d="M514.79 425.51C517.419 425.51 519.55 423.379 519.55 420.75C519.55 418.121 517.419 415.99 514.79 415.99C512.161 415.99 510.03 418.121 510.03 420.75C510.03 423.379 512.161 425.51 514.79 425.51Z" fill="#676767"/>
              <path d="M488.93 425.51C491.559 425.51 493.69 423.379 493.69 420.75C493.69 418.121 491.559 415.99 488.93 415.99C486.301 415.99 484.17 418.121 484.17 420.75C484.17 423.379 486.301 425.51 488.93 425.51Z" fill="#676767"/>
              <path d="M465.43 425.51C468.059 425.51 470.19 423.379 470.19 420.75C470.19 418.121 468.059 415.99 465.43 415.99C462.801 415.99 460.67 418.121 460.67 420.75C460.67 423.379 462.801 425.51 465.43 425.51Z" fill="#676767"/>
              <path d="M348.42 426.3C351.927 426.3 354.77 423.457 354.77 419.95C354.77 416.443 351.927 413.6 348.42 413.6C344.913 413.6 342.07 416.443 342.07 419.95C342.07 423.457 344.913 426.3 348.42 426.3Z" fill="#676767"/>
              <path d="M373.42 431.99C380.069 431.99 385.46 426.6 385.46 419.95C385.46 413.301 380.069 407.91 373.42 407.91C366.77 407.91 361.38 413.301 361.38 419.95C361.38 426.6 366.77 431.99 373.42 431.99Z" fill="#333434"/>
              <path d="M373.42 426.3C376.927 426.3 379.77 423.457 379.77 419.95C379.77 416.443 376.927 413.6 373.42 413.6C369.913 413.6 367.07 416.443 367.07 419.95C367.07 423.457 369.913 426.3 373.42 426.3Z" fill="#676767"/>
              <path d="M278.27 426.3C281.777 426.3 284.62 423.457 284.62 419.95C284.62 416.443 281.777 413.6 278.27 413.6C274.763 413.6 271.92 416.443 271.92 419.95C271.92 423.457 274.763 426.3 278.27 426.3Z" fill="#676767"/>
              <path d="M389.54 422.6H433.28V413.07H389.54V422.6Z" fill="#676767"/>
              <path d="M302.42 414.12H315.13V406.71H302.42V414.12Z" fill="#676767"/>
              <path d="M302.42 422.6H315.13V415.19H302.42V422.6Z" fill="#676767"/>
              <path d="M323.61 422.6H334.2V407.78H323.61V422.6Z" fill="#676767"/>
              <path d="M318.31 422.6H321.49V407.78H318.31V422.6Z" fill="#676767"/>
              <path d="M285.84 380.86H295.11C296.132 380.86 296.96 380.032 296.96 379.01V368.66C296.96 367.639 296.132 366.81 295.11 366.81H285.84C284.818 366.81 283.99 367.639 283.99 368.66V379.01C283.99 380.032 284.818 380.86 285.84 380.86Z" fill="#333434"/>
              <path d="M249.39 385.05V388.63C249.613 388.809 249.873 388.936 250.152 389C250.431 389.064 250.721 389.064 251 389L280 382C280.564 381.806 281.049 381.431 281.38 380.934C281.711 380.437 281.869 379.845 281.83 379.25V369.6C281.895 368.933 281.695 368.267 281.275 367.745C280.854 367.223 280.246 366.888 279.58 366.81H260.4L249.9 383.32C249.564 383.834 249.387 384.435 249.39 385.05Z" fill="#333434"/>
              <path d="M276.41 360.32H295.87V356H276.41V360.32Z" fill="#333434"/>
              <path d="M517.07 405.92L564.12 423.09V412.28L537.42 402.74" fill="#333434"/>
              <path d="M298.95 425.63H300.12V408.46H298.95V425.63Z" fill="#333434"/>
              </g>
              <g clip-path="url(#clip13_249_41)">
              <path d="M401.7 403.22H466.68C471.391 403.22 475.21 399.401 475.21 394.69C475.21 389.979 471.391 386.16 466.68 386.16H401.7C396.989 386.16 393.17 389.979 393.17 394.69C393.17 399.401 396.989 403.22 401.7 403.22Z" fill="#676767"/>
              <path d="M402.37 401.72H466.02C469.903 401.72 473.05 398.572 473.05 394.69C473.05 390.807 469.903 387.66 466.02 387.66H402.37C398.487 387.66 395.34 390.807 395.34 394.69C395.34 398.572 398.487 401.72 402.37 401.72Z" stroke="white" stroke-width="0.39" stroke-miterlimit="10"/>
              <path d="M412.96 389.66H437.24V383.1H412.96V389.66Z" fill="#676767"/>
              <path d="M464.85 399.13C467.181 399.13 469.07 397.241 469.07 394.91C469.07 392.58 467.181 390.69 464.85 390.69C462.519 390.69 460.63 392.58 460.63 394.91C460.63 397.241 462.519 399.13 464.85 399.13Z" fill="white"/>
              <path d="M452.32 399.13C454.651 399.13 456.54 397.241 456.54 394.91C456.54 392.58 454.651 390.69 452.32 390.69C449.989 390.69 448.1 392.58 448.1 394.91C448.1 397.241 449.989 399.13 452.32 399.13Z" fill="white"/>
              <path d="M439.79 399.13C442.121 399.13 444.01 397.241 444.01 394.91C444.01 392.58 442.121 390.69 439.79 390.69C437.459 390.69 435.57 392.58 435.57 394.91C435.57 397.241 437.459 399.13 439.79 399.13Z" fill="white"/>
              <path d="M427.26 399.13C429.591 399.13 431.48 397.241 431.48 394.91C431.48 392.58 429.591 390.69 427.26 390.69C424.929 390.69 423.04 392.58 423.04 394.91C423.04 397.241 424.929 399.13 427.26 399.13Z" fill="white"/>
              <path d="M414.73 399.13C417.061 399.13 418.95 397.241 418.95 394.91C418.95 392.58 417.061 390.69 414.73 390.69C412.399 390.69 410.51 392.58 410.51 394.91C410.51 397.241 412.399 399.13 414.73 399.13Z" fill="white"/>
              <path d="M402.2 399.13C404.531 399.13 406.42 397.241 406.42 394.91C406.42 392.58 404.531 390.69 402.2 390.69C399.869 390.69 397.98 392.58 397.98 394.91C397.98 397.241 399.869 399.13 402.2 399.13Z" fill="white"/>
              <path d="M389 364.82V377.51C389.065 378.029 389.331 378.501 389.74 378.826C390.15 379.152 390.67 379.304 391.19 379.25H391.63V363.09H391.19C390.671 363.036 390.152 363.187 389.743 363.51C389.334 363.833 389.068 364.303 389 364.82V364.82Z" fill="#333434"/>
              <path d="M396.51 357.83H416.11C415.971 356.742 415.441 355.742 414.618 355.016C413.796 354.291 412.737 353.891 411.64 353.89H401C399.9 353.888 398.838 354.287 398.011 355.012C397.185 355.737 396.651 356.739 396.51 357.83V357.83Z" fill="#333434"/>
              <path d="M395.12 357.83C394.193 357.833 393.306 358.203 392.651 358.859C391.997 359.515 391.63 360.404 391.63 361.33V379.93C391.63 380.857 391.997 381.746 392.651 382.402C393.306 383.058 394.193 383.428 395.12 383.43H456.71C457.638 383.43 458.528 383.062 459.185 382.405C459.841 381.749 460.21 380.859 460.21 379.93V363.74L479.81 354.45L490.66 359.27L547.66 384.58L549.49 385.39L549.61 385.44C548.366 385.967 547.039 386.268 545.69 386.33C533.47 388.33 521.243 390.254 509.01 392.1C502.3 393.1 495.59 394.1 488.89 395.18C488.366 395.284 487.849 395.418 487.34 395.58C490.64 397.71 490.97 398.36 490.15 401.17C494.48 400.99 498.68 399.91 502.97 399.39C507.07 398.88 511.1 397.82 515.26 397.68C515.672 397.725 516.088 397.725 516.5 397.68C522.13 396.27 527.91 395.68 533.63 394.79C543.36 392.89 553.2 391.67 562.97 390.03C563.618 389.965 564.235 389.722 564.753 389.329C565.272 388.935 565.672 388.406 565.91 387.8C566.64 386.11 567.42 384.44 568.16 382.8C569.34 380.12 569.16 379.28 566.91 377.42L548.76 371C548.51 370.81 548.09 370.87 547.99 370.47C547.68 370.53 547.35 370.6 547.27 370.14C547.1 370.14 546.91 370.26 546.77 370.21C542.9 368.87 539.01 367.55 535.15 366.21L532.39 362.5C532.841 361.653 533.135 360.732 533.26 359.78C532.53 356.78 530.95 355.94 528.31 357.14L483.53 339.45H467.92L460.21 344.7V332.78C460.21 331.852 459.841 330.962 459.185 330.305C458.528 329.649 457.638 329.28 456.71 329.28H421.37C420.443 329.283 419.556 329.653 418.901 330.309C418.247 330.965 417.88 331.854 417.88 332.78V357.78L395.12 357.83ZM512.06 357.83L514.06 354.55L529.16 361.77L530.47 364.39L512.06 357.83Z" fill="#F8EA2E" stroke="#1E1E1C" stroke-width="0.56" stroke-miterlimit="10"/>
              <path d="M494.33 398C497.517 391.333 500.697 384.693 503.87 378.08C504.19 377.39 504.69 377.28 505.35 377.16C507.86 376.68 508.98 375.33 508.71 373.22C508.44 371.11 507.04 370.22 504.55 370.42C499.263 370.773 493.977 371.14 488.69 371.52C482.22 371.99 478.14 375.37 476.36 381.66C476.27 382.01 476.36 382.45 475.88 382.66L476.24 387.95C478.032 391.432 480.561 394.483 483.65 396.89L488.21 400.89L488.52 401.2C491.5 401.91 492.17 401.55 494.33 398Z" fill="#333434"/>
              <path d="M569.05 374.83L535.68 362.1" stroke="#060606" stroke-width="1.5" stroke-miterlimit="10"/>
              <path d="M483.83 356.85L459.55 369.32" stroke="#060606" stroke-width="1.5" stroke-miterlimit="10"/>
              <path d="M541.59 385.07L499.59 390.97" stroke="#060606" stroke-width="0.66" stroke-miterlimit="10"/>
              <path d="M430.43 355.18H427.83C426.951 355.182 426.08 355.011 425.268 354.677C424.455 354.342 423.716 353.851 423.094 353.23C422.471 352.61 421.977 351.872 421.64 351.061C421.303 350.249 421.13 349.379 421.13 348.5V335.95C421.13 335.276 421.398 334.63 421.874 334.154C422.35 333.677 422.996 333.41 423.67 333.41H430.43C431.104 333.41 431.75 333.677 432.226 334.154C432.702 334.63 432.97 335.276 432.97 335.95V352.64C432.97 353.313 432.702 353.959 432.226 354.436C431.75 354.912 431.104 355.18 430.43 355.18V355.18Z" fill="#333434"/>
              <path d="M439 373.86L450.46 375.2C452.97 375.5 455.19 373.9 455.04 371.89L452.48 335.34C452.368 334.754 452.042 334.23 451.565 333.871C451.088 333.513 450.494 333.345 449.9 333.4H439.27C437.06 333.4 435.27 334.82 435.27 336.57V370.41C435.27 372.14 436.87 373.61 439 373.86Z" fill="#333434"/>
              <path d="M563.46 383.43C564.968 383.43 566.19 382.207 566.19 380.7C566.19 379.192 564.968 377.97 563.46 377.97C561.952 377.97 560.73 379.192 560.73 380.7C560.73 382.207 561.952 383.43 563.46 383.43Z" stroke="#060606" stroke-width="0.68" stroke-miterlimit="10"/>
              <path d="M486.65 371.83C486.65 371.83 475.3 373.25 476 383.1C476.7 392.95 479.28 385.1 479.28 385.1L500.94 375.25" fill="#333434"/>
              </g>
              <g clip-path="url(#clip14_249_41)">
              <path d="M252.27 410H247V415.27H252.27V410Z" fill="#edc255"/>
              </g>
              <path class="path-light" d="M133 376C133 376 246 404.61 238 413.805C230 423 133 444 133 444V376Z" fill="url(#paint3_linear_249_41)"/>
              <defs>
              <linearGradient id="paint0_linear_249_41" x1="728.02" y1="138.37" x2="147" y2="138.37" gradientUnits="userSpaceOnUse">
              <stop offset="0.14" stop-color="#CCCCCC"/>
              <stop offset="0.29" stop-color="#CCCCCC" stop-opacity="0.98"/>
              <stop offset="0.42" stop-color="#CDCECE" stop-opacity="0.94"/>
              <stop offset="0.53" stop-color="#CFCFD0" stop-opacity="0.86"/>
              <stop offset="0.64" stop-color="#D1D2D2" stop-opacity="0.74"/>
              <stop offset="0.74" stop-color="#D4D6D6" stop-opacity="0.59"/>
              <stop offset="0.83" stop-color="#D7DADB" stop-opacity="0.41"/>
              <stop offset="0.93" stop-color="#DBDFE0" stop-opacity="0.2"/>
              <stop offset="1" stop-color="#DFE4E5" stop-opacity="0"/>
              </linearGradient>
              <linearGradient id="paint1_linear_249_41" x1="587.515" y1="132.935" x2="697.227" y2="119.341" gradientUnits="userSpaceOnUse">
              <stop stop-color="#E3CE98" stop-opacity="0.491876"/>
              <stop offset="0.0782324" stop-color="#EDC255"/>
              <stop offset="0.846876" stop-color="#D9D9D9" stop-opacity="0"/>
              </linearGradient>
              <linearGradient id="paint2_linear_249_41" x1="0" y1="439.37" x2="760" y2="439.37" gradientUnits="userSpaceOnUse">
              <stop offset="0.14" stop-color="#CCCCCC"/>
              <stop offset="0.29" stop-color="#CCCCCC" stop-opacity="0.98"/>
              <stop offset="0.42" stop-color="#CDCECE" stop-opacity="0.94"/>
              <stop offset="0.53" stop-color="#CFCFD0" stop-opacity="0.86"/>
              <stop offset="0.64" stop-color="#D1D2D2" stop-opacity="0.74"/>
              <stop offset="0.74" stop-color="#D4D6D6" stop-opacity="0.59"/>
              <stop offset="0.83" stop-color="#D7DADB" stop-opacity="0.41"/>
              <stop offset="0.93" stop-color="#DBDFE0" stop-opacity="0.2"/>
              <stop offset="1" stop-color="#DFE4E5" stop-opacity="0"/>
              </linearGradient>
              <linearGradient id="paint3_linear_249_41" x1="243.891" y1="433.935" x2="134.179" y2="420.341" gradientUnits="userSpaceOnUse">
              <stop stop-color="#E3CE98" stop-opacity="0.491876"/>
              <stop offset="0.0782324" stop-color="#EDC255"/>
              <stop offset="0.846876" stop-color="#D9D9D9" stop-opacity="0"/>
              </linearGradient>
              <clipPath id="clip0_249_41">
              <rect width="5.27" height="5.27" fill="white" transform="translate(537 52)"/>
              </clipPath>
              <clipPath id="clip1_249_41">
              <rect width="96" height="131" fill="white" transform="translate(664)"/>
              </clipPath>
              <clipPath id="clip2_249_41">
              <rect width="307.26" height="74.09" fill="white" transform="translate(274 57)"/>
              </clipPath>
              <clipPath id="clip3_249_41">
              <rect width="176.61" height="68.99" fill="white" transform="translate(287 34)"/>
              </clipPath>
              <clipPath id="clip4_249_41">
              <rect width="581.02" height="14.73" fill="white" transform="translate(147 131)"/>
              </clipPath>
              <clipPath id="clip5_249_41">
              <rect width="5.41" height="5.41" fill="white" transform="translate(578 109)"/>
              </clipPath>
              <clipPath id="clip6_249_41">
              <rect width="137.07" height="131" fill="white" transform="translate(582 301)"/>
              </clipPath>
              <clipPath id="clip7_249_41">
              <rect width="95.99" height="131" fill="white" transform="translate(74 301)"/>
              </clipPath>
              <clipPath id="clip8_249_41">
              <rect width="760" height="14.73" fill="white" transform="translate(0 432)"/>
              </clipPath>
              <clipPath id="clip9_249_41">
              <rect width="4.45" height="4.45" fill="white" transform="translate(59.8 400)"/>
              </clipPath>
              <clipPath id="clip10_249_41">
              <rect width="56.83" height="28.39" fill="white" transform="translate(35 404)"/>
              </clipPath>
              <clipPath id="clip11_249_41">
              <rect width="5.41" height="5.41" fill="white" transform="translate(279 351)"/>
              </clipPath>
              <clipPath id="clip12_249_41">
              <rect width="315.12" height="75.99" fill="white" transform="translate(249 356)"/>
              </clipPath>
              <clipPath id="clip13_249_41">
              <rect width="180.32" height="74.23" fill="white" transform="translate(389 329)"/>
              </clipPath>
              <clipPath id="clip14_249_41">
              <rect width="5.27" height="5.27" fill="white" transform="translate(247 410)"/>
              </clipPath>
              </defs>
        </symbol>
</svg>