<svg width="760" height="146" viewBox="0 0 760 146" fill="none" xmlns="http://www.w3.org/2000/svg">
<g clip-path="url(#clip0_243_20)">
<path d="M648.17 83.8903C648.17 83.8903 623.08 87.3103 623.08 71.3403C623.08 55.3703 639.44 45.1003 639.44 39.3903C639.44 33.6803 634 14.2903 642.71 14.2903C651.42 14.2903 653.62 8.59029 656.89 2.88029C660.16 -2.82971 671.07 0.600291 672.16 7.44029C673.25 14.2803 687.43 10.8703 688.52 14.2903C689.61 17.7103 692.89 31.4103 696.16 35.9703C699.43 40.5303 698.34 51.9703 697.25 59.9703C696.16 67.9703 701.61 48.5603 701.61 66.8203C701.61 85.0803 689.61 83.9303 689.61 83.9303L648.17 83.8903Z" fill="#E7E7E6"/>
<path d="M658.57 84H653.57V131H658.57V84Z" fill="#E7E7E6"/>
<path d="M677.57 106C677.57 106 640.57 94.2801 640.57 82.5701C640.57 70.8601 656.89 63.3301 656.89 59.1501C656.89 54.9701 651.44 40.7401 660.16 40.7401C668.88 40.7401 671.07 36.5601 674.34 32.3801C677.61 28.2001 688.52 30.7001 689.62 35.7201C690.72 40.7401 704.89 38.2301 705.98 40.7201C707.07 43.2101 710.34 53.2701 713.61 56.6201C716.88 59.9701 715.61 62.6201 714.61 68.4501C713.61 74.2801 719.11 65.8201 719.11 79.2101C719.11 89.2101 711.78 92.5201 704.61 92.9801C701.89 93.1501 693.66 99.1901 691.61 100.98L677.57 106Z" fill="#CCCCCC"/>
<path d="M682.57 84H677.57V131H682.57V84Z" fill="#CCCCCC"/>
<path d="M599.81 97.56C599.81 97.56 582 100 582 88.65C582 77.3 593.62 70 593.62 66C593.62 62 589.74 48.15 595.94 48.15C602.14 48.15 603.68 44.09 606 40C608.32 35.91 616.06 38.38 616.84 43.24C617.62 48.1 627.68 45.67 628.45 48.11C629.22 50.55 631.55 60.26 633.87 63.5C636.19 66.74 635.42 74.84 634.65 80.5C633.88 86.16 637.74 72.4 637.74 85.36C637.74 98.32 629.23 97.51 629.23 97.51L599.81 97.56Z" fill="#E7E7E6"/>
<path d="M607.2 97.6299H603.65V131H607.2V97.6299Z" fill="#E7E7E6"/>
<path d="M620.69 113.25C620.69 113.25 594.39 104.93 594.39 96.62C594.39 88.31 606 83 606 80C606 77 602.12 66.93 608.32 66.93C614.52 66.93 616.07 64 618.4 61C620.73 58 628.46 59.82 629.24 63.38C630.02 66.94 640.08 65.16 640.85 66.94C641.62 68.72 643.95 75.85 646.27 78.23C648.59 80.61 647.73 82.47 646.95 86.63C646.17 90.79 650.14 84.76 650.14 94.26C650.14 101.39 644.95 103.72 639.85 104.04C637.92 104.17 632.08 108.45 630.63 109.72L620.69 113.25Z" fill="#CCCCCC"/>
<path d="M624.24 97.6299H620.69V131H624.24V97.6299Z" fill="#CCCCCC"/>
</g>
<g clip-path="url(#clip1_243_20)">
<path d="M99.09 83.8903C99.09 83.8903 74 87.3103 74 71.3403C74 55.3703 90.36 45.1003 90.36 39.3903C90.36 33.6803 84.91 14.2903 93.63 14.2903C102.35 14.2903 104.54 8.59029 107.81 2.88029C111.08 -2.82971 122 0.600291 123.09 7.44029C124.18 14.2803 138.36 10.8703 139.45 14.2903C140.54 17.7103 143.81 31.4103 147.08 36.0003C150.35 40.5903 149.26 52.0003 148.17 60.0003C147.08 68.0003 152.54 48.5903 152.54 66.8503C152.54 85.1103 140.54 83.9603 140.54 83.9603L99.09 83.8903Z" fill="#E7E7E6"/>
<path d="M109.49 84H104.49V131H109.49V84Z" fill="#E7E7E6"/>
<path d="M128.49 106C128.49 106 91.49 94.2801 91.49 82.5701C91.49 70.8601 107.81 63.3301 107.81 59.1501C107.81 54.9701 102.36 40.7401 111.09 40.7401C119.82 40.7401 122 36.5601 125.27 32.3801C128.54 28.2001 139.45 30.7001 140.54 35.7201C141.63 40.7401 155.81 38.2301 156.9 40.7201C157.99 43.2101 161.26 53.2701 164.53 56.6201C167.8 59.9701 166.59 62.6201 165.53 68.4501C164.47 74.2801 170 65.8401 170 79.2301C170 89.2301 162.67 92.5401 155.5 93.0001C152.78 93.1701 144.56 99.2101 142.5 101L128.49 106Z" fill="#CCCCCC"/>
<path d="M133.49 94H128.49V131H133.49V94Z" fill="#CCCCCC"/>
</g>
<g clip-path="url(#clip2_243_20)">
<path d="M0 145.73L760 145.73V131L0 131V145.73Z" fill="url(#paint0_linear_243_20)"/>
</g>
<g clip-path="url(#clip3_243_20)">
<path d="M59.8 103.45H64.25V99.0002H59.8V103.45Z" fill="#EDC255"/>
</g>
<g clip-path="url(#clip4_243_20)">
<path d="M91.4499 117.45C91.4622 116.821 91.3471 116.196 91.1115 115.613C90.8759 115.03 90.5247 114.5 90.079 114.057C89.6333 113.613 89.1024 113.264 88.5182 113.031C87.934 112.797 87.3087 112.685 86.6799 112.7C85.7599 112.7 84.8499 112.7 83.9299 112.7C83.6596 112.677 83.4071 112.556 83.2199 112.36C81.7599 110.56 80.2899 108.81 78.9199 107C78.3384 106.074 77.575 105.276 76.6761 104.654C75.7771 104.031 74.7612 103.598 73.6899 103.38H58.9999C58.5399 103.49 58.0599 103.59 57.5999 103.73C56.2348 104.13 54.9952 104.874 53.9999 105.89C51.8299 108 49.6899 110.14 47.5699 112.28C47.4426 112.418 47.2878 112.527 47.1155 112.601C46.9433 112.675 46.7574 112.712 46.5699 112.71C45.0431 112.656 43.5144 112.729 41.9999 112.93C40.3415 113.259 38.8255 114.093 37.6599 115.317C36.4943 116.542 35.7363 118.097 35.4899 119.77C35.4899 119.9 35.4099 120.03 35.3799 120.16V125.16C35.5302 125.371 35.7352 125.538 35.9731 125.642C36.2109 125.746 36.4725 125.783 36.7299 125.75C38.2499 125.75 39.7299 125.75 41.2799 125.75C41.6598 126.85 42.3782 127.801 43.3321 128.468C44.286 129.134 45.4264 129.481 46.5899 129.46C47.7533 129.481 48.8937 129.134 49.8476 128.468C50.8015 127.801 51.5199 126.85 51.8999 125.75H72.5099C72.6759 125.722 72.8465 125.754 72.9912 125.84C73.1359 125.926 73.2453 126.061 73.2999 126.22C73.7475 127.189 74.4633 128.01 75.3626 128.585C76.262 129.161 77.3073 129.466 78.3749 129.466C79.4425 129.466 80.4878 129.161 81.3871 128.585C82.2865 128.01 83.0023 127.189 83.4499 126.22C83.4977 126.069 83.5968 125.939 83.7301 125.853C83.8634 125.767 84.0225 125.731 84.1799 125.75C86.1799 125.75 88.1799 125.75 90.2499 125.75C91.1299 125.75 91.4499 125.43 91.4499 124.56C91.4499 122.19 91.4599 119.82 91.4499 117.45ZM78.3299 117.36C78.0199 117.36 77.6999 117.36 77.3999 117.36C77.6999 117.36 78.0199 117.36 78.3299 117.36C78.6399 117.36 78.9899 117.36 79.3299 117.36C78.9999 117.38 78.6599 117.36 78.3299 117.36V117.36Z" fill="#EDE417"/>
<path d="M78.3299 117.36C78.0199 117.36 77.6999 117.36 77.3999 117.36C77.6999 117.36 78.0199 117.36 78.3299 117.36ZM78.3299 117.36C78.6399 117.36 78.9899 117.36 79.3299 117.36C78.9999 117.38 78.6599 117.36 78.3299 117.36V117.36ZM91.4499 117.45C91.4622 116.821 91.3471 116.196 91.1115 115.613C90.8759 115.03 90.5247 114.5 90.079 114.057C89.6333 113.613 89.1024 113.264 88.5182 113.031C87.934 112.797 87.3087 112.685 86.6799 112.7C85.7599 112.7 84.8499 112.7 83.9299 112.7C83.6596 112.677 83.4071 112.556 83.2199 112.36C81.7599 110.56 80.2899 108.81 78.9199 107C78.3384 106.074 77.575 105.276 76.6761 104.654C75.7771 104.031 74.7612 103.598 73.6899 103.38H58.9999C58.5399 103.49 58.0599 103.59 57.5999 103.73C56.2348 104.13 54.9952 104.874 53.9999 105.89C51.8299 108 49.6899 110.14 47.5699 112.28C47.4426 112.418 47.2878 112.527 47.1155 112.601C46.9433 112.675 46.7574 112.712 46.5699 112.71C45.0431 112.656 43.5144 112.729 41.9999 112.93C40.3415 113.259 38.8255 114.093 37.6599 115.317C36.4943 116.542 35.7363 118.097 35.4899 119.77C35.4899 119.9 35.4099 120.03 35.3799 120.16V125.16C35.5302 125.371 35.7352 125.538 35.9731 125.642C36.2109 125.746 36.4725 125.783 36.7299 125.75C38.2499 125.75 39.7299 125.75 41.2799 125.75C41.6598 126.85 42.3782 127.801 43.3321 128.468C44.286 129.134 45.4264 129.481 46.5899 129.46C47.7533 129.481 48.8937 129.134 49.8476 128.468C50.8015 127.801 51.5199 126.85 51.8999 125.75H72.5099C72.6759 125.722 72.8465 125.754 72.9912 125.84C73.1359 125.926 73.2453 126.061 73.2999 126.22C73.7475 127.189 74.4633 128.01 75.3626 128.585C76.262 129.161 77.3073 129.466 78.3749 129.466C79.4425 129.466 80.4878 129.161 81.3871 128.585C82.2865 128.01 83.0023 127.189 83.4499 126.22C83.4977 126.069 83.5968 125.939 83.7301 125.853C83.8634 125.767 84.0225 125.731 84.1799 125.75C86.1799 125.75 88.1799 125.75 90.2499 125.75C91.1299 125.75 91.4499 125.43 91.4499 124.56C91.4499 122.19 91.4599 119.82 91.4499 117.45Z" stroke="#060606" stroke-width="0.75" stroke-miterlimit="10"/>
<path d="M60.5901 105.23C57.8801 105.07 55.9001 106.34 54.2201 108.28C54.142 108.362 54.0928 108.468 54.0801 108.58C54.0801 109.93 54.0801 111.29 54.0801 112.67H64.3001V105.24C63.0001 105.24 61.8101 105.3 60.5901 105.23Z" fill="#333434"/>
<path d="M81.07 112.65C79.44 110.65 77.88 108.65 76.28 106.74C75.9691 106.35 75.5834 106.026 75.1454 105.788C74.7075 105.549 74.2263 105.4 73.73 105.35C72.54 105.24 71.33 105.27 70.12 105.24C69.76 105.24 69.4 105.24 69.03 105.24H66.25V112.64H81.07V112.65Z" fill="#333434"/>
<path d="M46.6399 131.39C50.0641 131.39 52.8399 128.614 52.8399 125.19C52.8399 121.766 50.0641 118.99 46.6399 118.99C43.2158 118.99 40.4399 121.766 40.4399 125.19C40.4399 128.614 43.2158 131.39 46.6399 131.39Z" fill="#333434"/>
<path d="M46.6401 128.46C48.4461 128.46 49.9101 126.996 49.9101 125.19C49.9101 123.384 48.4461 121.92 46.6401 121.92C44.8341 121.92 43.3701 123.384 43.3701 125.19C43.3701 126.996 44.8341 128.46 46.6401 128.46Z" fill="#676767"/>
<path d="M78.7701 131.39C82.1942 131.39 84.9701 128.614 84.9701 125.19C84.9701 121.766 82.1942 118.99 78.7701 118.99C75.3459 118.99 72.5701 121.766 72.5701 125.19C72.5701 128.614 75.3459 131.39 78.7701 131.39Z" fill="#333434"/>
<path d="M78.77 128.46C80.576 128.46 82.04 126.996 82.04 125.19C82.04 123.384 80.576 121.92 78.77 121.92C76.964 121.92 75.5 123.384 75.5 125.19C75.5 126.996 76.964 128.46 78.77 128.46Z" fill="#676767"/>
</g>
<g clip-path="url(#clip5_243_20)">
<path d="M279 55.4102H284.41V50.0002H279V55.4102Z" fill="#EDC255"/>
</g>
<g clip-path="url(#clip6_243_20)">
<path d="M348.42 130.99C355.069 130.99 360.46 125.6 360.46 118.95C360.46 112.301 355.069 106.91 348.42 106.91C341.77 106.91 336.38 112.301 336.38 118.95C336.38 125.6 341.77 130.99 348.42 130.99Z" fill="#333434"/>
<path d="M278.27 130.99C284.919 130.99 290.31 125.6 290.31 118.95C290.31 112.301 284.919 106.91 278.27 106.91C271.62 106.91 266.23 112.301 266.23 118.95C266.23 125.6 271.62 130.99 278.27 130.99Z" fill="#333434"/>
<path d="M385.82 112.07L537.5 112.07V101.48L385.82 101.48V112.07Z" fill="#333434"/>
<path d="M303.49 102.54L387.38 102.54V95.13L303.49 95.13V102.54Z" fill="#333434"/>
<path d="M303.49 104.92L387.38 104.92V103.4L303.49 103.4V104.92Z" fill="#333434"/>
<path d="M298.95 124.63H334.16V123.11H298.95V124.63Z" fill="#676767"/>
<path d="M249.39 84.0503V111.24C249.39 112.094 249.729 112.913 250.333 113.517C250.937 114.121 251.756 114.46 252.61 114.46H260C260.652 114.454 261.288 114.252 261.823 113.879C262.358 113.506 262.768 112.98 263 112.37C263.8 110.344 265.03 108.516 266.604 107.011C268.178 105.505 270.06 104.359 272.12 103.65C279.18 101 286.24 105.56 288.6 107.32C289.159 107.741 289.84 107.97 290.54 107.97H295.42C297.276 107.97 299.057 107.233 300.37 105.92C301.682 104.607 302.42 102.827 302.42 100.97V65.6203C302.423 64.7931 302.262 63.9735 301.947 63.2086C301.632 62.4437 301.169 61.7486 300.584 61.1632C300 60.5778 299.305 60.1136 298.541 59.7974C297.777 59.4811 296.957 59.319 296.13 59.3203H268C266.945 59.3209 265.906 59.588 264.982 60.0967C264.057 60.6054 263.276 61.3392 262.71 62.2303L260.4 65.8103L249.9 82.3203C249.564 82.8345 249.387 83.4361 249.39 84.0503Z" fill="#F8EA2E" stroke="#1E1E1C" stroke-width="0.78" stroke-miterlimit="10"/>
<path d="M514.79 130.23C520.578 130.23 525.27 125.537 525.27 119.75C525.27 113.962 520.578 109.27 514.79 109.27C509.002 109.27 504.31 113.962 504.31 119.75C504.31 125.537 509.002 130.23 514.79 130.23Z" fill="#333434"/>
<path d="M488.93 130.23C494.718 130.23 499.41 125.537 499.41 119.75C499.41 113.962 494.718 109.27 488.93 109.27C483.142 109.27 478.45 113.962 478.45 119.75C478.45 125.537 483.142 130.23 488.93 130.23Z" fill="#333434"/>
<path d="M465.43 130.23C471.218 130.23 475.91 125.537 475.91 119.75C475.91 113.962 471.218 109.27 465.43 109.27C459.642 109.27 454.95 113.962 454.95 119.75C454.95 125.537 459.642 130.23 465.43 130.23Z" fill="#333434"/>
<path d="M514.79 124.51C517.419 124.51 519.55 122.379 519.55 119.75C519.55 117.121 517.419 114.99 514.79 114.99C512.161 114.99 510.03 117.121 510.03 119.75C510.03 122.379 512.161 124.51 514.79 124.51Z" fill="#676767"/>
<path d="M488.93 124.51C491.559 124.51 493.69 122.379 493.69 119.75C493.69 117.121 491.559 114.99 488.93 114.99C486.301 114.99 484.17 117.121 484.17 119.75C484.17 122.379 486.301 124.51 488.93 124.51Z" fill="#676767"/>
<path d="M465.43 124.51C468.059 124.51 470.19 122.379 470.19 119.75C470.19 117.121 468.059 114.99 465.43 114.99C462.801 114.99 460.67 117.121 460.67 119.75C460.67 122.379 462.801 124.51 465.43 124.51Z" fill="#676767"/>
<path d="M348.42 125.3C351.927 125.3 354.77 122.457 354.77 118.95C354.77 115.443 351.927 112.6 348.42 112.6C344.913 112.6 342.07 115.443 342.07 118.95C342.07 122.457 344.913 125.3 348.42 125.3Z" fill="#676767"/>
<path d="M373.42 130.99C380.069 130.99 385.46 125.6 385.46 118.95C385.46 112.301 380.069 106.91 373.42 106.91C366.77 106.91 361.38 112.301 361.38 118.95C361.38 125.6 366.77 130.99 373.42 130.99Z" fill="#333434"/>
<path d="M373.42 125.3C376.927 125.3 379.77 122.457 379.77 118.95C379.77 115.443 376.927 112.6 373.42 112.6C369.913 112.6 367.07 115.443 367.07 118.95C367.07 122.457 369.913 125.3 373.42 125.3Z" fill="#676767"/>
<path d="M278.27 125.3C281.777 125.3 284.62 122.457 284.62 118.95C284.62 115.443 281.777 112.6 278.27 112.6C274.763 112.6 271.92 115.443 271.92 118.95C271.92 122.457 274.763 125.3 278.27 125.3Z" fill="#676767"/>
<path d="M389.54 121.6H433.28V112.07H389.54V121.6Z" fill="#676767"/>
<path d="M302.42 113.12H315.13V105.71H302.42V113.12Z" fill="#676767"/>
<path d="M302.42 121.6H315.13V114.19H302.42V121.6Z" fill="#676767"/>
<path d="M323.61 121.6H334.2V106.78H323.61V121.6Z" fill="#676767"/>
<path d="M318.31 121.6H321.49V106.78H318.31V121.6Z" fill="#676767"/>
<path d="M285.84 79.8604H295.11C296.132 79.8604 296.96 79.0321 296.96 78.0104V67.6604C296.96 66.6386 296.132 65.8104 295.11 65.8104H285.84C284.818 65.8104 283.99 66.6386 283.99 67.6604V78.0104C283.99 79.0321 284.818 79.8604 285.84 79.8604Z" fill="#333434"/>
<path d="M249.39 84.0496V87.6296C249.613 87.8091 249.873 87.9357 250.152 87.9998C250.431 88.0639 250.721 88.0638 251 87.9996L280 80.9996C280.564 80.8055 281.049 80.4311 281.38 79.9342C281.711 79.4372 281.869 78.8452 281.83 78.2496V68.5996C281.895 67.9326 281.695 67.2668 281.275 66.7451C280.854 66.2235 280.246 65.8876 279.58 65.8096H260.4L249.9 82.3196C249.564 82.8337 249.387 83.4354 249.39 84.0496Z" fill="#333434"/>
<path d="M276.41 59.3203H295.87V55.0003H276.41V59.3203Z" fill="#333434"/>
<path d="M517.07 104.92L564.12 122.09V111.28L537.42 101.74" fill="#333434"/>
<path d="M298.95 124.63H300.12V107.46H298.95V124.63Z" fill="#333434"/>
</g>
<g clip-path="url(#clip7_243_20)">
<path d="M401.7 102.22L466.68 102.22C471.391 102.22 475.21 98.4007 475.21 93.6897C475.21 88.9787 471.391 85.1597 466.68 85.1597L401.7 85.1597C396.989 85.1597 393.17 88.9787 393.17 93.6897C393.17 98.4007 396.989 102.22 401.7 102.22Z" fill="#676767"/>
<path d="M402.37 100.72L466.02 100.72C469.903 100.72 473.05 97.5723 473.05 93.6897C473.05 89.8072 469.903 86.6597 466.02 86.6597L402.37 86.6597C398.487 86.6597 395.34 89.8072 395.34 93.6897C395.34 97.5723 398.487 100.72 402.37 100.72Z" stroke="white" stroke-width="0.39" stroke-miterlimit="10"/>
<path d="M412.96 88.6602H437.24V82.1002H412.96V88.6602Z" fill="#676767"/>
<path d="M464.85 98.1304C467.181 98.1304 469.07 96.2411 469.07 93.9104C469.07 91.5798 467.181 89.6904 464.85 89.6904C462.519 89.6904 460.63 91.5798 460.63 93.9104C460.63 96.2411 462.519 98.1304 464.85 98.1304Z" fill="white"/>
<path d="M452.32 98.1304C454.651 98.1304 456.54 96.2411 456.54 93.9104C456.54 91.5798 454.651 89.6904 452.32 89.6904C449.989 89.6904 448.1 91.5798 448.1 93.9104C448.1 96.2411 449.989 98.1304 452.32 98.1304Z" fill="white"/>
<path d="M439.79 98.1304C442.121 98.1304 444.01 96.2411 444.01 93.9104C444.01 91.5798 442.121 89.6904 439.79 89.6904C437.459 89.6904 435.57 91.5798 435.57 93.9104C435.57 96.2411 437.459 98.1304 439.79 98.1304Z" fill="white"/>
<path d="M427.26 98.1304C429.591 98.1304 431.48 96.2411 431.48 93.9104C431.48 91.5798 429.591 89.6904 427.26 89.6904C424.929 89.6904 423.04 91.5798 423.04 93.9104C423.04 96.2411 424.929 98.1304 427.26 98.1304Z" fill="white"/>
<path d="M414.73 98.1304C417.061 98.1304 418.95 96.2411 418.95 93.9104C418.95 91.5798 417.061 89.6904 414.73 89.6904C412.399 89.6904 410.51 91.5798 410.51 93.9104C410.51 96.2411 412.399 98.1304 414.73 98.1304Z" fill="white"/>
<path d="M402.2 98.1304C404.531 98.1304 406.42 96.2411 406.42 93.9104C406.42 91.5798 404.531 89.6904 402.2 89.6904C399.869 89.6904 397.98 91.5798 397.98 93.9104C397.98 96.2411 399.869 98.1304 402.2 98.1304Z" fill="white"/>
<path d="M389 63.8198V76.5098C389.065 77.0286 389.331 77.5011 389.74 77.8263C390.15 78.1516 390.67 78.3036 391.19 78.2498H391.63V62.0898H391.19C390.671 62.0359 390.152 62.1866 389.743 62.5097C389.334 62.8328 389.068 63.3029 389 63.8198V63.8198Z" fill="#333434"/>
<path d="M396.51 56.8297H416.11C415.971 55.7417 415.441 54.7415 414.618 54.0163C413.796 53.2911 412.737 52.8906 411.64 52.8897H401C399.9 52.8879 398.838 53.287 398.011 54.0122C397.185 54.7375 396.651 55.7392 396.51 56.8297V56.8297Z" fill="#333434"/>
<path d="M395.12 56.8303C394.193 56.8329 393.306 57.2028 392.651 57.8589C391.997 58.515 391.63 59.4037 391.63 60.3303V78.9303C391.63 79.8568 391.997 80.7455 392.651 81.4016C393.306 82.0577 394.193 82.4276 395.12 82.4303H456.71C457.638 82.4303 458.528 82.0615 459.185 81.4051C459.841 80.7488 460.21 79.8585 460.21 78.9303V62.7403L479.81 53.4503L490.66 58.2703L547.66 83.5803L549.49 84.3903L549.61 84.4403C548.366 84.9668 547.039 85.2681 545.69 85.3303C533.47 87.3303 521.243 89.2536 509.01 91.1003C502.3 92.1003 495.59 93.1003 488.89 94.1803C488.366 94.2842 487.849 94.4177 487.34 94.5803C490.64 96.7103 490.97 97.3603 490.15 100.17C494.48 99.9903 498.68 98.9103 502.97 98.3903C507.07 97.8803 511.1 96.8203 515.26 96.6803C515.672 96.7254 516.088 96.7254 516.5 96.6803C522.13 95.2703 527.91 94.6803 533.63 93.7903C543.36 91.8903 553.2 90.6703 562.97 89.0303C563.618 88.9648 564.235 88.7221 564.753 88.3286C565.272 87.9352 565.672 87.4064 565.91 86.8003C566.64 85.1103 567.42 83.4403 568.16 81.8003C569.34 79.1203 569.16 78.2803 566.91 76.4203L548.76 70.0003C548.51 69.8103 548.09 69.8703 547.99 69.4703C547.68 69.5303 547.35 69.6003 547.27 69.1403C547.1 69.1403 546.91 69.2603 546.77 69.2103C542.9 67.8703 539.01 66.5503 535.15 65.2103L532.39 61.5003C532.841 60.6531 533.135 59.7318 533.26 58.7803C532.53 55.7803 530.95 54.9403 528.31 56.1403L483.53 38.4503H467.92L460.21 43.7003V31.7803C460.21 30.852 459.841 29.9618 459.185 29.3054C458.528 28.649 457.638 28.2803 456.71 28.2803H421.37C420.443 28.2829 419.556 28.6528 418.901 29.3089C418.247 29.965 417.88 30.8537 417.88 31.7803V56.7803L395.12 56.8303ZM512.06 56.8303L514.06 53.5503L529.16 60.7703L530.47 63.3903L512.06 56.8303Z" fill="#F8EA2E" stroke="#1E1E1C" stroke-width="0.56" stroke-miterlimit="10"/>
<path d="M494.33 97C497.517 90.3333 500.697 83.6933 503.87 77.08C504.19 76.39 504.69 76.28 505.35 76.16C507.86 75.68 508.98 74.33 508.71 72.22C508.44 70.11 507.04 69.22 504.55 69.42C499.263 69.7733 493.977 70.14 488.69 70.52C482.22 70.99 478.14 74.37 476.36 80.66C476.27 81.01 476.36 81.45 475.88 81.66L476.24 86.95C478.032 90.4322 480.561 93.4827 483.65 95.89L488.21 99.89L488.52 100.2C491.5 100.91 492.17 100.55 494.33 97Z" fill="#333434"/>
<path d="M569.05 73.8296L535.68 61.0996" stroke="#060606" stroke-width="1.5" stroke-miterlimit="10"/>
<path d="M483.83 55.8496L459.55 68.3196" stroke="#060606" stroke-width="1.5" stroke-miterlimit="10"/>
<path d="M541.59 84.0703L499.59 89.9703" stroke="#060606" stroke-width="0.66" stroke-miterlimit="10"/>
<path d="M430.43 54.1797H427.83C426.951 54.1823 426.08 54.0114 425.268 53.6769C424.455 53.3424 423.716 52.8508 423.094 52.2302C422.471 51.6097 421.977 50.8724 421.64 50.0606C421.303 49.2488 421.13 48.3786 421.13 47.4997V34.9497C421.13 34.276 421.398 33.6299 421.874 33.1536C422.35 32.6773 422.996 32.4097 423.67 32.4097H430.43C431.104 32.4097 431.75 32.6773 432.226 33.1536C432.702 33.6299 432.97 34.276 432.97 34.9497V51.6397C432.97 52.3133 432.702 52.9594 432.226 53.4357C431.75 53.9121 431.104 54.1797 430.43 54.1797V54.1797Z" fill="#333434"/>
<path d="M439 72.86L450.46 74.2C452.97 74.5 455.19 72.9 455.04 70.89L452.48 34.34C452.368 33.7537 452.042 33.2301 451.565 32.8714C451.088 32.5127 450.494 32.3447 449.9 32.4H439.27C437.06 32.4 435.27 33.82 435.27 35.57V69.41C435.27 71.14 436.87 72.61 439 72.86Z" fill="#333434"/>
<path d="M563.46 82.4297C564.968 82.4297 566.19 81.2075 566.19 79.6997C566.19 78.192 564.968 76.9697 563.46 76.9697C561.952 76.9697 560.73 78.192 560.73 79.6997C560.73 81.2075 561.952 82.4297 563.46 82.4297Z" stroke="#060606" stroke-width="0.68" stroke-miterlimit="10"/>
<path d="M486.65 70.8301C486.65 70.8301 475.3 72.2501 476 82.1001C476.7 91.9501 479.28 84.1001 479.28 84.1001L500.94 74.2501" fill="#333434"/>
</g>
<g clip-path="url(#clip8_243_20)">
<path d="M252.27 109H247V114.27H252.27V109Z" fill="#EDC255"/>
</g>
<path d="M133 75C133 75 246 103.61 238 112.805C230 122 133 143 133 143V75Z" fill="url(#paint1_linear_243_20)"/>
<defs>
<linearGradient id="paint0_linear_243_20" x1="0" y1="138.37" x2="760" y2="138.37" gradientUnits="userSpaceOnUse">
<stop offset="0.14" stop-color="#CCCCCC"/>
<stop offset="0.29" stop-color="#CCCCCC" stop-opacity="0.98"/>
<stop offset="0.42" stop-color="#CDCECE" stop-opacity="0.94"/>
<stop offset="0.53" stop-color="#CFCFD0" stop-opacity="0.86"/>
<stop offset="0.64" stop-color="#D1D2D2" stop-opacity="0.74"/>
<stop offset="0.74" stop-color="#D4D6D6" stop-opacity="0.59"/>
<stop offset="0.83" stop-color="#D7DADB" stop-opacity="0.41"/>
<stop offset="0.93" stop-color="#DBDFE0" stop-opacity="0.2"/>
<stop offset="1" stop-color="#DFE4E5" stop-opacity="0"/>
</linearGradient>
<linearGradient id="paint1_linear_243_20" x1="243.891" y1="132.935" x2="134.179" y2="119.341" gradientUnits="userSpaceOnUse">
<stop stop-color="#E3CE98" stop-opacity="0.491876"/>
<stop offset="0.0782324" stop-color="#EDC255"/>
<stop offset="0.846876" stop-color="#D9D9D9" stop-opacity="0"/>
</linearGradient>
<clipPath id="clip0_243_20">
<rect width="137.07" height="131" fill="white" transform="translate(582)"/>
</clipPath>
<clipPath id="clip1_243_20">
<rect width="95.99" height="131" fill="white" transform="translate(74)"/>
</clipPath>
<clipPath id="clip2_243_20">
<rect width="760" height="14.73" fill="white" transform="translate(0 131)"/>
</clipPath>
<clipPath id="clip3_243_20">
<rect width="4.45" height="4.45" fill="white" transform="translate(59.8 99)"/>
</clipPath>
<clipPath id="clip4_243_20">
<rect width="56.83" height="28.39" fill="white" transform="translate(35 103)"/>
</clipPath>
<clipPath id="clip5_243_20">
<rect width="5.41" height="5.41" fill="white" transform="translate(279 50)"/>
</clipPath>
<clipPath id="clip6_243_20">
<rect width="315.12" height="75.99" fill="white" transform="translate(249 55)"/>
</clipPath>
<clipPath id="clip7_243_20">
<rect width="180.32" height="74.23" fill="white" transform="translate(389 28)"/>
</clipPath>
<clipPath id="clip8_243_20">
<rect width="5.27" height="5.27" fill="white" transform="translate(247 109)"/>
</clipPath>
</defs>
</svg>
