<svg xmlns="http://www.w3.org/2000/svg" viewBox="0 0 32.02 24.14"></svg><path class="cls-1" d="M32,5.12a1.8,1.8,0,0,0-.48-1.34,1.94,1.94,0,0,0-1.43-.53H21V.76c0-.4-.12-.54-.25-.63L20.51,0l0,0h-9c-.3.13-.5.34-.48.9s0,.82,0,1.25v1.1H1.89A1.68,1.68,0,0,0,.54,3.7a3.29,3.29,0,0,0-.4.65L0,4.6V9.42a1.9,1.9,0,0,0,.74,1.06.92.92,0,0,1,.31.77V23.3c0,.65.19.84.83.84H30.12c.66,0,.84-.17.84-.83V22c0-3.55,0-7.11,0-10.66a1.12,1.12,0,0,1,.46-1A1.49,1.49,0,0,0,32,9.11c0-.41,0-.82,0-1.23C32,7,32,6.05,32,5.12ZM12.22,1.2h7.56v2H12.22ZM29.78,23H2.23V11.38l.82.4.23.12,2,1.12,7.65,4.27a1,1,0,0,1,.56,1,1.18,1.18,0,0,0,.15.85,1.26,1.26,0,0,0,.9.19c.72,0,1.44,0,2.16,0h1.08a.77.77,0,0,0,.57-.18.66.66,0,0,0,.14-.51,1.5,1.5,0,0,1,.9-1.54c2.37-1.3,4.74-2.62,7.1-3.94l3.28-1.81Zm-15.1-4.78V14.83h2.64v3.34ZM30.39,9.65l-8,4.47-2.86,1.6a1,1,0,0,1-.21.1l-.64.27-.16-.92c0-.16,0-.32,0-.48a1.13,1.13,0,0,0-1.09-1c-.83,0-1.65,0-2.49,0A1.23,1.23,0,0,0,13.5,15v1.23l-.83-.43-.25-.13L9.53,14.06,1.67,9.68a.93.93,0,0,1-.54-.91c0-.87,0-1.73,0-2.6V5l0-.6H30.83l0,.58a1.7,1.7,0,0,1,0,.22V6.36c0,.82,0,1.63,0,2.45A.89.89,0,0,1,30.39,9.65Z"/></g></svg>
