<svg xmlns="http://www.w3.org/2000/svg" viewBox="0 0 32 20"><g><path d="M6.34,19.55h0A4.16,4.16,0,0,1,2.9,17.34,1.26,1.26,0,0,0,2.57,17C.27,17.08.19,15.1.14,14.05c0-.45,0-.89,0-1.34v-1H.27C.39,6.3,2.48,3.81,7.71,2.83a31.73,31.73,0,0,1,6-.37A9.27,9.27,0,0,1,20,5a13,13,0,0,0,3.35,1.91l.8.36c.76.35,1.58.66,2.36,1s1.62.62,2.42,1c2.13,1,3.21,2.8,3.29,5.55a1.89,1.89,0,0,1-1.92,2.08,3.37,3.37,0,0,1-.71,0,2.31,2.31,0,0,0-.71,0,2.18,2.18,0,0,0-1.22.66,3.87,3.87,0,0,1-3.17,1.84h0a3.91,3.91,0,0,1-3.22-1.91,1.35,1.35,0,0,0-.87-.55c-3.18-.05-6.42-.05-9.93,0a1.17,1.17,0,0,0-.77.48,4.08,4.08,0,0,1-3.37,2.12m-3.72-3.4c.47,0,.84.52,1,.75a3.35,3.35,0,0,0,2.72,1.82h0A3.29,3.29,0,0,0,9,17a2,2,0,0,1,1.46-.86c3.51-.06,6.76-.07,10,0A2.15,2.15,0,0,1,22,17a3.14,3.14,0,0,0,2.53,1.55h0A3,3,0,0,0,27,17.08a3.16,3.16,0,0,1,2.67-1,3.49,3.49,0,0,0,.56,0c.86-.1,1.21-.46,1.19-1.23-.07-2.41-1-4-2.81-4.83-.77-.35-1.58-.66-2.36-1s-1.63-.61-2.42-1L23,7.67a13.35,13.35,0,0,1-3.56-2,8.42,8.42,0,0,0-5.74-2.34,30.85,30.85,0,0,0-5.88.35c-4.88.92-6.65,3-6.76,8.09,0,.1,0,.2,0,.31l0,.5H1v.18c0,.43,0,.86,0,1.29.06,1.51.29,2.18,1.64,2.14ZM6.38,18h0a2,2,0,0,1-2.18-2,2.27,2.27,0,0,1,.55-1.66,2.12,2.12,0,0,1,1.5-.71A2.27,2.27,0,0,1,8.53,15.7a2.2,2.2,0,0,1-.64,1.63A2.11,2.11,0,0,1,6.38,18m-.07-3.57H6.24a1.32,1.32,0,0,0-.92.44A1.41,1.41,0,0,0,5,15.89a1.21,1.21,0,0,0,1.37,1.25,1.42,1.42,0,0,0,1-.39,1.39,1.39,0,0,0,.4-1,1.35,1.35,0,0,0-.46-1,1.4,1.4,0,0,0-.93-.39m18.2,3.51a1.94,1.94,0,0,1-2.09-2.09,2.14,2.14,0,0,1,.66-1.62,1.85,1.85,0,0,1,1.45-.55,2.09,2.09,0,0,1,2.1,2.14v.06a2,2,0,0,1-2.11,2.06Zm-.11-3.44a1.08,1.08,0,0,0-.74.32,1.35,1.35,0,0,0-.42,1c0,.88.44,1.29,1.27,1.29h0c.5,0,1.17-.13,1.28-1.27a1.27,1.27,0,0,0-1.34-1.33H24.4M21.88,9.15H10.38V4.29l.42-.06C16,3.57,19.09,6.16,21.25,8.48ZM11.35,8.32h8.49C17.18,5.71,14.58,4.7,11.35,5ZM9.27,9.2H3.74l0-.37a3.47,3.47,0,0,1,.72-2.68c.82-1,2.31-1.56,4.4-1.72l.45,0ZM4.5,8.37H8.44V5.3A5,5,0,0,0,5.06,6.68,2.48,2.48,0,0,0,4.5,8.37"/><polygon points="9.44 3.04 8.68 2.71 9.8 0.13 12.21 0.13 13.23 2.65 12.47 2.96 11.65 0.95 10.34 0.95 9.44 3.04"/></g></svg>