<svg xmlns="http://www.w3.org/2000/svg" viewBox="0 0 18.64 25.31"><g><path d="M18.4,4.5,15.15,1,14.73.53,14.41.16A1.83,1.83,0,0,0,14.28,0H1.22A1.71,1.71,0,0,0,.31.56,1.36,1.36,0,0,0,0,1.3c0,.1,0,.21,0,.32v6q0,8,0,16.06A1.46,1.46,0,0,0,.59,25a2.58,2.58,0,0,0,.44.22l.19.08h16.2a1.63,1.63,0,0,0,.9-.55,1.27,1.27,0,0,0,.3-.76c0-.48,0-1,0-1.45V20.81q0-7.84,0-15.68A.83.83,0,0,0,18.4,4.5Zm-3.85-.6c0-.52,0-1.07,0-1.63l0-.29,2.11,2.3-.06.15-.1.05H14.85a.32.32,0,0,1-.23-.07.26.26,0,0,1-.07-.2Zm3,19.8c0,.42-.12.54-.54.54H1.61c-.43,0-.54-.11-.54-.54V1.61c0-.42.11-.54.54-.54H13.48V5a.56.56,0,0,0,.61.59h3.48Z"/><path d="M15.26,7.41a.3.3,0,0,1-.27.3,1.1,1.1,0,0,1-.26,0H3.87a1.18,1.18,0,0,1-.31-.05.33.33,0,0,1-.18-.37A.35.35,0,0,1,3.66,7,1.32,1.32,0,0,1,4,7H14.77a.53.53,0,0,1,.41.13A.35.35,0,0,1,15.26,7.41Z"/><path d="M15.26,10.77A.35.35,0,0,1,15,11h-11a1.14,1.14,0,0,1-.28,0,.31.31,0,0,1-.27-.35.34.34,0,0,1,.3-.34H14.75a1,1,0,0,1,.34,0A.35.35,0,0,1,15.26,10.77Z"/><path d="M15.27,13.9a.34.34,0,0,1-.3.34H3.91a1,1,0,0,1-.41-.1s-.15-.07-.12-.33a.3.3,0,0,1,.23-.26.65.65,0,0,1,.26,0H14.79a.55.55,0,0,1,.39.12A.36.36,0,0,1,15.27,13.9Z"/><path d="M15.26,17.16a.32.32,0,0,1-.26.33l-.23,0H3.87c-.48,0-.49-.26-.49-.35a.33.33,0,0,1,.29-.36.9.9,0,0,1,.24,0H14.72a1,1,0,0,1,.28,0A.31.31,0,0,1,15.26,17.16Z"/></g></svg>
