<svg width="17" height="17" viewBox="0 0 17 17" fill="none" xmlns="http://www.w3.org/2000/svg">
<path d="M8.33328 0.333374C6.16059 0.333374 5.88815 0.342591 5.03485 0.381508C4.18335 0.420354 3.60181 0.555611 3.09293 0.75334C2.56686 0.957785 2.12072 1.23135 1.67598 1.67608C1.23123 2.12082 0.957663 2.56701 0.753242 3.09308C0.555465 3.60193 0.420256 4.18347 0.381362 5.03498C0.342445 5.88827 0.333252 6.16071 0.333252 8.3334C0.333252 10.506 0.342445 10.7785 0.381362 11.6318C0.420256 12.4833 0.555465 13.0648 0.753242 13.5737C0.957687 14.0997 1.23125 14.5459 1.67598 14.9907C2.12074 15.4354 2.56686 15.709 3.09293 15.9134C3.60181 16.1111 4.18335 16.2464 5.03485 16.2852C5.88815 16.3242 6.16059 16.3334 8.33328 16.3334C10.5059 16.3334 10.7784 16.3242 11.6316 16.2852C12.4832 16.2464 13.0647 16.1111 13.5735 15.9134C14.0996 15.709 14.5458 15.4354 14.9905 14.9907C15.4353 14.5459 15.7088 14.0997 15.9133 13.5737C16.111 13.0648 16.2463 12.4833 16.2851 11.6318C16.324 10.7785 16.3333 10.506 16.3333 8.3334C16.3333 6.16071 16.324 5.88827 16.2851 5.03498C16.2463 4.18347 16.111 3.60193 15.9133 3.09308C15.7088 2.56701 15.4353 2.12082 14.9905 1.67608C14.5458 1.23135 14.0996 0.957785 13.5735 0.75334C13.0647 0.555611 12.4832 0.420354 11.6316 0.381508C10.7784 0.342591 10.5059 0.333374 8.33328 0.333374ZM8.33328 1.7748C10.4693 1.7748 10.7224 1.78297 11.5659 1.82146C12.3459 1.85702 12.7695 1.98735 13.0514 2.09691C13.4249 2.24205 13.6913 2.41539 13.9713 2.69533C14.2512 2.97528 14.4246 3.24179 14.5697 3.61519C14.6793 3.89709 14.8096 4.3207 14.8452 5.10069C14.8837 5.94426 14.8918 6.1973 14.8918 8.33337C14.8918 10.4695 14.8837 10.7225 14.8452 11.5661C14.8096 12.3461 14.6793 12.7697 14.5697 13.0515C14.4246 13.425 14.2512 13.6915 13.9713 13.9714C13.6913 14.2514 13.4248 14.4247 13.0514 14.5698C12.7695 14.6794 12.3459 14.8097 11.5659 14.8453C10.7225 14.8838 10.4695 14.8919 8.33325 14.8919C6.19701 14.8919 5.94405 14.8838 5.10057 14.8453C4.32056 14.8097 3.89697 14.6794 3.6151 14.5698C3.24165 14.4247 2.97516 14.2514 2.69524 13.9714C2.41529 13.6915 2.24193 13.425 2.09678 13.0516C1.98723 12.7697 1.85692 12.346 1.82134 11.5661C1.78285 10.7225 1.77468 10.4695 1.77468 8.33337C1.77468 6.1973 1.78285 5.94426 1.82134 5.10069C1.85692 4.32068 1.98723 3.89709 2.09678 3.61522C2.24193 3.24177 2.41529 2.97528 2.69521 2.69536C2.97516 2.41539 3.24167 2.24205 3.61507 2.09691C3.89697 1.98735 4.32058 1.85702 5.10057 1.82146C5.94414 1.78297 6.19717 1.7748 8.33325 1.7748" fill="#100F0D"/>
<path d="M8.33323 11C6.86043 11 5.66653 9.80611 5.66653 8.33336C5.66653 6.86057 6.86043 5.66667 8.33323 5.66667C9.80598 5.66667 10.9999 6.86057 10.9999 8.33336C10.9999 9.80611 9.80598 11 8.33323 11ZM8.33323 4.22524C6.06434 4.22524 4.2251 6.06448 4.2251 8.33336C4.2251 10.6022 6.06434 12.4414 8.33323 12.4414C10.6021 12.4414 12.4413 10.6022 12.4413 8.33336C12.4413 6.06448 10.6021 4.22524 8.33323 4.22524M13.5636 4.06292C13.5636 4.59314 13.1338 5.02292 12.6036 5.02292C12.0735 5.02292 11.6436 4.59314 11.6436 4.06292C11.6436 3.53273 12.0735 3.10291 12.6036 3.10291C13.1338 3.10291 13.5636 3.53273 13.5636 4.06292" fill="#100F0D"/>
</svg>
