<svg xmlns="http://www.w3.org/2000/svg" viewBox="0 0 30 28"><g><path d="M7,27.9H6.92l-.15-.09a11.86,11.86,0,0,1-4.66-4.14A12.42,12.42,0,0,1,.18,18c0-.22,0-.43,0-.65V17a2.83,2.83,0,0,0,0-.29c0-.1,0-.14.13-.17a5.75,5.75,0,0,0,1-.33A3,3,0,0,0,3,13.76a6.16,6.16,0,0,0,0-.75l1.23-.26a14.42,14.42,0,0,1,2.44-.31,12.26,12.26,0,0,1,2.7.28l1.37.28c0,.38.06.73.13,1.07a3,3,0,0,0,1.51,2.05,4.56,4.56,0,0,0,1.19.42c.07,0,.11,0,.11.13s0,.29,0,.43a11.74,11.74,0,0,1-.56,3.53,11.57,11.57,0,0,1-5.06,6.6C7.76,27.47,7.37,27.68,7,27.9Zm-.09-7.79V13.58H6.73a15.85,15.85,0,0,0-2.37.31c-.18,0-.22.12-.25.28a4.27,4.27,0,0,1-1.45,2.49,4,4,0,0,1-1.26.73c-.07,0-.12.05-.11.15A12.34,12.34,0,0,0,1.68,20c0,.12.08.16.21.16h5Zm5.25.12H7v6.35A10.53,10.53,0,0,0,12.14,20.23Z"/><path class="cls-2" d="M25.18,3.3A12.22,12.22,0,0,0,19.11.36,12.94,12.94,0,0,0,7.67,3.61a12.6,12.6,0,0,0-4,7.21c0,.21-.06.41-.09.61l.87,0a12.58,12.58,0,0,1,.8-2.88.37.37,0,0,1,.42-.27c.54,0,1.07,0,1.65,0a17.25,17.25,0,0,0-.63,3.07l.87,0a14.74,14.74,0,0,1,.68-3.08h3.22l-.33,3.86a4.11,4.11,0,0,1,.82.53c.13-1.48.26-2.93.39-4.39h3.84c0,.1,0,.18,0,.27,0,1.35,0,2.7,0,4.06,0,.21-.06.27-.28.27-1.22,0-2.45,0-3.67,0h-.05a4.84,4.84,0,0,1,.76.87h3.21v4.59H14.38c0,.15,0,.3,0,.44a3.38,3.38,0,0,1,0,.45h1.75v3.66h-2.3a.2.2,0,0,1-.16-.12l0,0c-.13.37-.28.73-.44,1.09l0,.05.82,1.27a6.24,6.24,0,0,1-1.22-.59c-.21.4-.45.79-.7,1.17a13.5,13.5,0,0,0,1.94.53c.45.09.91.12,1.37.18l.2,0h1.85l1.09-.15a13,13,0,0,0,8-4.45,12.32,12.32,0,0,0,2.94-6.09A12.94,12.94,0,0,0,25.18,3.3M14.1,1.46l-.85,1.31a.26.26,0,0,1-.19.08h-1.3a7.83,7.83,0,0,1,2.34-1.4m-3.21.92c-.21.21-.33.56-.78.45l.78-.45M7.7,7.18a.29.29,0,0,1-.34.22c-.51,0-1,0-1.62,0,.4-.58.72-1.13,1.12-1.61C7.38,5.16,8,4.6,8.53,4a.81.81,0,0,1,.75-.28,2.52,2.52,0,0,0,.39,0l-.09.14A13.6,13.6,0,0,0,7.7,7.18m4.38-1.46c-.15.49-.24,1-.37,1.47,0,.08-.11.2-.17.2h-3c.16-.36.3-.69.46-1a11.94,11.94,0,0,1,1.73-2.55.35.35,0,0,1,.21-.12h1.81c-.23.69-.47,1.34-.67,2m4.07,1.67H12.56c.06-.27.1-.52.17-.76.31-.91.62-1.82.94-2.73,0-.07.12-.17.18-.17h2.3Zm0-4.55H14.22a3.77,3.77,0,0,1,1.94-1.79Zm0,22.73a3.83,3.83,0,0,1-1.93-1.79h1.93ZM24.76,4.06a13.64,13.64,0,0,1,2.57,3.19l.08.15c-.59,0-1.13,0-1.67,0-.08,0-.19-.12-.23-.21A14.14,14.14,0,0,0,23.8,4.09l-.26-.35a1.39,1.39,0,0,1,1.22.32m-2.61,9.69h3.62A15.15,15.15,0,0,1,25,18.34H21.76l.39-4.59m-.39-5.46H25a15,15,0,0,1,.79,4.57H22.15l-.39-4.57M23.1,2.82c-.45.13-.58-.23-.79-.43l.79.43m-.65,1a12.21,12.21,0,0,1,2.17,3.5s0,0,0,.08H21.75c-.13,0-.22,0-.26-.17a17.33,17.33,0,0,0-1-3.38,1.23,1.23,0,0,1,0-.13h1.83a.28.28,0,0,1,.17.09m-1-1h-1.4S20,2.8,20,2.76c-.28-.43-.56-.85-.84-1.3a8.27,8.27,0,0,1,2.34,1.39m-2.09.88a.23.23,0,0,1,.16.12,16.53,16.53,0,0,1,1.1,3.43s0,0,0,.1H17.05V3.72h2.31M17.05,1.05A3.79,3.79,0,0,1,19,2.84H17.05Zm0,7.42a1.48,1.48,0,0,1,0-.19h3.75a29.14,29.14,0,0,1,.43,4.6h-4c-.16,0-.24,0-.24-.22,0-1.4,0-2.8,0-4.19M17,14c0-.2,0-.28.27-.28,1.23,0,2.46,0,3.7,0h.2a25.45,25.45,0,0,1-.39,4.59H17.05c0-.1,0-.18,0-.26,0-1.36,0-2.71,0-4.07m3.61,5.22c-.05.22-.07.43-.13.62-.32,1-.64,1.91-1,2.86a.32.32,0,0,1-.2.18H17.13l-.08,0V19.23Zm-3.59,6.34V23.78H19a3.83,3.83,0,0,1-1.93,1.79m2.05-.41.83-1.27a.28.28,0,0,1,.19-.12h1.32a7.79,7.79,0,0,1-2.34,1.4m1.34-2.27c.17-.45.34-.88.47-1.32.21-.71.39-1.43.58-2.15,0-.11.05-.21.2-.21h2.88s0,0,.08,0c-.16.33-.29.67-.46,1a11.86,11.86,0,0,1-1.7,2.5.4.4,0,0,1-.23.14H20.44m1.88,1.34c.2-.21.33-.55.77-.44l-.77.44m4.13-3.54c-.56.67-1.18,1.28-1.77,1.92a.81.81,0,0,1-.75.29,2.4,2.4,0,0,0-.39,0,1.15,1.15,0,0,1,.07-.11,13.62,13.62,0,0,0,1.89-3.34.31.31,0,0,1,.34-.23c.51,0,1,0,1.61,0a14.48,14.48,0,0,1-1,1.47m2.4-6a12.52,12.52,0,0,1-.9,3.46.3.3,0,0,1-.34.22c-.55,0-1.11,0-1.71,0a17.34,17.34,0,0,0,.75-4.6h2.27c0,.31,0,.62-.07.92m-2.2-1.81a17.14,17.14,0,0,0-.75-4.59c.64,0,1.24,0,1.84,0a.22.22,0,0,1,.17.14,12,12,0,0,1,.95,3.68c0,.25,0,.49.06.76Z"/></g></svg>