<?xml version="1.0" standalone="no"?>
<!DOCTYPE svg PUBLIC "-//W3C//DTD SVG 20010904//EN"
 "http://www.w3.org/TR/2001/REC-SVG-20010904/DTD/svg10.dtd">
<svg version="1.0" xmlns="http://www.w3.org/2000/svg"
 width="247.000000pt" height="246.000000pt" viewBox="0 0 247.000000 246.000000"
 preserveAspectRatio="xMidYMid meet">

<g transform="translate(0.000000,246.000000) scale(0.100000,-0.100000)"
fill="#000000" stroke="none">
<path d="M1710 1860 c-11 -11 -20 -28 -20 -37 0 -10 -11 -25 -23 -34 -47 -33
-658 -467 -770 -546 -65 -46 -124 -83 -132 -83 -10 0 -15 -17 -17 -62 -3 -63
-3 -63 -35 -66 -32 -3 -33 -4 -33 -53 l0 -49 34 0 c21 0 36 -6 40 -15 4 -12
30 -15 146 -15 l140 0 11 28 c35 93 101 201 190 312 110 138 463 510 484 510
21 0 25 -25 25 -175 0 -114 -3 -145 -15 -155 -8 -7 -15 -26 -15 -42 0 -16 6
-31 15 -34 8 -4 15 -13 15 -22 0 -8 7 -24 17 -34 21 -23 9 -36 -18 -19 -25 15
-37 6 -23 -17 14 -21 57 -27 71 -10 6 7 13 25 17 41 5 20 3 27 -8 27 -21 0
-31 19 -17 33 15 15 13 48 -4 71 -12 15 -15 53 -15 170 l0 150 27 22 c50 40
24 124 -39 124 -15 0 -37 -9 -48 -20z m84 -32 c8 -14 6 -22 -10 -39 -18 -17
-25 -19 -43 -10 -11 7 -21 20 -21 29 0 41 52 55 74 20z m-495 -395 c-51 -54
-191 -230 -229 -286 -14 -20 -28 -37 -32 -37 -4 0 -8 15 -10 33 -3 30 -6 32
-46 37 l-42 5 122 93 c68 50 157 118 198 151 41 32 77 57 79 55 2 -2 -16 -25
-40 -51z m-441 -361 c3 -42 2 -43 -25 -40 -22 2 -29 9 -31 31 -5 42 5 59 30
55 19 -2 24 -10 26 -46z m122 -41 c0 -92 -8 -109 -45 -95 -12 5 -15 25 -15 95
l0 89 30 0 30 0 0 -89z"/>
<path d="M1594 1160 c-29 -4 -57 -11 -63 -14 -7 -5 -11 -50 -11 -125 0 -116
-6 -141 -37 -141 -9 0 -13 33 -15 128 -3 123 -4 127 -25 130 -23 3 -23 2 -23
-117 l0 -121 -170 0 c-93 0 -170 -3 -170 -7 0 -5 -75 -6 -166 -5 -111 3 -170
0 -177 -7 -6 -6 -21 -11 -34 -11 -28 0 -31 -27 -5 -46 10 -8 12 -13 5 -14 -8
0 -13 -13 -13 -30 0 -26 4 -30 28 -30 21 0 42 13 74 45 l46 45 127 0 127 0 40
-40 40 -40 163 0 c160 0 162 0 172 23 14 31 75 60 107 51 14 -3 41 -21 60 -40
33 -32 39 -34 106 -34 l70 0 0 29 c0 17 -4 33 -10 36 -5 3 -10 34 -10 68 0 67
-22 172 -44 215 -25 48 -94 67 -192 52z m26 -111 l0 -70 -27 3 c-26 3 -28 6
-31 57 -4 68 1 81 33 81 24 0 25 -2 25 -71z m130 39 c11 -18 20 -50 20 -70 l0
-38 -55 0 -55 0 0 70 0 70 35 0 c29 0 39 -6 55 -32z"/>
<path d="M845 788 c-11 -6 -23 -16 -27 -22 -14 -21 -8 -73 10 -89 25 -22 75
-21 95 1 20 22 22 71 5 95 -17 22 -59 29 -83 15z"/>
<path d="M1025 788 c-28 -16 -35 -28 -35 -64 0 -38 27 -64 66 -64 37 0 50 9
63 43 14 36 -1 75 -34 87 -32 12 -35 12 -60 -2z"/>
<path d="M1570 793 c-41 -15 -55 -87 -22 -116 25 -22 75 -21 95 1 20 22 22 71
5 95 -14 18 -55 29 -78 20z"/>
</g>
</svg>
