<svg width="261" height="182" viewBox="0 0 261 182" fill="none" xmlns="http://www.w3.org/2000/svg">
<path d="M231.974 181C212.153 168.153 212.153 168.153 204.828 156.294C194.381 136.819 182.898 123.666 164.613 108.925C150.671 97.6848 133.293 90.5556 113.974 91.9243C100.57 92.874 84.6235 96.6392 81.3875 108.925C79.8776 114.658 85.8999 121.817 93.7176 123.346C93.7176 123.346 100.162 124.971 105.844 123.346C112.448 121.456 115.143 117.903 115.871 114.123C116.866 108.953 114.952 101.481 111.942 97.4628C107.487 91.5158 107.215 89.4119 83.749 81.1886C60.2831 72.9653 83.749 81.1886 60.2831 72.9653C32.7205 63.3063 29.0264 37.2139 29.0264 37.2139" stroke="#969696" stroke-width="2" stroke-linecap="round" stroke-dasharray="6 6"/>
<path d="M245.769 144H247.304C247.381 144.021 247.459 144.038 247.538 144.051C249.946 144.178 252.275 144.862 254.297 146.034C257.316 147.721 259.517 150.353 260.469 153.414C261.253 155.735 261.167 158.22 260.223 160.494C259.348 162.616 258.291 164.675 257.063 166.653C254.1 171.35 250.804 175.874 247.195 180.196L246.522 181C245.861 180.181 245.21 179.398 244.577 178.605C240.998 174.244 237.784 169.654 234.96 164.873C233.899 163.094 233.055 161.218 232.445 159.278C232.234 158.581 232.143 157.824 232 157.081V156.791C232.031 156.664 232.054 156.534 232.068 156.405C232.156 153.728 233.208 151.147 235.069 149.045C236.199 147.714 237.613 146.595 239.23 145.753C240.848 144.912 242.636 144.364 244.492 144.142C244.914 144.086 245.342 144.046 245.769 144ZM241.206 156.949C241.212 157.889 241.53 158.807 242.121 159.586C242.712 160.365 243.548 160.971 244.525 161.326C245.502 161.682 246.574 161.771 247.608 161.582C248.641 161.394 249.589 160.936 250.331 160.268C251.073 159.599 251.575 158.749 251.776 157.826C251.976 156.903 251.865 155.947 251.456 155.08C251.047 154.213 250.359 153.474 249.479 152.955C248.599 152.437 247.566 152.163 246.511 152.168C245.096 152.175 243.741 152.682 242.744 153.578C241.747 154.474 241.19 155.687 241.195 156.949H241.206Z" fill="#CCCCCC"/>
<path d="M13.7695 0H15.3039C15.3806 0.0211559 15.4587 0.0381402 15.5377 0.0508591C17.9456 0.178153 20.275 0.861701 22.297 2.03436C25.3158 3.72057 27.5175 6.35317 28.4687 9.41402C29.2531 11.7348 29.167 14.2204 28.2235 16.4936C27.3479 18.6155 26.2915 20.6745 25.0634 22.6526C22.1005 27.3498 18.8045 31.8736 15.1955 36.1964L14.5224 37C13.8608 36.1812 13.2105 35.3979 12.5773 34.6045C8.99842 30.2437 5.7841 25.6539 2.96038 20.8726C1.89864 19.0938 1.05527 17.2181 0.444913 15.2781C0.233865 14.5813 0.1426 13.8235 0 13.081V12.7911C0.0311509 12.6635 0.0540051 12.5344 0.0684482 12.4045C0.156443 9.72782 1.20842 7.14748 3.06876 5.04522C4.19856 3.71373 5.61296 2.59494 7.23029 1.75344C8.84761 0.911939 10.6359 0.364392 12.4918 0.142405C12.9139 0.0864605 13.3417 0.0457732 13.7695 0ZM9.20628 12.9487C9.21192 13.8892 9.53027 14.8071 10.121 15.5863C10.7117 16.3655 11.5482 16.971 12.5249 17.3263C13.5016 17.6815 14.5744 17.7706 15.6079 17.5821C16.6413 17.3937 17.5889 16.9363 18.3308 16.2677C19.0726 15.5991 19.5755 14.7494 19.7757 13.826C19.976 12.9026 19.8646 11.947 19.4558 11.08C19.0469 10.213 18.3589 9.47363 17.4788 8.95527C16.5986 8.43697 15.5658 8.16294 14.511 8.16797C13.0955 8.17469 11.7408 8.68185 10.7441 9.57814C9.74747 10.4744 9.19031 11.6866 9.19487 12.9487H9.20628Z" fill="#CCCCCC"/>
</svg>
