<svg width="249" height="24" viewBox="0 0 249 24" fill="none" xmlns="http://www.w3.org/2000/svg">
<path d="M248.724 5.84951V0.932617H175.036V23.1353H248.724V18.2184H181.629V14.0324H248.724V9.74928H181.629V5.84951H248.724Z" fill="url(#paint0_linear_281_46)"/>
<path d="M24.4167 2.08737C21.8046 1.04984 18.9862 0.547961 16.1505 0.615368C13.3271 0.550761 10.5211 1.04719 7.91687 2.07203C5.80003 2.90154 3.9729 4.27011 2.64213 6.02292C1.44481 7.66033 0.813233 9.60347 0.833032 11.5889V11.9058C0.811862 13.9924 1.44679 16.0386 2.65848 17.7887C3.96572 19.6264 5.80248 21.078 7.95501 21.9747C10.5245 23.0483 13.3166 23.572 16.1287 23.508C18.9894 23.5844 21.8322 23.0605 24.4494 21.9747C26.5845 21.0822 28.3978 19.6282 29.6697 17.7887C30.8603 16.0093 31.4772 13.9451 31.4461 11.8445V11.5583C31.4626 9.5946 30.8369 7.67341 29.6533 6.05359C28.3369 4.29882 26.5229 2.92488 24.4167 2.08737V2.08737ZM24.8745 11.9058C24.926 12.8071 24.7454 13.7068 24.348 14.5288C23.9506 15.3508 23.3481 16.071 22.5913 16.6285C21.0692 17.7529 18.9222 18.3134 16.1505 18.31C13.3097 18.31 11.1409 17.7614 9.64423 16.6643C8.90934 16.1318 8.3214 15.4417 7.9298 14.652C7.5382 13.8622 7.35437 12.9958 7.39375 12.1256V11.8445C7.34761 10.982 7.53059 10.1224 7.92625 9.34265C8.32191 8.56294 8.91787 7.88762 9.66058 7.37737C11.1718 6.3347 13.3351 5.82359 16.1505 5.84403C18.9658 5.86448 21.1128 6.37559 22.5913 7.37737C23.3187 7.84388 23.9092 8.4747 24.3082 9.21163C24.7072 9.94857 24.902 10.7679 24.8745 11.594V11.9058Z" fill="black"/>
<path d="M45.941 18.8215H44.8566L37.9635 0.932617H30.7925L39.5492 23.1353H51.2484L60.0051 0.932617H52.8396L45.941 18.8215Z" fill="black"/>
<path d="M62.0376 0.932617V23.1353H83.2237V18.2184H68.631V14.0324H83.2237V9.74928H68.631V5.84951H83.2237V0.932617H62.0376Z" fill="black"/>
<path d="M106.688 14.2673C107.785 13.6459 108.656 12.7285 109.189 11.6351C109.691 10.5822 109.95 9.44099 109.946 8.28732V7.97554C109.945 6.81997 109.662 5.67999 109.118 4.6431C108.55 3.54476 107.659 2.62107 106.551 1.98021C105.252 1.24557 103.752 0.881512 102.236 0.93243H85.9756V23.1351H92.569V15.2998H100.345L103.898 23.1351H110.437L105.892 14.6609C106.166 14.5465 106.432 14.4151 106.688 14.2673V14.2673ZM92.569 11.0167V5.21554H100.65C101.353 5.20148 102.037 5.42458 102.579 5.84421C102.857 6.09542 103.072 6.40247 103.206 6.74236C103.34 7.08225 103.39 7.44618 103.353 7.80688V8.12376C103.353 9.20221 103.102 9.95866 102.595 10.3931C102.06 10.8367 101.363 11.0693 100.65 11.0422L92.569 11.0167Z" fill="black"/>
<path d="M129.682 11.2722C128.193 10.6589 126.333 10.0132 124.103 9.33512C122.829 8.98133 121.581 8.55285 120.365 8.05223C119.591 7.70467 119.198 7.31623 119.198 6.89201C119.198 6.46779 119.564 6.12534 120.288 5.86979C121.271 5.55694 122.308 5.4166 123.345 5.45579C124.775 5.45442 126.19 5.7275 127.503 6.25823C128.884 6.82214 130.187 7.54126 131.383 8.39978L134.799 4.21379C133.984 3.51004 133.067 2.91809 132.075 2.45557C130.794 1.85474 129.442 1.39673 128.048 1.0909C126.478 0.724581 124.865 0.542595 123.247 0.549121C121.255 0.499539 119.27 0.806571 117.4 1.45379C115.98 1.9299 114.732 2.77124 113.798 3.88156C113.023 4.82698 112.6 5.98525 112.594 7.17823C112.589 7.77382 112.714 8.36408 112.961 8.91262C113.209 9.46115 113.573 9.95631 114.033 10.3676C115.026 11.29 116.189 12.0363 117.466 12.5704C118.795 13.1429 120.497 13.7784 122.571 14.4769C123.901 14.9164 124.931 15.2844 125.667 15.5707C126.32 15.8109 126.938 16.1305 127.503 16.5213C127.71 16.6415 127.884 16.8061 128.01 17.0016C128.136 17.1971 128.21 17.4179 128.228 17.6458C128.219 17.8755 128.134 18.097 127.986 18.28C127.838 18.463 127.633 18.5986 127.399 18.668C126.63 18.945 125.808 19.0685 124.985 19.0309C123.211 19.0022 121.465 18.6041 119.874 17.8656C118.085 17.0749 116.469 15.9796 115.106 14.6353L112.262 19.2353C113.162 20.0962 114.201 20.8189 115.34 21.3769C116.719 22.0571 118.184 22.5722 119.7 22.9102C121.42 23.3103 123.186 23.5077 124.958 23.498C126.737 23.5303 128.512 23.322 130.227 22.8796C131.603 22.5438 132.857 21.8698 133.862 20.9271C134.305 20.4905 134.652 19.9755 134.881 19.4122C135.11 18.8489 135.217 18.2484 135.197 17.6458C135.216 16.9309 135.081 16.2197 134.8 15.5549C134.519 14.8901 134.098 14.2853 133.562 13.7767C132.454 12.7145 131.136 11.864 129.682 11.2722V11.2722Z" fill="black"/>
<path d="M143.828 0.932617H137.235V23.1353H143.828V0.932617Z" fill="black"/>
<path d="M147.572 1.13672V5.37383H164.791L147.572 17.7172V23.1145H173.112V18.8774H156.296L173.112 6.25294V1.13672H147.572Z" fill="black"/>
<defs>
<linearGradient id="paint0_linear_281_46" x1="175.036" y1="12.0339" x2="248.724" y2="12.0339" gradientUnits="userSpaceOnUse">
<stop offset="0.15"/>
<stop offset="0.91" stop-color="white" stop-opacity="0"/>
</linearGradient>
</defs>
</svg>
