<?xml version="1.0" standalone="no"?>
<!DOCTYPE svg PUBLIC "-//W3C//DTD SVG 20010904//EN"
 "http://www.w3.org/TR/2001/REC-SVG-20010904/DTD/svg10.dtd">
<svg version="1.0" xmlns="http://www.w3.org/2000/svg"
 width="1024.000000pt" height="1024.000000pt" viewBox="0 0 1024.000000 1024.000000"
 preserveAspectRatio="xMidYMid meet">

<g transform="translate(0.000000,1024.000000) scale(0.100000,-0.100000)"
fill="#000000" stroke="none">
<path d="M4885 9269 c-155 -15 -354 -58 -523 -115 -755 -251 -1326 -848 -1551
-1619 -62 -212 -83 -373 -90 -699 l-6 -279 -46 -11 c-101 -26 -190 -102 -238
-205 l-26 -56 0 -605 0 -605 32 -66 c39 -79 102 -140 181 -177 l57 -27 382 -3
382 -3 56 -106 c105 -199 292 -445 443 -585 l62 -57 0 -153 0 -153 -192 -192
-193 -193 -260 0 c-143 0 -312 -5 -375 -11 -618 -57 -1212 -365 -1607 -834
-375 -445 -573 -990 -573 -1576 l0 -139 4320 0 4320 0 0 133 c0 281 -39 525
-126 786 -302 906 -1105 1542 -2059 1631 -60 5 -227 10 -370 10 l-260 0 -193
193 -192 192 0 150 0 149 57 58 57 58 216 0 c119 0 243 5 276 11 302 53 545
261 632 541 l27 87 49 11 c109 23 204 102 254 208 l27 57 0 605 0 605 -26 56
c-48 103 -137 179 -238 205 l-46 11 -6 279 c-4 153 -12 313 -18 354 -59 395
-192 741 -403 1047 -497 722 -1337 1114 -2213 1032z m436 -320 c408 -41 801
-203 1113 -457 151 -123 311 -300 420 -466 53 -80 134 -224 99 -176 -181 249
-421 472 -673 626 -733 447 -1678 428 -2394 -48 -198 -131 -411 -330 -541
-503 -79 -106 -84 -111 -46 -40 391 717 1210 1148 2022 1064z m-11 -479 c581
-61 1098 -374 1416 -861 128 -194 229 -438 273 -659 22 -112 41 -265 41 -344
l0 -48 -222 5 c-260 5 -322 17 -471 94 -75 38 -109 64 -187 143 -79 78 -105
112 -143 187 -51 99 -81 197 -92 306 l-7 67 -159 0 -159 0 0 -173 c0 -95 -5
-200 -11 -233 -35 -190 -193 -348 -383 -383 -40 -7 -377 -11 -1033 -11 l-973
0 0 44 c0 24 5 90 11 147 58 575 373 1095 853 1411 115 76 323 178 445 218
258 84 543 117 801 90z m737 -2004 c178 -134 433 -226 624 -226 l49 0 0 -249
c0 -137 -5 -295 -11 -352 -40 -399 -191 -772 -439 -1088 l-55 -71 -386 0 -387
0 -6 35 c-9 47 -59 102 -104 116 -23 6 -112 9 -234 7 -180 -3 -199 -5 -224
-24 -64 -47 -69 -63 -69 -214 0 -151 5 -167 69 -214 27 -20 42 -21 508 -26
l480 -5 -83 -50 c-114 -67 -250 -122 -383 -153 -94 -22 -135 -26 -271 -26
-176 -1 -262 13 -417 64 -226 76 -448 234 -665 474 -200 221 -375 548 -453
847 -54 210 -62 280 -67 616 l-5 312 873 3 c977 4 911 -1 1074 77 141 67 253
166 332 294 l36 58 64 -70 c35 -39 103 -99 150 -135z m-2847 -786 l0 -560
-224 0 c-191 0 -227 2 -240 16 -14 14 -16 77 -16 544 0 467 2 530 16 544 13
14 49 16 240 16 l224 0 0 -560z m4304 544 c14 -14 16 -77 16 -544 0 -467 -2
-530 -16 -544 -13 -14 -49 -16 -240 -16 l-224 0 0 560 0 560 224 0 c191 0 227
-2 240 -16z m-334 -1429 c0 -23 -62 -119 -107 -166 -93 -98 -218 -149 -365
-149 l-77 0 55 87 c30 48 71 120 92 160 l37 73 183 0 c100 0 182 -2 182 -5z
m-2553 -1114 c408 -133 847 -100 1231 93 l72 36 0 -32 c0 -30 -37 -70 -400
-433 l-400 -400 -400 400 c-360 360 -400 403 -400 432 l0 32 103 -49 c56 -27
143 -62 194 -79z m-107 -576 c189 -189 342 -346 340 -349 -6 -6 -981 -547
-997 -553 -10 -4 -13 93 -13 463 l0 469 157 157 c87 87 160 158 163 158 3 0
160 -155 350 -345z m1732 188 l158 -158 0 -467 c0 -258 -3 -468 -6 -468 -5 0
-995 549 -1004 556 -4 5 681 694 690 694 3 0 76 -71 162 -157z m-2722 -948 c0
-382 2 -695 4 -695 3 0 832 459 914 506 l42 25 0 -531 0 -530 -1680 0 c-1073
0 -1680 3 -1680 10 0 5 7 59 16 121 105 754 616 1388 1339 1659 164 62 345
102 555 123 19 2 137 5 263 5 l227 2 0 -695z m3844 671 c826 -133 1488 -734
1696 -1539 23 -92 60 -303 60 -347 0 -7 -607 -10 -1680 -10 l-1680 0 0 530 0
531 43 -25 c81 -47 910 -506 913 -506 2 0 4 313 4 696 l0 696 273 -5 c177 -3
306 -11 371 -21z m-2256 -508 c8 -8 15 -8 26 1 11 10 42 -4 160 -69 l146 -82
0 -619 0 -619 -320 0 -320 0 0 619 0 619 143 80 c78 44 144 80 148 81 3 1 10
-4 17 -11z"/>
</g>
</svg>
