<svg width="15" height="21" viewBox="0 0 15 21" fill="none" xmlns="http://www.w3.org/2000/svg">
<path d="M7.12215 0H7.91579C7.95548 0.0120074 7.99587 0.0216471 8.03676 0.028866C9.28222 0.101114 10.4871 0.489073 11.5329 1.15464C13.0944 2.11167 14.2332 3.60585 14.7252 5.34309C15.1309 6.6603 15.0864 8.07104 14.5983 9.36124C14.1455 10.5656 13.599 11.7342 12.9638 12.8569C11.4313 15.5229 9.72645 18.0904 7.85974 20.5439L7.5116 21C7.16935 20.5353 6.83301 20.0907 6.50553 19.6404C4.65436 17.1653 2.99177 14.5603 1.53123 11.8466C0.982054 10.837 0.545827 9.77246 0.230127 8.67134C0.120964 8.27588 0.0737588 7.84577 0 7.42433V7.25979C0.0161126 7.1874 0.0279337 7.11414 0.0354042 7.04041C0.080919 5.5212 0.625047 4.05668 1.58729 2.86351C2.17167 2.10779 2.90325 1.4728 3.73981 0.995195C4.57635 0.517587 5.50131 0.206817 6.46127 0.0808247C6.6796 0.0490722 6.90087 0.0259794 7.12215 0ZM4.76187 7.34928C4.76479 7.88307 4.92945 8.40404 5.23499 8.84627C5.54052 9.28852 5.97322 9.6322 6.47841 9.83383C6.98357 10.0355 7.5385 10.086 8.07305 9.97906C8.60759 9.87211 9.09771 9.61252 9.48143 9.23304C9.86515 8.85357 10.1253 8.37128 10.2288 7.84719C10.3324 7.3231 10.2748 6.78073 10.0633 6.28866C9.85184 5.79658 9.49597 5.37692 9.04073 5.08272C8.58546 4.78855 8.05127 4.63302 7.5057 4.63588C6.77354 4.63969 6.07283 4.92754 5.55731 5.43624C5.0418 5.94492 4.75361 6.63294 4.75597 7.34928H4.76187Z" fill="#CCCCCC"/>
</svg>
