<svg width="256" height="32" viewBox="0 0 256 32" fill="none" xmlns="http://www.w3.org/2000/svg">
<path d="M225.882 0.719727H178.647V31.7197H225.882V0.719727Z" fill="url(#paint0_linear_281_25)"/>
<g style="mix-blend-mode:multiply">
<path d="M255.729 9.44017V4.04102H179.94V28.4175H255.729V23.0184H186.725V18.422H255.729V13.7153H186.725V9.44017H255.729Z" fill="url(#paint1_linear_281_25)"/>
<path d="M25.0541 5.3046C22.3646 4.16706 19.4639 3.61625 16.5451 3.68887C13.62 3.60586 10.7113 4.15346 8.01608 5.29457C5.83317 6.19762 3.94995 7.70062 2.58395 9.62995C1.3505 11.4266 0.702804 13.5616 0.729816 15.7416V16.0527C0.70547 18.3448 1.35745 20.5931 2.604 22.5157C3.94781 24.532 5.83477 26.1256 8.04615 27.112C10.6964 28.292 13.5753 28.8679 16.475 28.798C19.4221 28.8921 22.3531 28.3264 25.0541 27.1421C27.2512 26.1627 29.1173 24.5661 30.4261 22.5458C31.6506 20.6036 32.2908 18.3495 32.2702 16.0527V15.7416C32.2829 13.5932 31.6395 11.4922 30.4261 9.72027C29.0864 7.77127 27.2243 6.24066 25.0541 5.3046V5.3046ZM25.4951 16.0527C25.5506 17.0471 25.3665 18.0403 24.9583 18.9485C24.5502 19.8567 23.9299 20.6534 23.1499 21.2713C21.203 22.601 18.8663 23.2372 16.515 23.0777C13.6019 23.0777 11.3702 22.4755 9.82011 21.2713C9.06392 20.6797 8.46009 19.9156 8.05907 19.0426C7.65805 18.1697 7.47149 17.2133 7.51496 16.2535V16.0527C7.46849 15.1091 7.65658 14.1686 8.06239 13.3156C8.4682 12.4627 9.07904 11.7238 9.84015 11.1654C11.397 10.0146 13.6219 9.43927 16.515 9.43927C18.8504 9.29983 21.1706 9.89645 23.1499 11.1453C23.8974 11.6595 24.504 12.3535 24.9138 13.1637C25.3236 13.9738 25.5235 14.8741 25.4951 15.7818V16.0527Z" fill="black"/>
<path d="M47.1534 23.6807H46.0509L38.9551 4.04102H31.5786L40.5887 28.4175H52.6156L61.6257 4.04102H54.2492L47.1534 23.6807Z" fill="black"/>
<path d="M63.7104 4.04102V28.4175H85.5091V23.0184H70.4956V18.422H85.5091V13.7153H70.4956V9.44017H85.5091V4.04102H63.7104Z" fill="black"/>
<path d="M109.632 18.6821C110.778 18.0079 111.691 16.9995 112.248 15.7918C112.765 14.6366 113.032 13.3847 113.03 12.1188V11.7675C113.029 10.5007 112.737 9.25106 112.178 8.11459C111.594 6.90447 110.676 5.88745 109.532 5.18419C108.19 4.36201 106.635 3.95365 105.062 4.01002H88.335V28.4166H95.1201V19.8161H103.138L106.786 28.4166H113.501L108.821 19.1136C109.1 18.9872 109.371 18.843 109.632 18.6821V18.6821ZM95.1201 15.1094V8.73679H103.429C104.155 8.70776 104.867 8.94306 105.433 9.39915C105.72 9.67567 105.94 10.0131 106.079 10.3866C106.218 10.7601 106.271 11.16 106.235 11.5568V11.908C106.284 12.3553 106.239 12.8078 106.102 13.2364C105.966 13.6651 105.741 14.0604 105.443 14.3969C104.892 14.8839 104.174 15.1391 103.439 15.1094H95.1201Z" fill="black"/>
<path d="M133.295 15.391C131.421 14.5865 129.508 13.8764 127.563 13.2635C126.251 12.8779 124.966 12.4086 123.714 11.8585C122.912 11.4671 122.511 11.0456 122.511 10.584C122.511 10.1223 122.892 9.74099 123.644 9.42988C124.657 9.0884 125.723 8.93535 126.791 8.97828C128.259 8.98249 129.71 9.29354 131.05 9.89152C132.481 10.5084 133.828 11.3042 135.059 12.2599L138.577 7.65358C137.735 6.88059 136.786 6.23179 135.761 5.72674C134.454 5.06557 133.075 4.5571 131.652 4.21137C130.036 3.81049 128.376 3.6116 126.711 3.61927C124.661 3.56815 122.62 3.90874 120.697 4.62283C119.241 5.14671 117.96 6.06787 116.999 7.28226C116.196 8.319 115.759 9.5931 115.756 10.9051C115.754 11.5594 115.886 12.2071 116.145 12.8079C116.404 13.4088 116.783 13.9499 117.26 14.3975C118.279 15.4113 119.475 16.2308 120.788 16.8161C122.124 17.445 123.874 18.1408 126.039 18.9035C127.402 19.3952 128.465 19.7967 129.216 20.1078C129.885 20.3591 130.519 20.6964 131.101 21.1113C131.313 21.2432 131.492 21.424 131.621 21.6387C131.75 21.8534 131.826 22.0957 131.842 22.3457C131.829 22.5947 131.741 22.8338 131.589 23.0311C131.436 23.2283 131.228 23.3744 130.99 23.4496C130.198 23.7504 129.351 23.8837 128.505 23.841C126.684 23.8184 124.891 23.3935 123.253 22.5966C121.406 21.7276 119.732 20.5308 118.312 19.0641L115.396 24.0819C116.32 25.0242 117.385 25.8165 118.553 26.4302C119.978 27.1863 121.494 27.7595 123.063 28.1363C124.83 28.5735 126.644 28.7893 128.465 28.7785C130.286 28.8052 132.101 28.572 133.857 28.0861C135.271 27.7155 136.562 26.9742 137.595 25.9385C138.05 25.4583 138.405 24.8927 138.641 24.2744C138.877 23.6561 138.988 22.9972 138.968 22.3357C138.985 21.5495 138.843 20.7681 138.55 20.0385C138.257 19.3089 137.82 18.6463 137.264 18.0906C136.127 16.9433 134.78 16.0267 133.295 15.391V15.391Z" fill="black"/>
<path d="M147.838 4.04102H141.053V28.4175H147.838V4.04102Z" fill="black"/>
<path d="M151.687 4.26074V8.91726H169.396L151.687 22.4653V28.3964H177.965V23.7399H160.667L177.965 9.88068V4.26074H151.687Z" fill="black"/>
</g>
<defs>
<linearGradient id="paint0_linear_281_25" x1="178.647" y1="16.2247" x2="225.882" y2="16.2247" gradientUnits="userSpaceOnUse">
<stop stop-color="#FFEC00"/>
<stop offset="1" stop-color="white"/>
</linearGradient>
<linearGradient id="paint1_linear_281_25" x1="179.94" y1="16.2242" x2="255.729" y2="16.2242" gradientUnits="userSpaceOnUse">
<stop offset="0.15"/>
<stop offset="0.91" stop-color="white" stop-opacity="0"/>
</linearGradient>
</defs>
</svg>
