<svg xmlns="http://www.w3.org/2000/svg" viewBox="0 0 29 31"><g><path d="M14.21.13a.08.08,0,0,1,.07,0l.15.06.38.22,1.23.7.9.51.88.5,1.24.7.91.51.87.5,1.24.7L23,5l1.24.7.88.5,1.24.7.88.5,1.08.6a1,1,0,0,1,.4.35.45.45,0,0,0,.1.09v13.3l-.13,0a1.5,1.5,0,0,1,0,.22.21.21,0,0,1-.12.19l-1.05.64-.66.4-1,.6-.7.43L24,24.91l-.62.38-1,.63-.66.4L20.66,27l-.62.38L19,28l-.64.38L17.29,29l-.63.38-1.23.75-.73.44-.35.21h-.14l-.63-.39-1.09-.67L11.35,29l-.82-.51-1.12-.68-1.1-.68L7.2,26.47l-1.1-.68L5,25.11l-1.12-.69-1.11-.68-1.12-.69-1-.61-.4-.25a.19.19,0,0,1-.08-.1.8.8,0,0,1,0-.31l.12,0v-.17q0-6.46,0-12.95a.27.27,0,0,0-.11-.25,0,0,0,0,0,0,0,.38.38,0,0,1,.15-.2L.49,8l.86-.5,1.2-.69.88-.51,1.18-.68.89-.52.88-.51,1.19-.68.88-.51,1.18-.68.89-.52.89-.51L12.59,1,13.37.6a3.79,3.79,0,0,1,.34-.2Zm13.87,9L28,9.17l-.49.29-1.18.69-.85.51-1.17.68-.86.51-1.2.7c-.27.17-.55.33-.83.49l-1.05.61a3.79,3.79,0,0,1-.34.2l-1,.6c-.24.15-.48.28-.72.42l-1.11.66-.61.36-1,.58-.76.44-.29.18V29.78h0l.61-.35.27-.17,1.07-.63.68-.39,1.11-.66.63-.37,1.1-.65.65-.38,1-.58.73-.43,1.14-.67.62-.36,1-.6.72-.42,1.27-.76.84-.49a.17.17,0,0,0,.1-.18V9.11ZM1,9.11V21.74a.1.1,0,0,0,.07.11l1,.6.82.51,1.1.68L5,24.32l1.1.68.82.51L8,26.19l1.09.68,1.12.7.82.51,1.12.69,1,.6.35.23.32.19V17.09L10.38,15l-.05,4.81h0L8.84,17.61,7.27,18l-1-1.73-1.18.35v-.17c0-1.51,0-3,0-4.53,0-.13,0-.23-.15-.28s-.05,0-.08-.06l-1.07-.67-1.07-.69-1-.61-.35-.23ZM14.24.94l-.41.23-.68.39L12,2.21l-.64.37-1.06.62-.72.41-1,.58-.86.49c-.4.24-.81.47-1.22.7l-.85.5-1.2.69-.87.51-1.19.68-1.06.61-.16.1,0,0,.82.5.67.41,1.07.65.62.38.93.57L6,10.59,7.2,9.91l.87-.51,1.17-.69.86-.5,1.17-.69L12.13,7l1.17-.68,1-.61a3.79,3.79,0,0,0,.34-.2l1.06-.62.67-.39,1.07-.63.67-.39.29-.18L18,3.07c-.3-.16-.59-.33-.88-.5l-1.24-.69-.78-.44-.34-.19ZM24,6.46l-.08,0-.67.41L22,7.67l-.36.21-1,.62-.66.39-1.08.65-.63.38-1.07.64-.65.39-1.06.64-.66.38-1.06.64-.63.38-1.28.77-.72.43-.25.15.11.08L12,15.1l1.12.68,1.08.66.85-.5,1.09-.65.61-.37,1-.62.68-.4,1.06-.64.65-.39,1.07-.64.65-.39L23,11.2l.63-.37,1.1-.66.61-.37,1.25-.75c.24-.15.49-.29.74-.43l.21-.14,0,0-.62-.36-1-.59-.77-.43-.33-.19Z"/></g></svg>