<svg xmlns="http://www.w3.org/2000/svg" viewBox="0 0 35.86 28.65"><g><path class="cls-1" d="M31.49,19.91c2.25,3.69,3.41,5.92,3.42,5.94l.78-.4s-1.18-2.28-3.45-6c-1.94-3.17-6.91-3-9-2.82v-.36H22.1V13.6h2.74V8.74H19.52V.12H5.45V8.74H.12V13.6H2.87V27.49H22.1V20.16h1.16v-.38c1.63-.19,5.5-.31,6.91,2.49,1.94,3.86,2.94,6.19,2.95,6.21l.81-.34s-1-2.38-3-6.26c-1.65-3.27-5.83-3.2-7.7-3V17.51C25.11,17.33,29.8,17.15,31.49,19.91ZM6.33,1h12.3V8.74H6.33ZM1,12.72V9.62H24v3.1ZM21.22,26.61H3.75v-13H21.22ZM22.32,19l.05.25h-.08V17.15h.09V19Z"/></g></svg>
