<?xml version="1.0" standalone="no"?>
<!DOCTYPE svg PUBLIC "-//W3C//DTD SVG 20010904//EN"
 "http://www.w3.org/TR/2001/REC-SVG-20010904/DTD/svg10.dtd">
<svg version="1.0" xmlns="http://www.w3.org/2000/svg"
 width="512.000000pt" height="512.000000pt" viewBox="0 0 512.000000 512.000000"
 preserveAspectRatio="xMidYMid meet">

<g transform="translate(0.000000,512.000000) scale(0.100000,-0.100000)"
fill="#000000" stroke="none">
<path d="M3875 5029 c-245 -31 -455 -132 -637 -307 -221 -213 -333 -478 -332
-787 0 -198 35 -335 129 -512 65 -122 119 -187 340 -405 l199 -198 -114 0
c-306 0 -503 -71 -670 -239 -96 -97 -141 -167 -181 -281 -137 -387 50 -803
431 -957 121 -48 167 -53 580 -53 212 0 413 -5 448 -10 235 -33 398 -255 361
-490 -26 -172 -162 -314 -332 -349 -36 -8 -440 -10 -1304 -9 l-1253 3 201 200
c225 224 298 314 364 448 206 422 123 919 -210 1252 -142 142 -310 238 -513
293 -87 23 -115 26 -272 26 -157 0 -185 -3 -272 -26 -310 -84 -556 -275 -706
-548 -202 -369 -167 -829 89 -1170 31 -41 223 -240 425 -442 295 -292 376
-368 404 -375 19 -4 724 -6 1565 -3 1721 6 1566 -2 1740 85 193 95 338 271
397 480 31 113 31 288 0 399 -74 260 -260 449 -527 537 -68 22 -85 23 -530 29
-494 6 -490 6 -584 62 -239 142 -274 477 -71 676 59 57 137 98 213 112 61 12
672 7 744 -5 24 -4 56 -2 75 4 23 8 153 130 419 394 407 404 456 461 528 621
179 397 113 846 -171 1172 -179 205 -417 334 -686 369 -118 16 -182 17 -287 4z
m343 -359 c436 -124 671 -592 506 -1006 -59 -150 -98 -196 -445 -534 l-269
-262 -268 263 c-314 308 -358 358 -412 461 -58 111 -82 209 -83 343 0 138 19
220 80 345 39 79 62 110 138 186 125 126 251 193 422 224 77 14 249 4 331 -20z
m-2883 -2380 c253 -79 444 -278 516 -536 33 -117 31 -277 -5 -399 -51 -173
-76 -205 -423 -555 l-313 -315 -291 290 c-354 353 -401 415 -449 587 -114 410
129 824 550 938 103 28 311 23 415 -10z"/>
<path d="M3900 4334 c-143 -39 -259 -157 -300 -306 -21 -80 -10 -202 28 -282
35 -74 117 -163 180 -195 177 -90 378 -57 513 86 152 161 153 408 2 573 -108
118 -270 165 -423 124z"/>
<path d="M995 1946 c-71 -22 -127 -57 -181 -110 -83 -83 -124 -181 -124 -297
0 -311 321 -514 608 -384 70 32 165 128 198 199 110 241 -13 515 -265 592 -57
17 -182 17 -236 0z"/>
</g>
</svg>
