<svg xmlns="http://www.w3.org/2000/svg" viewBox="0 0 15 27"><g><path d="M7.39.12h4.48a.46.46,0,0,1,.23,0l2.43,1.23a.18.18,0,0,1,.12.2V4.46a.69.69,0,0,1-.05.24q-2.07,5.53-4.15,11.08a.16.16,0,0,1-.18.13H4.52a.17.17,0,0,1-.19-.13Q2.28,10.29.21,4.8a1,1,0,0,1-.08-.46V1.58a.16.16,0,0,1,.1-.16L2.68.18a.59.59,0,0,1,.23,0H7.39m0,1.12H3.17a.46.46,0,0,0-.23.06l-1.59.79a.17.17,0,0,0-.11.18v2a.54.54,0,0,0,0,.22c1.27,3.4,2.55,6.79,3.82,10.2a.17.17,0,0,0,.19.13c1.39,0,2.79,0,4.18,0a.19.19,0,0,0,.22-.15L13.5,4.45a.47.47,0,0,0,0-.17v-2a.14.14,0,0,0-.1-.16l-1.6-.81a.51.51,0,0,0-.22-.05H7.39"/><path d="M6.3,16.18H8.61s0,.08,0,.12c0,.88,0,1.75,0,2.62a.27.27,0,0,1-.09.21A12,12,0,0,0,6.93,21a5.79,5.79,0,0,0-.86,2.12,2,2,0,0,0,0,.91,1,1,0,0,0,.55.69,1.82,1.82,0,0,0,1,.22,1.31,1.31,0,0,0,1-.75c.25-.44.45-.91.67-1.37A5.11,5.11,0,0,1,10,21.67a1.39,1.39,0,0,1,.92-.55.49.49,0,0,1,.17,0,.15.15,0,0,1,.15.18.54.54,0,0,1-.13.31,1.54,1.54,0,0,0-.44,1.3c0,.32.08.65.09,1A3,3,0,0,1,10.09,26a3.19,3.19,0,0,1-1.7,1.08,4.74,4.74,0,0,1-3.93-.56,3.46,3.46,0,0,1-1.68-3.18,5.61,5.61,0,0,1,.56-2.23,7.67,7.67,0,0,1,1.57-2.4,4.07,4.07,0,0,1,1.3-.87.13.13,0,0,0,.09-.14V16.18Z"/><path d="M1.68,3.47l.59.63,6.61,7L10,12.32a.14.14,0,0,1,0,.18c-.22.59-.45,1.18-.66,1.77,0,.07-.07.1-.14.09H8.65a.26.26,0,0,1-.13-.06L3.45,8.9a.82.82,0,0,1-.12-.2C2.79,7.26,2.25,5.82,1.7,4.38a.36.36,0,0,1,0-.1V3.47"/></g></svg>