<svg width="40" height="20" viewBox="0 0 40 20" fill="none" xmlns="http://www.w3.org/2000/svg">
<path d="M15.1853 0H0.475414C0.139828 0 0 0.126581 0 0.452079V12.8119C0 13.1736 0.121185 13.2821 0.494058 13.2821H29.8485C29.9322 13.2911 30.0166 13.2911 30.1002 13.2821C30.1827 13.2752 30.259 13.2372 30.313 13.1764C30.367 13.1156 30.3944 13.0367 30.3892 12.9566C30.3892 12.8119 30.3892 12.6673 30.3892 12.5226C30.3892 8.52622 30.3892 4.53285 30.3892 0.542495C30.3892 0.126582 30.268 0.0180827 29.8392 0.0180827H15.1853V0Z" fill="black"/>
<path d="M30.8459 3.82458H31.0883C32.2069 3.82458 33.3162 3.82458 34.4348 3.88788C35.1624 3.94461 35.885 4.05035 36.5975 4.20433C36.9093 4.2782 37.2058 4.4036 37.4737 4.57504C37.9545 4.89271 38.3301 5.33864 38.5551 5.85894C39.0958 6.86926 39.4581 7.96032 39.6271 9.08679C39.7483 9.99095 39.8788 10.9765 39.9161 11.9168C39.9813 13.6438 39.972 15.3617 40 17.0886C40 17.2061 40 17.3146 40 17.4322H38.4246C38.41 16.6506 38.0935 15.9029 37.5376 15.337C36.9817 14.771 36.227 14.4281 35.4229 14.3761C34.6629 14.329 33.9119 14.5578 33.3162 15.0181C32.933 15.3058 32.6223 15.6743 32.4075 16.0957C32.1927 16.517 32.0795 16.9802 32.0764 17.4503H29.8764V17.7396C29.8764 18.1465 29.7459 18.273 29.3171 18.273H22.5588C22.4961 18.2806 22.4325 18.2741 22.3729 18.2539C22.3132 18.2338 22.2592 18.2005 22.215 18.1567C22.1708 18.113 22.1376 18.0599 22.118 18.0017C22.0984 17.9434 22.0929 17.8816 22.102 17.821V17.4412H17.1428C17.1437 16.7088 16.8536 16.0042 16.3328 15.4738C15.812 14.9434 15.1006 14.628 14.3463 14.5931C13.675 14.5641 13.0148 14.7658 12.4819 15.1627C12.1162 15.4257 11.8188 15.7677 11.6133 16.1617C11.4078 16.5556 11.2998 16.9907 11.298 17.4322H10.0862C10.0872 17.0681 10.0126 16.7075 9.86682 16.372C9.72108 16.0365 9.50719 15.7328 9.2379 15.4792C8.71723 14.9646 8.01421 14.6614 7.27152 14.6312C6.52883 14.601 5.80211 14.846 5.23883 15.3164C4.92252 15.5786 4.66684 15.9025 4.48853 16.2671C4.31022 16.6317 4.2133 17.0287 4.2041 17.4322H2.42363V16.3201C2.82447 16.3201 3.21599 16.3201 3.6075 16.3201C3.84987 16.3201 4.01767 16.3201 4.09224 16.0488C4.15856 15.8899 4.23644 15.7358 4.32529 15.5877H1.21179V13.6709H30.8459V3.82458ZM38.1263 9.46654H37.8746V6.63652H38.1076C38.1689 6.40752 38.1694 6.1672 38.1091 5.93796C38.0488 5.70871 37.9296 5.49801 37.7627 5.32549C37.6749 5.24835 37.5637 5.20078 37.4458 5.18987C36.9051 5.13562 36.3551 5.08136 35.8145 5.05424C35.2738 5.02712 34.4814 5.05424 33.8103 4.99095H33.7077L33.7916 9.00542H34.034C34.6586 9.00542 35.2738 9.06871 35.8984 9.07775C36.0626 9.07712 36.2241 9.11859 36.3665 9.19798C36.509 9.27737 36.6272 9.39185 36.7094 9.52983C36.7594 9.59338 36.8329 9.63554 36.9144 9.64737L38.117 9.7197L38.1263 9.46654ZM17.3665 16.2387C17.4032 16.2839 17.4568 16.3132 17.5157 16.3201H22.0275H22.0834V15.6239H17.0403C17.1521 15.8499 17.2547 16.0579 17.3665 16.2568M39.1983 9.81012C39.1191 8.74679 38.8641 7.70272 38.4432 6.71789V9.76491L39.1983 9.81012M39.1983 12.6582C38.7881 12.5678 38.4432 13.0741 38.4246 13.4991C38.4059 13.924 38.7602 14.5027 39.1983 14.4032V12.6582ZM10.3006 16.2749C10.3472 16.3653 10.9997 16.3834 11.037 16.2749C11.0743 16.1664 11.2514 15.8499 11.3633 15.6148H9.965L10.3006 16.2568M30.8086 15.8137V15.6148H29.8764V16.311H30.8086V15.8137ZM23.5749 15.8137C23.6985 15.8068 23.8148 15.7542 23.8997 15.6668C23.9846 15.5794 24.0319 15.4637 24.0317 15.3436C24.0317 15.2261 23.9835 15.1134 23.8979 15.0303C23.8122 14.9472 23.696 14.9005 23.5749 14.9005C23.5129 14.8993 23.4513 14.9101 23.3937 14.9323C23.336 14.9545 23.2835 14.9876 23.2393 15.0297C23.195 15.0718 23.1598 15.122 23.1358 15.1775C23.1118 15.2329 23.0995 15.2925 23.0995 15.3526C23.1041 15.4735 23.1557 15.5882 23.2438 15.6737C23.332 15.7592 23.4503 15.8093 23.5749 15.8137Z" fill="black"/>
<path d="M35.2552 14.8824C35.7725 14.8825 36.2782 15.031 36.7085 15.3094C37.1389 15.5878 37.4746 15.9835 37.6734 16.4467C37.8722 16.9099 37.9251 17.4198 37.8256 17.9122C37.726 18.4045 37.4784 18.8573 37.1139 19.2133C36.7494 19.5693 36.2844 19.8127 35.7775 19.9128C35.2707 20.0128 34.7446 19.9651 34.2656 19.7756C33.7867 19.586 33.3763 19.2632 33.0862 18.8478C32.7962 18.4324 32.6394 17.9429 32.6357 17.4412C32.6333 17.106 32.6992 16.7737 32.8298 16.4634C32.9603 16.153 33.1529 15.8708 33.3963 15.633C33.6398 15.3951 33.9294 15.2064 34.2484 15.0776C34.5675 14.9487 34.9096 14.8824 35.2552 14.8824M36.8306 17.4322C36.8343 17.1256 36.7439 16.825 36.571 16.5683C36.3981 16.3117 36.1505 16.1107 35.8596 15.9909C35.5687 15.8711 35.2476 15.8379 34.9371 15.8955C34.6267 15.9531 34.3409 16.0989 34.1161 16.3144C33.8913 16.5299 33.7377 16.8053 33.6746 17.1057C33.6116 17.4061 33.6421 17.7179 33.7621 18.0015C33.8822 18.2851 34.0865 18.5276 34.349 18.6983C34.6116 18.869 34.9205 18.9602 35.2365 18.9602C35.4453 18.9638 35.6528 18.9269 35.8466 18.8516C36.0405 18.7763 36.2169 18.6642 36.3654 18.5218C36.5139 18.3795 36.6316 18.2097 36.7115 18.0226C36.7914 17.8355 36.8319 17.6347 36.8306 17.4322Z" fill="black"/>
<path d="M14.2251 19.9999C13.7066 20.0017 13.1992 19.8542 12.7673 19.5762C12.3353 19.2981 11.9981 18.9019 11.7984 18.4378C11.5987 17.9737 11.5455 17.4626 11.6455 16.9692C11.7455 16.4757 11.9943 16.0222 12.3602 15.6659C12.7262 15.3097 13.1929 15.0668 13.7013 14.9681C14.2097 14.8693 14.7368 14.9191 15.216 15.1111C15.6952 15.3031 16.1048 15.6288 16.3931 16.0468C16.6813 16.4648 16.8352 16.9564 16.8352 17.4593C16.8352 18.1315 16.5605 18.7764 16.0713 19.2526C15.582 19.7288 14.9182 19.9975 14.2251 19.9999M12.5938 17.4231C12.5938 17.8331 12.7617 18.2264 13.0606 18.5164C13.3596 18.8063 13.765 18.9692 14.1878 18.9692C14.6105 18.9692 15.016 18.8063 15.3149 18.5164C15.6139 18.2264 15.7818 17.8331 15.7818 17.4231C15.7818 17.013 15.6139 16.6198 15.3149 16.3298C15.016 16.0399 14.6105 15.877 14.1878 15.877C13.765 15.877 13.3596 16.0399 13.0606 16.3298C12.7617 16.6198 12.5938 17.013 12.5938 17.4231Z" fill="black"/>
<path d="M7.20578 14.8825C7.72172 14.8932 8.22292 15.0514 8.64646 15.3374C9.06999 15.6234 9.397 16.0244 9.58642 16.49C9.77585 16.9556 9.81926 17.4651 9.7112 17.9546C9.60315 18.444 9.34844 18.8916 8.97905 19.2412C8.60966 19.5907 8.14205 19.8266 7.63491 19.9193C7.12777 20.012 6.6037 19.9574 6.12848 19.7622C5.65326 19.567 5.24807 19.24 4.96376 18.8223C4.67945 18.4046 4.52869 17.9147 4.53041 17.4141C4.53282 17.077 4.60415 16.7436 4.74026 16.4334C4.87637 16.1232 5.07457 15.8422 5.32338 15.6068C5.57219 15.3713 5.86667 15.1861 6.18979 15.0617C6.5129 14.9374 6.85822 14.8765 7.20578 14.8825M8.73456 17.4232C8.7364 17.1166 8.64425 16.8164 8.4698 16.5608C8.29536 16.3052 8.0465 16.1056 7.75485 15.9875C7.4632 15.8693 7.14193 15.8379 6.83185 15.8973C6.52177 15.9567 6.23689 16.1041 6.0134 16.3209C5.78991 16.5377 5.6379 16.814 5.57669 17.1147C5.51549 17.4155 5.54784 17.7271 5.66964 18.01C5.79144 18.2929 5.9972 18.5342 6.26076 18.7034C6.52432 18.8726 6.83379 18.962 7.14985 18.9602C7.3583 18.9614 7.56492 18.9225 7.75775 18.8457C7.95057 18.7689 8.12576 18.6557 8.27317 18.5127C8.42057 18.3697 8.53725 18.1998 8.61645 18.0128C8.69565 17.8258 8.7358 17.6254 8.73456 17.4232" fill="black"/>
<path d="M35.2645 16.7089C35.1602 16.6975 35.0546 16.7076 34.9546 16.7386C34.8547 16.7695 34.7625 16.8206 34.6843 16.8884C34.606 16.9563 34.5434 17.0394 34.5006 17.1323C34.4577 17.2252 34.4355 17.3259 34.4355 17.4277C34.4355 17.5295 34.4577 17.6301 34.5006 17.7231C34.5434 17.816 34.606 17.8991 34.6843 17.9669C34.7625 18.0348 34.8547 18.0858 34.9546 18.1168C35.0546 18.1477 35.1602 18.1578 35.2645 18.1465C35.3613 18.1453 35.4568 18.1257 35.5457 18.0887C35.6345 18.0517 35.715 17.9981 35.7826 17.9309C35.8501 17.8637 35.9033 17.7843 35.9392 17.6972C35.975 17.6101 35.9929 17.517 35.9916 17.4232C35.9942 17.3295 35.9771 17.2362 35.9416 17.149C35.9061 17.0619 35.8528 16.9826 35.7849 16.9159C35.717 16.8492 35.6359 16.7964 35.5465 16.7609C35.4571 16.7253 35.3612 16.7076 35.2645 16.7089" fill="black"/>
<path d="M34.2951 18.2368C34.351 18.1645 34.4535 18.0831 34.4442 18.0108C34.4319 17.9685 34.4081 17.9303 34.3753 17.9C34.3425 17.8698 34.3019 17.8487 34.2578 17.839C34.2134 17.8505 34.1725 17.8721 34.1385 17.9019C34.1044 17.9318 34.0782 17.9691 34.062 18.0108C34.062 18.0831 34.1552 18.1645 34.2112 18.2368H34.2951Z" fill="black"/>
<path d="M34.6307 18.5624C34.7146 18.6076 34.7891 18.698 34.8637 18.6889C34.9088 18.6789 34.9504 18.6579 34.9847 18.6278C35.019 18.5977 35.0447 18.5596 35.0595 18.5172C35.064 18.4911 35.0615 18.4644 35.0523 18.4395C35.0431 18.4147 35.0274 18.3925 35.0068 18.3753C34.9862 18.358 34.9613 18.3462 34.9346 18.3409C34.9079 18.3357 34.8803 18.3372 34.8544 18.3454C34.7705 18.3454 34.7053 18.4358 34.6307 18.481V18.5624" fill="black"/>
<path d="M36.4763 17.9747C36.4018 17.9747 36.3272 17.83 36.2619 17.839C36.2183 17.8527 36.1786 17.8762 36.1462 17.9076C36.1138 17.9391 36.0896 17.9775 36.0755 18.0199C36.0683 18.0441 36.0678 18.0697 36.074 18.0942C36.0802 18.1187 36.0928 18.1411 36.1107 18.1594C36.1286 18.1777 36.1511 18.1911 36.176 18.1983C36.2009 18.2056 36.2273 18.2064 36.2526 18.2007C36.3365 18.2007 36.4018 18.1103 36.4763 18.0651V17.9747" fill="black"/>
<path d="M36.4391 17.4865C36.4857 17.4141 36.5696 17.3509 36.5789 17.2695C36.5859 17.2441 36.5861 17.2173 36.5793 17.1918C36.5726 17.1663 36.5593 17.1429 36.5406 17.1239C36.5219 17.1048 36.4984 17.0907 36.4725 17.083C36.4466 17.0752 36.419 17.0741 36.3925 17.0796C36.3482 17.0948 36.3082 17.1199 36.2758 17.1529C36.2434 17.1859 36.2195 17.2258 36.2061 17.2695C36.2061 17.3328 36.2993 17.4141 36.3552 17.4865H36.4391" fill="black"/>
<path d="M34.4815 16.3833C34.4179 16.4387 34.367 16.5065 34.3323 16.5822C34.3323 16.7178 34.4162 16.7811 34.5188 16.7721C34.5608 16.7602 34.599 16.7382 34.63 16.7081C34.6609 16.6781 34.6836 16.641 34.6959 16.6003C34.6959 16.537 34.612 16.4556 34.5747 16.3833H34.4815Z" fill="black"/>
<path d="M35.7772 16.6546C35.8611 16.6998 35.945 16.7812 36.0103 16.7722C36.0511 16.7547 36.0874 16.7286 36.1164 16.6957C36.1454 16.6629 36.1665 16.6241 36.1781 16.5823C36.1828 16.5574 36.1807 16.5317 36.172 16.5079C36.1633 16.484 36.1482 16.4628 36.1284 16.4463C36.1086 16.4299 36.0847 16.4187 36.0591 16.414C36.0334 16.4093 36.0069 16.4112 35.9823 16.4196C35.9042 16.4532 35.8343 16.5025 35.7772 16.5642V16.6546Z" fill="black"/>
<path d="M35.8984 18.5625C35.8984 18.3907 35.8051 18.3364 35.684 18.3364C35.5628 18.3364 35.4789 18.4088 35.4975 18.5082C35.5101 18.5513 35.5338 18.5905 35.5665 18.6222C35.5991 18.6538 35.6396 18.6768 35.684 18.689C35.7399 18.689 35.8238 18.6077 35.8984 18.5625Z" fill="black"/>
<path d="M34.1086 17.4502C34.2391 17.4502 34.3323 17.3779 34.3136 17.2603C34.295 17.1428 34.1925 17.1338 34.1272 17.0705C34.0619 17.0072 33.9594 17.188 33.9408 17.2603C33.9221 17.3327 33.9874 17.4412 34.1086 17.4502" fill="black"/>
<path d="M35.05 16.3834C35.1153 16.3834 35.1992 16.519 35.2645 16.51C35.3066 16.5014 35.3455 16.4816 35.3767 16.4529C35.408 16.4241 35.4304 16.3876 35.4416 16.3472C35.448 16.3227 35.4481 16.2969 35.4418 16.2723C35.4355 16.2477 35.423 16.225 35.4055 16.2062C35.388 16.1874 35.3659 16.1731 35.3413 16.1646C35.3167 16.1561 35.2903 16.1536 35.2645 16.1573C35.1869 16.1928 35.1147 16.2384 35.05 16.293V16.3834Z" fill="black"/>
<path d="M13.5259 17.4232C13.5208 17.5172 13.5357 17.6112 13.5696 17.6994C13.6035 17.7876 13.6557 17.8681 13.723 17.9359C13.7903 18.0037 13.8712 18.0574 13.9608 18.0936C14.0504 18.1299 14.1467 18.1479 14.2437 18.1465C14.3424 18.1477 14.4404 18.1299 14.532 18.094C14.6235 18.0582 14.7069 18.0051 14.7771 17.9379C14.8473 17.8706 14.9031 17.7904 14.9412 17.7021C14.9792 17.6137 14.9988 17.5189 14.9988 17.4232C14.994 17.2312 14.9126 17.0486 14.7718 16.9137C14.6309 16.7788 14.4417 16.7021 14.2437 16.6998C14.05 16.7046 13.8661 16.7832 13.7317 16.9186C13.5974 17.0539 13.5234 17.2353 13.5259 17.4232" fill="black"/>
<path d="M14.57 18.3002C14.5141 18.3725 14.4116 18.4539 14.4209 18.5172C14.4209 18.5651 14.4405 18.6111 14.4755 18.645C14.5105 18.679 14.5579 18.698 14.6073 18.698C14.6568 18.698 14.7042 18.679 14.7392 18.645C14.7741 18.6111 14.7938 18.5651 14.7938 18.5172C14.7938 18.4539 14.7099 18.3815 14.6633 18.3092L14.57 18.3002Z" fill="black"/>
<path d="M13.6658 16.6546C13.6658 16.4557 13.5726 16.3924 13.4514 16.4195C13.3303 16.4467 13.2836 16.5552 13.293 16.6004C13.3069 16.6418 13.3312 16.6791 13.3638 16.7091C13.3963 16.7391 13.4361 16.7608 13.4794 16.7722C13.5447 16.7722 13.6285 16.6817 13.6658 16.6546" fill="black"/>
<path d="M14.9895 18.0651C15.0641 18.1194 15.148 18.2098 15.2225 18.2007C15.2646 18.1851 15.302 18.1596 15.3313 18.1265C15.3606 18.0933 15.3809 18.0536 15.3903 18.0109C15.3903 17.9476 15.2691 17.8481 15.1946 17.8391C15.12 17.83 15.0547 17.9295 14.9802 17.9837V18.0651" fill="black"/>
<path d="M13.1438 17.4503C13.1438 17.4503 13.265 17.3327 13.2556 17.2694C13.2463 17.2061 13.1438 17.1338 13.0879 17.0705C13.0319 17.0072 12.9107 17.179 12.8921 17.2513C12.8735 17.3237 12.8921 17.4593 13.1438 17.4503Z" fill="black"/>
<path d="M15.1293 17.2876C15.1973 17.3424 15.2725 17.388 15.3531 17.4232C15.3801 17.4269 15.4077 17.4241 15.4334 17.415C15.459 17.406 15.4821 17.3911 15.5004 17.3715C15.5188 17.3519 15.532 17.3282 15.5388 17.3026C15.5456 17.2769 15.5458 17.25 15.5395 17.2243C15.5253 17.1808 15.4983 17.1422 15.4619 17.1133C15.4255 17.0844 15.3812 17.0664 15.3344 17.0615C15.2692 17.0615 15.1946 17.1519 15.1293 17.2062V17.2876Z" fill="black"/>
<path d="M12.9946 18.056C13.0692 18.1102 13.1251 18.1826 13.209 18.2007C13.234 18.2076 13.2604 18.2081 13.2857 18.2021C13.3109 18.1961 13.3341 18.1838 13.3529 18.1665C13.3718 18.1491 13.3856 18.1273 13.3931 18.1032C13.4005 18.079 13.4013 18.0534 13.3955 18.0289C13.3836 17.9858 13.3614 17.9462 13.3306 17.9132C13.2998 17.8801 13.2613 17.8547 13.2184 17.839C13.1624 17.839 13.0785 17.9204 13.004 17.9746C12.9994 18.0016 12.9994 18.029 13.004 18.056" fill="black"/>
<path d="M14.1599 16.1301C14.1133 16.2025 14.02 16.2838 14.0387 16.3471C14.0573 16.4104 14.1599 16.4647 14.2251 16.528C14.2904 16.5912 14.3836 16.4014 14.3929 16.329C14.4022 16.2567 14.2997 16.1934 14.2438 16.1301H14.1599Z" fill="black"/>
<path d="M15.148 16.6637C15.148 16.4648 15.0641 16.3924 14.9522 16.4195C14.8404 16.4467 14.8217 16.5371 14.7565 16.6004C14.6912 16.6637 14.887 16.7631 14.9615 16.7722C15.0361 16.7812 15.1107 16.6908 15.148 16.6637" fill="black"/>
<path d="M13.8616 18.3002C13.6751 18.3002 13.6192 18.4177 13.6472 18.5262C13.6751 18.6347 13.759 18.6438 13.815 18.698C13.8709 18.7523 13.9828 18.5805 13.9921 18.5081C14.0014 18.4358 13.9082 18.3725 13.8616 18.3002Z" fill="black"/>
<path d="M6.40411 17.4231C6.4023 17.5673 6.44496 17.7088 6.52662 17.8293C6.60829 17.9498 6.72522 18.0438 6.86241 18.0994C6.9996 18.155 7.15079 18.1695 7.29655 18.1411C7.44232 18.1127 7.57601 18.0428 7.68047 17.9401C7.78493 17.8375 7.85538 17.707 7.88278 17.5652C7.91017 17.4235 7.89327 17.2771 7.83423 17.1447C7.77519 17.0124 7.67672 16.9002 7.55145 16.8225C7.42618 16.7448 7.27984 16.7052 7.13121 16.7088C6.93752 16.7112 6.75259 16.7875 6.6165 16.9212C6.4804 17.0549 6.40409 17.2352 6.40411 17.4231" fill="black"/>
<path d="M8.27779 16.9983C8.18457 17.1158 8.08203 17.2062 8.09135 17.2605C8.1079 17.3045 8.1352 17.3439 8.17092 17.3754C8.20664 17.4069 8.24971 17.4295 8.29643 17.4413C8.32295 17.4469 8.3505 17.4457 8.37642 17.4379C8.40235 17.4302 8.42579 17.4161 8.4445 17.3971C8.46321 17.378 8.47656 17.3546 8.48328 17.3291C8.49 17.3036 8.48986 17.2769 8.48287 17.2515C8.48287 17.1701 8.37101 17.1158 8.27779 16.9983Z" fill="black"/>
<path d="M5.91931 18.0741C5.98701 18.1316 6.0664 18.1747 6.15236 18.2007C6.17941 18.2043 6.20697 18.2015 6.23265 18.1925C6.25833 18.1835 6.28136 18.1685 6.29973 18.1489C6.3181 18.1293 6.33126 18.1057 6.33807 18.08C6.34488 18.0544 6.34513 18.0275 6.33879 18.0017C6.31927 17.9615 6.29073 17.926 6.25525 17.8978C6.21976 17.8697 6.17824 17.8496 6.13371 17.839C6.06846 17.839 5.99389 17.9384 5.91931 17.9927V18.0741Z" fill="black"/>
<path d="M8.14725 17.7577C8.05403 17.8752 7.96082 17.9476 7.96082 18.0199C7.96082 18.0922 8.06335 18.1826 8.13793 18.2007C8.16414 18.2075 8.19171 18.2076 8.218 18.2011C8.24428 18.1946 8.2684 18.1817 8.28805 18.1635C8.30769 18.1454 8.32221 18.1226 8.3302 18.0975C8.33819 18.0723 8.33939 18.0456 8.33369 18.0199C8.33369 17.9385 8.23115 17.8752 8.14725 17.7577" fill="black"/>
<path d="M5.8075 17.2242C5.8075 17.396 5.91004 17.4865 6.03122 17.4412C6.07375 17.4251 6.11097 17.3981 6.13888 17.3631C6.1668 17.3281 6.18436 17.2863 6.18969 17.2423C6.17309 17.2011 6.14524 17.165 6.10912 17.1379C6.07299 17.1108 6.02995 17.0938 5.98461 17.0886C5.92868 17.0886 5.8541 17.179 5.8075 17.2242Z" fill="black"/>
<path d="M7.36426 16.3833C7.36426 16.2115 7.27105 16.1573 7.14986 16.1573C7.12063 16.1519 7.09042 16.1552 7.06311 16.1666C7.0358 16.1781 7.01264 16.1972 6.99661 16.2215C6.98057 16.2458 6.9724 16.2742 6.97313 16.303C6.97386 16.3318 6.98347 16.3598 7.00071 16.3833C7.013 16.4256 7.0368 16.4638 7.06961 16.4941C7.10242 16.5243 7.14302 16.5454 7.18715 16.5551C7.24308 16.5551 7.32698 16.4737 7.39223 16.4285" fill="black"/>
<path d="M6.53461 18.5714C6.60918 18.5714 6.69308 18.698 6.75833 18.689C6.80128 18.6741 6.84029 18.6502 6.87254 18.6189C6.90478 18.5876 6.92945 18.5498 6.94477 18.5081C6.94477 18.3996 6.87019 18.3273 6.73969 18.3363C6.60918 18.3454 6.55325 18.3996 6.53461 18.5714" fill="black"/>
<path d="M7.93287 16.3833C7.78372 16.3833 7.71847 16.4556 7.73712 16.5551C7.75042 16.595 7.77224 16.6317 7.80115 16.6628C7.83006 16.694 7.86541 16.7189 7.90491 16.7359C8.01677 16.7359 8.10067 16.7359 8.10067 16.5641C8.10067 16.3923 8.01677 16.3833 7.93287 16.3833Z" fill="black"/>
<path d="M7.72777 18.5172C7.73243 18.4933 7.73116 18.4686 7.72406 18.4452C7.71696 18.4219 7.70424 18.4005 7.68694 18.3828C7.66964 18.3651 7.64826 18.3517 7.62457 18.3436C7.60087 18.3356 7.57554 18.3331 7.55065 18.3364C7.42015 18.3364 7.32693 18.4087 7.35489 18.5262C7.38286 18.6438 7.46675 18.6709 7.53201 18.689C7.55753 18.6981 7.58511 18.7002 7.61179 18.6952C7.63846 18.6901 7.66321 18.6781 7.68336 18.6604C7.70351 18.6427 7.7183 18.6201 7.72613 18.5948C7.73395 18.5696 7.73452 18.5427 7.72777 18.5172" fill="black"/>
<path d="M6.1897 16.5551C6.1897 16.736 6.30156 16.7812 6.41342 16.7812C6.43757 16.7829 6.46182 16.7793 6.4843 16.7706C6.50678 16.7618 6.5269 16.7482 6.5431 16.7307C6.5593 16.7133 6.57117 16.6924 6.57777 16.6698C6.58438 16.6472 6.58556 16.6235 6.58121 16.6003C6.58121 16.4828 6.5346 16.3924 6.4041 16.4195C6.32654 16.4549 6.2544 16.5006 6.1897 16.5551" fill="black"/>
</svg>
