<svg xmlns="http://www.w3.org/2000/svg" viewBox="0 0 31 28"><g><path d="M29.53,5.67Q24,3,18.44.29a1.16,1.16,0,0,0-1.13,0Q11.75,3,6.17,5.7a1,1,0,0,0-.61,1c0,1.91,0,3.81,0,5.72H6.94V7.74a1.87,1.87,0,0,1,0-.21l.64.31L17,12.37a.39.39,0,0,1,.24.4V25.09L16.92,25l-4.53-2.2V24.3l5.05,2.45a.94.94,0,0,0,.89,0Q24,24,29.64,21.27a1.06,1.06,0,0,0,.6-.61V6.33c-.1-.36-.39-.5-.71-.66M17,1.94a1.6,1.6,0,0,1,1.7,0c3,1.48,5.94,2.9,8.92,4.35l.29.14-.59.28c-1,.48-2,1-2.93,1.42a.47.47,0,0,1-.35,0L14.43,3.46l-.23-.13c1-.47,1.93-.88,2.83-1.39m1,9.27a.39.39,0,0,1-.39,0L8.06,6.55l-.23-.13,1.62-.79,3-1.43a.5.5,0,0,1,.36,0C16,5.76,19.3,7.35,22.57,8.93l.08.05-.24.13-4.33,2.1m10.53,9L18.83,25l-.26.12v-.3q0-6,0-12a.42.42,0,0,1,.28-.43l4.2-2,.32-.15c0,.12,0,.2,0,.29v2.91a.69.69,0,1,0,1.37,0c0-1,0-2,0-3,0-.28-.08-.62.05-.82s.47-.27.71-.39l3.05-1.48.29-.13v.32q0,6,0,12a.37.37,0,0,1-.24.4"/><path d="M17.88,27a1.2,1.2,0,0,1-.5-.13L14.52,25.5l-2.28-1.11V22.54L17,24.83l.06,0V22.65q0-4.95,0-9.88a.22.22,0,0,0-.17-.26l-8-3.9L7.09,7.76v4.79H5.41V10.49c0-1.27,0-2.54,0-3.81a1.09,1.09,0,0,1,.7-1.11c4-1.92,7.63-3.69,11.14-5.41a1.29,1.29,0,0,1,1.25,0L29.6,5.54h0a1.23,1.23,0,0,1,.78.75V20.71a1.24,1.24,0,0,1-.68.69Q24,24.13,18.39,26.88A1.2,1.2,0,0,1,17.88,27Zm-5.34-2.8,2.11,1,2.86,1.39a.79.79,0,0,0,.76,0l11.3-5.48a.88.88,0,0,0,.52-.5V6.35c-.08-.27-.29-.39-.62-.54h0c-4-1.94-7.65-3.7-11.09-5.39a1,1,0,0,0-1,0c-3.52,1.71-7.16,3.48-11.15,5.4a.81.81,0,0,0-.52.85v5.58H6.79V7.74s0-.1,0-.18V7.3L9,8.34c2.69,1.3,5.37,2.61,8.06,3.9a.52.52,0,0,1,.33.53q0,4.93,0,9.88v2.67L17,25.16l-.14-.06L12.54,23Zm5.88,1.1V12.79a.55.55,0,0,1,.35-.56l3.06-1.48L23,10.2l.22-.11.3-.13,0,.31c0,.07,0,.14,0,.2v2.9a.54.54,0,0,0,.89.48.68.68,0,0,0,.19-.48v-3a1.94,1.94,0,0,0,0-.24,1.21,1.21,0,0,1,.08-.66,1.12,1.12,0,0,1,.56-.35L25.44,9l3-1.48a1,1,0,0,1,.18-.08L29,7.3V19.83a.5.5,0,0,1-.32.53L20.6,24.28Zm4.8-14.91-.12.06L22,11,18.9,12.49c-.15.08-.19.13-.19.3,0,3.27,0,6.55,0,9.82v2.25l.05,0,1.7-.83,8.08-3.91h0c.12-.06.15-.11.15-.27,0-3.38,0-6.77,0-10.15V7.75l-.07,0L25.57,9.26l-.24.1a1,1,0,0,0-.42.24.9.9,0,0,0,0,.48c0,.09,0,.17,0,.26v3a1,1,0,0,1-.27.69.83.83,0,0,1-.62.22.84.84,0,0,1-.77-.9c0-.65,0-1.29,0-1.94v-1Zm-5.35,1a.55.55,0,0,1-.24-.07L10.74,8,8,6.68l-.16-.09-.32-.18,2.61-1.27,2.22-1.07a.57.57,0,0,1,.48,0c3.15,1.51,6.29,3,9.43,4.56l.37.18.08,0,.21.14-.28.18-.16.08-.37.18-4,1.93h0A.68.68,0,0,1,17.87,11.42Zm-9.72-5,2.72,1.31,6.89,3.35a.23.23,0,0,0,.25,0h0l4-1.93L22.33,9l-.2-.1C19,7.36,15.85,5.83,12.7,4.32a.32.32,0,0,0-.23,0L10.26,5.41ZM24.24,8.31A.64.64,0,0,1,24,8.26L14.36,3.59,14.2,3.5l-.31-.18.25-.12L15,2.8c.69-.33,1.34-.63,2-1a1.72,1.72,0,0,1,1.83,0C21,2.91,23.28,4,25.47,5.07l2.25,1.08.14.08.41.2-1.55.75c-.75.37-1.49.73-2.24,1.08A.6.6,0,0,1,24.24,8.31Zm-9.72-5L24.13,8a.36.36,0,0,0,.23,0l2.23-1.08,1-.49h0L25.34,5.33c-2.19-1.06-4.46-2.15-6.68-3.26a1.46,1.46,0,0,0-1.56,0h0c-.64.36-1.3.67-2,1Z"/><path d="M5.1,27.89c-.27,0-.54-.08-.8-.14a5.3,5.3,0,0,1-3.21-2.19A5.13,5.13,0,0,1,.22,23.3a15.07,15.07,0,0,1,0-2.42,1.73,1.73,0,0,1,.62-1.22.3.3,0,0,0,.1-.23c0-.48,0-1,0-1.45a4.39,4.39,0,0,1,.56-1.82,4.67,4.67,0,0,1,2.13-2,4.5,4.5,0,0,1,2.56-.36,4.55,4.55,0,0,1,2.9,1.62,4.26,4.26,0,0,1,1,2.32c.05.55,0,1.12.06,1.67a.33.33,0,0,0,.08.2A1.91,1.91,0,0,1,10.86,21c0,.59,0,1.19,0,1.78a5,5,0,0,1-.68,2.35,5.25,5.25,0,0,1-2.05,2.05,5.41,5.41,0,0,1-1.85.63l-.35.05Zm.41-8.29H2.17A1.5,1.5,0,0,0,.62,21.15c0,.44,0,.88,0,1.32A5.13,5.13,0,0,0,.85,24a4.86,4.86,0,0,0,1.81,2.48,4.81,4.81,0,0,0,3.83.82,4.69,4.69,0,0,0,2.37-1.24,4.61,4.61,0,0,0,1.49-3c.07-.7,0-1.4,0-2.11a1.36,1.36,0,0,0-.49-1,1.52,1.52,0,0,0-1.07-.38H5.51m2.94-.47v-.67a2.94,2.94,0,0,0-4.4-2.61,3.12,3.12,0,0,0-1.46,3.28Zm-7.1.13L2,19.14A.13.13,0,0,0,2.1,19c0-.18,0-.37,0-.55A3.4,3.4,0,0,1,6.05,15a3.46,3.46,0,0,1,2.74,2.47,5.3,5.3,0,0,1,.12,1.38c0,.24,0,.24.25.27h.1l.41.1v-.78a4.27,4.27,0,0,0-.45-2A4.06,4.06,0,0,0,6,14.28a4,4,0,0,0-2.44.44,4.08,4.08,0,0,0-1.92,2.15,5.88,5.88,0,0,0-.3,2.39"/><path d="M5.1,28h0l-.24,0a5,5,0,0,1-.56-.11,5.48,5.48,0,0,1-4.2-4.57A13.71,13.71,0,0,1,0,21.2v-.33a1.8,1.8,0,0,1,.66-1.32.13.13,0,0,0,.05-.12v-.3c0-.38,0-.77,0-1.16a4.32,4.32,0,0,1,.57-1.88,4.75,4.75,0,0,1,2.2-2,4.76,4.76,0,0,1,5.63,1.29,4.36,4.36,0,0,1,1.05,2.4,10.17,10.17,0,0,1,0,1.09c0,.2,0,.4,0,.6a.13.13,0,0,0,0,.09A2,2,0,0,1,11,21v.25c0,.5,0,1,0,1.53a5.33,5.33,0,0,1-.7,2.42,5.53,5.53,0,0,1-2.1,2.11A5.46,5.46,0,0,1,6.29,28l-.23,0L6,28Zm0-.29.9,0,.24,0a5.06,5.06,0,0,0,1.8-.61,5.38,5.38,0,0,0,2-2,5.07,5.07,0,0,0,.65-2.29c0-.5,0-1,0-1.52V21a1.75,1.75,0,0,0-.59-1.28.52.52,0,0,1-.13-.3c0-.2,0-.4,0-.6,0-.35,0-.72-.05-1.07a4,4,0,0,0-1-2.24,4.46,4.46,0,0,0-5.29-1.21,4.41,4.41,0,0,0-2.06,1.9A4.09,4.09,0,0,0,1.06,18c0,.38,0,.77,0,1.14v.3a.4.4,0,0,1-.14.33,1.57,1.57,0,0,0-.57,1.12v.32a13.14,13.14,0,0,0,0,2.08,5.07,5.07,0,0,0,.85,2.19,5.18,5.18,0,0,0,3.12,2.14l.55.1Zm.36-.17a4.9,4.9,0,0,1-2.89-.95A4.89,4.89,0,0,1,.72,24.08a4.72,4.72,0,0,1-.24-1.61v-.31c0-.33,0-.67,0-1A1.63,1.63,0,0,1,.94,20a1.75,1.75,0,0,1,1.24-.51H8.83a1.62,1.62,0,0,1,1.16.42A1.46,1.46,0,0,1,10.53,21v.4a16.52,16.52,0,0,1,0,1.72A4.82,4.82,0,0,1,9,26.2a4.87,4.87,0,0,1-2.45,1.27A5.51,5.51,0,0,1,5.47,27.58ZM2.15,19.75a1.37,1.37,0,0,0-1,.41,1.29,1.29,0,0,0-.38,1c0,.34,0,.69,0,1v.3A4.88,4.88,0,0,0,1,24a4.75,4.75,0,0,0,5.48,3.2A4.51,4.51,0,0,0,8.76,26a4.48,4.48,0,0,0,1.45-2.9,16.07,16.07,0,0,0,0-1.7V21a1.24,1.24,0,0,0-.44-.91,1.41,1.41,0,0,0-1-.33H4.5c-.77,0-1.55,0-2.33,0Zm7.67-.29-.19,0-.34-.09H9.22l-.07,0c-.33,0-.38-.09-.38-.41a5.3,5.3,0,0,0-.12-1.35,3.26,3.26,0,0,0-6-.73,3.34,3.34,0,0,0-.42,1.67v.13c0,.14,0,.28,0,.43a.27.27,0,0,1-.2.24c-.15,0-.31.06-.47.09l-.37.06v-.17a6,6,0,0,1,.3-2.45,4.28,4.28,0,0,1,2-2.22A4.14,4.14,0,0,1,6,14.13a4.23,4.23,0,0,1,3.32,2.33,4.34,4.34,0,0,1,.47,2v1ZM9.06,19h.12l.11,0h.07l.16.05V19c0-.18,0-.35,0-.52a4,4,0,0,0-.43-1.89A4,4,0,0,0,6,14.42a3.85,3.85,0,0,0-2.35.43,4,4,0,0,0-1.86,2.08,5.11,5.11,0,0,0-.28,2.15h0L2,19v-.52a3.68,3.68,0,0,1,.45-1.81,3.55,3.55,0,0,1,6.52.8,5.44,5.44,0,0,1,.13,1.42ZM2,19Zm6.61.28H2.45v-.14A3.28,3.28,0,0,1,4,15.72a3.09,3.09,0,0,1,3.77.57,3.13,3.13,0,0,1,.85,2.17ZM2.72,19H8.3v-.52A2.78,2.78,0,0,0,4.13,16,2.92,2.92,0,0,0,2.72,19Z"/></g></svg>