<svg width="613" height="146" viewBox="0 0 613 146" fill="none" xmlns="http://www.w3.org/2000/svg">
<g clip-path="url(#clip0_243_17)">
<path d="M395.27 52H390V57.27H395.27V52Z" fill="#EDC255"/>
</g>
<g clip-path="url(#clip1_243_17)">
<mask id="mask0_243_17" style="mask-type:alpha" maskUnits="userSpaceOnUse" x="511" y="8" width="71" height="131">
<rect width="71" height="131" transform="translate(511 8)" fill="black"/>
</mask>
<g mask="url(#mask0_243_17)">
<path d="M542.093 83.8903C542.093 83.8903 517 87.3103 517 71.3403C517 55.3703 533.362 45.1003 533.362 39.3903C533.362 33.6803 527.911 14.2903 536.632 14.2903C545.353 14.2903 547.543 8.59029 550.814 2.88029C554.084 -2.82971 565.005 0.600291 566.095 7.44029C567.185 14.2803 581.367 10.8703 582.457 14.2903C583.547 17.7103 586.817 31.4103 590.088 36.0003C593.358 40.5903 592.268 52.0003 591.178 60.0003C590.088 68.0003 595.548 48.5903 595.548 66.8503C595.548 85.1103 583.547 83.9603 583.547 83.9603L542.093 83.8903Z" fill="#E7E7E6"/>
<path d="M552.494 84H547.493V131H552.494V84Z" fill="#E7E7E6"/>
<path d="M571.496 106C571.496 106 534.492 94.2801 534.492 82.5701C534.492 70.8601 550.813 63.3301 550.813 59.1501C550.813 54.9701 545.363 40.7401 554.094 40.7401C562.825 40.7401 565.005 36.5601 568.275 32.3801C571.546 28.2001 582.457 30.7001 583.547 35.7201C584.637 40.7401 598.818 38.2301 599.909 40.7201C600.999 43.2101 604.269 53.2701 607.539 56.6201C610.81 59.9701 609.6 62.6201 608.539 68.4501C607.479 74.2801 613.01 65.8401 613.01 79.2301C613.01 89.2301 605.679 92.5401 598.508 93.0001C595.788 93.1701 587.567 99.2101 585.507 101L571.496 106Z" fill="#CCCCCC"/>
<path d="M576.496 94H571.496V131H576.496V94Z" fill="#CCCCCC"/>
</g>
</g>
<g clip-path="url(#clip2_243_17)">
<path d="M337.32 131.1C343.804 131.1 349.06 125.844 349.06 119.36C349.06 112.876 343.804 107.62 337.32 107.62C330.836 107.62 325.58 112.876 325.58 119.36C325.58 125.844 330.836 131.1 337.32 131.1Z" fill="#333434"/>
<path d="M405.72 131.1C412.204 131.1 417.46 125.844 417.46 119.36C417.46 112.876 412.204 107.62 405.72 107.62C399.236 107.62 393.98 112.876 393.98 119.36C393.98 125.844 399.236 131.1 405.72 131.1Z" fill="#333434"/>
<path d="M300.85 102.32H152.96V112.64H300.85V102.32Z" fill="#333434"/>
<path d="M381.13 96.1299H299.33V103.36H381.13V96.1299Z" fill="#333434"/>
<path d="M381.13 104.19H299.33V105.68H381.13V104.19Z" fill="#333434"/>
<path d="M385.55 123.41H351.22V124.9H385.55V123.41Z" fill="#676767"/>
<path d="M433.88 85.3197V111.83C433.885 112.245 433.808 112.657 433.652 113.042C433.497 113.427 433.266 113.777 432.974 114.072C432.682 114.367 432.334 114.601 431.95 114.761C431.567 114.92 431.155 115.001 430.74 115H423.55C422.92 114.997 422.306 114.804 421.787 114.448C421.268 114.091 420.869 113.586 420.64 113C419.858 111.023 418.657 109.24 417.121 107.771C415.585 106.302 413.749 105.183 411.74 104.49C404.86 101.85 398 106.3 395.68 108C395.132 108.41 394.465 108.631 393.78 108.63H389C387.197 108.627 385.469 107.91 384.195 106.635C382.92 105.36 382.203 103.632 382.2 101.83V67.3497C382.199 66.5444 382.356 65.7466 382.664 65.0023C382.971 64.258 383.423 63.5817 383.992 63.0122C384.562 62.4427 385.238 61.9913 385.983 61.6837C386.727 61.3761 387.525 61.2184 388.33 61.2197H415.73C416.759 61.218 417.772 61.4765 418.674 61.9713C419.576 62.4661 420.338 63.1811 420.89 64.0497L423.12 67.5397L433.35 83.6397C433.691 84.1341 433.875 84.7193 433.88 85.3197V85.3197Z" fill="#F8EA2E" stroke="#1E1E1C" stroke-width="0.76" stroke-miterlimit="10"/>
<path d="M175.11 130.34C180.749 130.34 185.32 125.769 185.32 120.13C185.32 114.491 180.749 109.92 175.11 109.92C169.471 109.92 164.9 114.491 164.9 120.13C164.9 125.769 169.471 130.34 175.11 130.34Z" fill="#333434"/>
<path d="M200.32 130.34C205.959 130.34 210.53 125.769 210.53 120.13C210.53 114.491 205.959 109.92 200.32 109.92C194.681 109.92 190.11 114.491 190.11 120.13C190.11 125.769 194.681 130.34 200.32 130.34Z" fill="#333434"/>
<path d="M223.23 130.34C228.869 130.34 233.44 125.769 233.44 120.13C233.44 114.491 228.869 109.92 223.23 109.92C217.591 109.92 213.02 114.491 213.02 120.13C213.02 125.769 217.591 130.34 223.23 130.34Z" fill="#333434"/>
<path d="M175.11 124.78C177.678 124.78 179.76 122.699 179.76 120.13C179.76 117.562 177.678 115.48 175.11 115.48C172.542 115.48 170.46 117.562 170.46 120.13C170.46 122.699 172.542 124.78 175.11 124.78Z" fill="#676767"/>
<path d="M200.32 124.78C202.888 124.78 204.97 122.699 204.97 120.13C204.97 117.562 202.888 115.48 200.32 115.48C197.752 115.48 195.67 117.562 195.67 120.13C195.67 122.699 197.752 124.78 200.32 124.78Z" fill="#676767"/>
<path d="M223.23 124.78C225.798 124.78 227.88 122.699 227.88 120.13C227.88 117.562 225.798 115.48 223.23 115.48C220.662 115.48 218.58 117.562 218.58 120.13C218.58 122.699 220.662 124.78 223.23 124.78Z" fill="#676767"/>
<path d="M337.32 125.55C340.739 125.55 343.51 122.779 343.51 119.36C343.51 115.941 340.739 113.17 337.32 113.17C333.901 113.17 331.13 115.941 331.13 119.36C331.13 122.779 333.901 125.55 337.32 125.55Z" fill="#676767"/>
<path d="M312.95 131.1C319.434 131.1 324.69 125.844 324.69 119.36C324.69 112.876 319.434 107.62 312.95 107.62C306.466 107.62 301.21 112.876 301.21 119.36C301.21 125.844 306.466 131.1 312.95 131.1Z" fill="#333434"/>
<path d="M312.95 125.55C316.369 125.55 319.14 122.779 319.14 119.36C319.14 115.941 316.369 113.17 312.95 113.17C309.531 113.17 306.76 115.941 306.76 119.36C306.76 122.779 309.531 125.55 312.95 125.55Z" fill="#676767"/>
<path d="M405.72 125.55C409.139 125.55 411.91 122.779 411.91 119.36C411.91 115.941 409.139 113.17 405.72 113.17C402.301 113.17 399.53 115.941 399.53 119.36C399.53 122.779 402.301 125.55 405.72 125.55Z" fill="#676767"/>
<path d="M297.22 112.64H254.58V121.93H297.22V112.64Z" fill="#676767"/>
<path d="M382.17 106.45H369.78V113.68H382.17V106.45Z" fill="#676767"/>
<path d="M382.17 114.71H369.78V121.94H382.17V114.71Z" fill="#676767"/>
<path d="M361.51 107.48H351.19V121.93H361.51V107.48Z" fill="#676767"/>
<path d="M366.68 107.48H363.58V121.93H366.68V107.48Z" fill="#676767"/>
<path d="M398.35 67.54H389.3C388.306 67.54 387.5 68.3459 387.5 69.34V79.44C387.5 80.4342 388.306 81.24 389.3 81.24H398.35C399.344 81.24 400.15 80.4342 400.15 79.44V69.34C400.15 68.3459 399.344 67.54 398.35 67.54Z" fill="#333434"/>
<path d="M433.88 85.32V88.81C433.664 88.9839 433.411 89.1059 433.141 89.1666C432.87 89.2273 432.59 89.225 432.32 89.16L404 82.36C403.449 82.1734 402.975 81.809 402.652 81.324C402.33 80.839 402.178 80.2608 402.22 79.68V70.26C402.158 69.6105 402.352 68.9625 402.761 68.4543C403.171 67.9461 403.762 67.618 404.41 67.54H423.11L433.34 83.64C433.684 84.1332 433.873 84.7186 433.88 85.32Z" fill="#333434"/>
<path d="M407.52 57H388.55V61.22H407.52V57Z" fill="#333434"/>
<path d="M172.88 105.67L127 122.41V111.87L153.04 102.57" fill="#333434"/>
<path d="M385.56 108.15H384.42V124.89H385.56V108.15Z" fill="#333434"/>
</g>
<g clip-path="url(#clip3_243_17)">
<path d="M292.29 39.8301H164.32C150.888 39.8301 140 50.7185 140 64.1501V70.4901C140 83.9216 150.888 94.8101 164.32 94.8101H292.29C305.722 94.8101 316.61 83.9216 316.61 70.4901V64.1501C316.61 50.7185 305.722 39.8301 292.29 39.8301Z" fill="#1A1A1A"/>
<path d="M195.82 93.9805H169.16V102.99H195.82V93.9805Z" fill="#1A1A1A"/>
<path d="M190.82 34H174.16V37.33H190.82V34Z" fill="#1A1A1A"/>
<path d="M236.64 34H219.98V37.33H236.64V34Z" fill="#1A1A1A"/>
<path d="M284.96 34H268.3V37.33H284.96V34Z" fill="#1A1A1A"/>
<path d="M241.64 93.9805H214.98V102.99H241.64V93.9805Z" fill="#1A1A1A"/>
<path d="M288.29 93.9805H261.63V102.99H288.29V93.9805Z" fill="#1A1A1A"/>
</g>
<g clip-path="url(#clip4_243_17)">
<path d="M581.02 131H0V145.73H581.02V131Z" fill="url(#paint0_linear_243_17)"/>
</g>
<g clip-path="url(#clip5_243_17)">
<path d="M431 114.41H436.41V109H431V114.41Z" fill="#EDC255"/>
</g>
<path d="M551.406 75C551.406 75 438.406 103.61 446.406 112.805C454.406 122 551.406 143 551.406 143V75Z" fill="url(#paint1_linear_243_17)"/>
<defs>
<linearGradient id="paint0_linear_243_17" x1="581.02" y1="138.37" x2="0" y2="138.37" gradientUnits="userSpaceOnUse">
<stop offset="0.14" stop-color="#CCCCCC"/>
<stop offset="0.29" stop-color="#CCCCCC" stop-opacity="0.98"/>
<stop offset="0.42" stop-color="#CDCECE" stop-opacity="0.94"/>
<stop offset="0.53" stop-color="#CFCFD0" stop-opacity="0.86"/>
<stop offset="0.64" stop-color="#D1D2D2" stop-opacity="0.74"/>
<stop offset="0.74" stop-color="#D4D6D6" stop-opacity="0.59"/>
<stop offset="0.83" stop-color="#D7DADB" stop-opacity="0.41"/>
<stop offset="0.93" stop-color="#DBDFE0" stop-opacity="0.2"/>
<stop offset="1" stop-color="#DFE4E5" stop-opacity="0"/>
</linearGradient>
<linearGradient id="paint1_linear_243_17" x1="440.515" y1="132.935" x2="550.227" y2="119.341" gradientUnits="userSpaceOnUse">
<stop stop-color="#E3CE98" stop-opacity="0.491876"/>
<stop offset="0.0782324" stop-color="#EDC255"/>
<stop offset="0.846876" stop-color="#D9D9D9" stop-opacity="0"/>
</linearGradient>
<clipPath id="clip0_243_17">
<rect width="5.27" height="5.27" fill="white" transform="translate(390 52)"/>
</clipPath>
<clipPath id="clip1_243_17">
<rect width="96" height="131" fill="white" transform="translate(517)"/>
</clipPath>
<clipPath id="clip2_243_17">
<rect width="307.26" height="74.09" fill="white" transform="translate(127 57)"/>
</clipPath>
<clipPath id="clip3_243_17">
<rect width="176.61" height="68.99" fill="white" transform="translate(140 34)"/>
</clipPath>
<clipPath id="clip4_243_17">
<rect width="581.02" height="14.73" fill="white" transform="translate(0 131)"/>
</clipPath>
<clipPath id="clip5_243_17">
<rect width="5.41" height="5.41" fill="white" transform="translate(431 109)"/>
</clipPath>
</defs>
</svg>
