<?xml version="1.0" standalone="no"?>
<!DOCTYPE svg PUBLIC "-//W3C//DTD SVG 20010904//EN"
 "http://www.w3.org/TR/2001/REC-SVG-20010904/DTD/svg10.dtd">
<svg version="1.0" xmlns="http://www.w3.org/2000/svg"
 width="247.000000pt" height="246.000000pt" viewBox="0 0 247.000000 246.000000"
 preserveAspectRatio="xMidYMid meet">

<g transform="translate(0.000000,246.000000) scale(0.100000,-0.100000)"
fill="#000000" stroke="none">
<path d="M1762 1423 c-20 -25 -22 -38 -22 -140 0 -94 3 -113 15 -113 11 0 15
-11 15 -40 l0 -40 -90 0 -90 0 6 25 c4 15 1 32 -6 40 -15 18 -51 20 -68 3 -16
-16 -15 -53 1 -66 6 -5 67 -11 135 -11 l122 -2 0 36 c0 20 6 43 14 51 23 22
28 16 10 -11 -21 -32 -11 -72 21 -87 35 -16 74 3 81 40 5 24 10 28 30 24 20
-3 24 0 25 19 1 16 4 13 8 -11 6 -33 4 -35 -24 -41 -29 -6 -29 -6 8 -8 l37 -1
0 94 c0 91 -2 98 -35 155 -33 56 -39 61 -70 61 -19 0 -37 5 -40 10 -3 6 -13
10 -22 10 -9 0 -21 7 -27 16 -10 13 -14 11 -34 -13z m61 -20 c-13 -2 -33 -2
-45 0 -13 2 -3 4 22 4 25 0 35 -2 23 -4z m7 -88 c0 -20 -5 -25 -25 -25 -18 0
-25 5 -25 18 0 10 3 22 7 25 3 4 15 7 25 7 13 0 18 -7 18 -25z m110 6 c17 -33
11 -41 -30 -41 -42 0 -58 15 -46 45 8 22 63 19 76 -4z m-77 -138 c-7 -2 -19
-2 -25 0 -7 3 -2 5 12 5 14 0 19 -2 13 -5z m38 -20 c13 -16 12 -17 -3 -4 -17
13 -22 21 -14 21 2 0 10 -8 17 -17z m-337 -44 c-3 -5 -10 -7 -15 -3 -5 3 -7
10 -3 15 3 5 10 7 15 3 5 -3 7 -10 3 -15z m306 0 c0 -14 -5 -19 -17 -17 -26 5
-29 38 -4 38 15 0 21 -6 21 -21z"/>
<path d="M540 1370 c-30 -30 -29 -135 2 -167 l21 -23 -42 0 c-26 0 -40 -4 -36
-10 3 -5 18 -10 33 -10 19 0 23 -3 14 -9 -8 -4 -12 -19 -10 -32 2 -18 10 -25
31 -27 32 -4 46 21 28 49 -10 17 -8 19 14 19 22 0 24 -3 15 -19 -15 -29 -2
-51 30 -51 33 0 49 32 30 55 -10 13 -8 15 15 15 23 0 25 -2 15 -15 -20 -24 -3
-57 28 -53 23 3 27 8 27 36 0 28 3 32 25 32 18 0 21 -3 12 -9 -8 -4 -12 -19
-10 -32 2 -18 10 -25 31 -27 32 -4 46 21 28 49 -10 17 -8 19 14 19 23 0 24 -2
15 -21 -14 -26 3 -49 36 -49 27 0 42 34 24 55 -10 13 -8 15 14 15 23 0 25 -2
15 -19 -18 -28 -4 -53 28 -49 24 3 28 7 28 36 0 28 3 32 25 32 18 0 21 -3 12
-9 -8 -4 -12 -19 -10 -32 2 -18 10 -25 31 -27 32 -4 46 21 28 49 -10 17 -8 19
15 19 22 0 24 -2 14 -15 -19 -23 -3 -55 30 -55 32 0 45 22 30 51 -10 18 -7 19
40 19 27 0 50 5 50 10 0 6 -21 10 -46 10 l-45 0 20 26 c31 39 30 132 -2 162
-23 22 -29 22 -335 22 -299 0 -313 -1 -332 -20z m110 -81 l0 -60 -42 3 c-43 3
-43 3 -46 46 -4 53 10 72 54 72 l34 0 0 -61z m198 -1 l3 -58 -81 0 -80 0 0 53
c0 30 3 57 7 61 4 4 39 5 78 4 l70 -3 3 -57z m192 2 l0 -60 -75 0 -75 0 0 60
0 60 75 0 75 0 0 -60z m139 46 c7 -8 11 -34 9 -58 l-3 -43 -52 -3 -53 -3 0 54
c0 29 3 57 7 60 12 13 80 7 92 -7z m-619 -216 c0 -5 -2 -10 -4 -10 -3 0 -8 5
-11 10 -3 6 -1 10 4 10 6 0 11 -4 11 -10z m180 6 c0 -3 -4 -8 -10 -11 -5 -3
-10 -1 -10 4 0 6 5 11 10 11 6 0 10 -2 10 -4z m80 -6 c0 -5 -2 -10 -4 -10 -3
0 -8 5 -11 10 -3 6 -1 10 4 10 6 0 11 -4 11 -10z m90 0 c0 -5 -2 -10 -4 -10
-3 0 -8 5 -11 10 -3 6 -1 10 4 10 6 0 11 -4 11 -10z m90 6 c0 -3 -4 -8 -10
-11 -5 -3 -10 -1 -10 4 0 6 5 11 10 11 6 0 10 -2 10 -4z m80 -6 c0 -5 -2 -10
-4 -10 -3 0 -8 5 -11 10 -3 6 -1 10 4 10 6 0 11 -4 11 -10z"/>
<path d="M1410 1290 l0 -60 150 0 150 0 0 60 0 60 -150 0 -150 0 0 -60z m250
0 c0 -19 -7 -20 -105 -20 -98 0 -105 1 -105 20 0 19 7 20 105 20 98 0 105 -1
105 -20z"/>
<path d="M1356 1205 c-3 -9 -18 -15 -36 -15 -23 0 -30 -4 -30 -20 0 -18 7 -20
55 -20 48 0 55 2 55 20 0 19 7 20 165 20 108 0 165 4 165 10 0 7 -57 10 -170
8 -94 -2 -170 0 -170 5 0 13 -28 7 -34 -8z"/>
<path d="M1416 1154 c-9 -8 -16 -22 -16 -29 0 -7 7 -21 16 -29 30 -30 74 -13
74 29 0 42 -44 59 -74 29z m44 -23 c0 -6 -4 -13 -10 -16 -5 -3 -10 1 -10 9 0
9 5 16 10 16 6 0 10 -4 10 -9z"/>
<path d="M1610 1131 c0 -28 3 -31 31 -31 27 0 30 3 27 28 -2 21 -9 28 -30 30
-25 3 -28 0 -28 -27z m40 -1 c0 -11 -7 -20 -15 -20 -8 0 -15 9 -15 20 0 11 7
20 15 20 8 0 15 -9 15 -20z"/>
<path d="M1682 1133 c2 -20 9 -29 26 -31 19 -3 22 1 22 27 0 27 -4 31 -26 31
-22 0 -25 -4 -22 -27z m35 11 c-3 -3 -12 -4 -19 -1 -8 3 -5 6 6 6 11 1 17 -2
13 -5z m0 -30 c-3 -3 -12 -4 -19 -1 -8 3 -5 6 6 6 11 1 17 -2 13 -5z"/>
</g>
</svg>
