<svg xmlns="http://www.w3.org/2000/svg" viewBox="0 0 71.2 19.84"><g id="Слой_1" data-name="Слой 1"><path d="M5.7,12.24c11.17,0,22.4,0,33.63,0a3.54,3.54,0,0,0,1.49-.17c1.13-.49,1.31-1.53,1.67-2.46a6.55,6.55,0,0,0,.35-1.76,13.67,13.67,0,0,0,0-1.92,9.09,9.09,0,0,0-.77-3,2.32,2.32,0,0,0-2.47-1.55c-10.82.06-21.64,0-32.47,0C5.09,1.4,4.27,2,3.78,4a9.59,9.59,0,0,0-.4,3.13c.16,1.87.45,3.77,2.32,5.14"/><path d="M25.76.49C25.45.29,25.22,0,25,0c-1.37,0-2.74,0-4.13,0V1c1.49,0,3,0,4.43,0,.12,0,.24-.23.47-.46"/><path d="M11.41,1c1.21.05,2.42,0,3.62,0,.17,0,.33-.29.61-.54C15.3.28,15.07,0,14.84,0c-1.37,0-2.73,0-4.09,0-.15.68.19,1,.66,1"/><path d="M31.85,1.05c.92,0,1.84,0,2.77,0,.57,0,.75-.36,1-1H31a.8.8,0,0,0,.87,1"/><path d="M47.31,14a2.92,2.92,0,1,0,2.92,2.92A2.92,2.92,0,0,0,47.31,14m1.13,2.92a1.13,1.13,0,1,1-2.25,0,1.13,1.13,0,0,1,2.25,0"/><path d="M64.24,14a2.92,2.92,0,1,0,2.92,2.92A2.92,2.92,0,0,0,64.24,14m0,4.05a1.13,1.13,0,1,1,0-2.25,1.13,1.13,0,0,1,0,2.25"/><path d="M53.38,14.75H52.13v.46H52v-.46H50.77v3.74h2.61Zm-.44,3.3H51.22V15.2h.36v.46h1V15.2h.36Z"/><path d="M54.66,15.13H53.49v3.36h1.17Zm-.73.44h.28V18h-.28Z"/><path d="M55.39,16.58h2.9V14.75h-2.9Zm.45-1.38h2v.94h-2Z"/><path d="M67.68,3H64.46v-.4l-2.73-.39L61.48,1h-.86L60.32,2,59.67,2,59.18,3H58.6V14.65H61l0,0h-.84v3.91H51V19h9.56V15.12h.59l.47-.47h0l.06,0A4.44,4.44,0,0,1,65,13.92a4,4,0,0,1,2.44,2.53l.06.13H69.9V14.45h1.3V9.6Zm.82,3.33L69.31,9l-.25.37-4.18-.53V6.41L65,6.35Zm-4,2.86,4.82.61L69.8,9,69,6.44,70.36,9v1.51l-5.9-.57Zm0-3V5.93h.33ZM61,1.43h.15l.15.74-.49-.07Zm-1,1L64,3H59.67Zm7.47,1,1.08,2H64V9.89h-5V3.47ZM61.47,14.2H59.05V10.33h5v3a5.3,5.3,0,0,0-2.54.83m8-.2v2.14H67.81a4.37,4.37,0,0,0-2.67-2.65,3.35,3.35,0,0,0-.68-.12v-.81h1.47v-.85H64.46V10.36l5.9.57V14Z"/><path d="M63.66,5.9H60.54V9.23h3.12Zm-.45,2.88H61V6.34h2.22Z"/><path d="M58,13.8V12.57H42.27V14H37.66V12.24H31.25V14H26.54V12.24H20.12V14H15.41V12.24H9V14H5.65L1.07,15.1,1,16l-1,.22V18.2l5.68-1.63h5a2.14,2.14,0,0,0,1.84,3.27,2.16,2.16,0,0,0,2.15-2.16,2.09,2.09,0,0,0-.32-1.11h1.11a2.09,2.09,0,0,0-.32,1.11,2.16,2.16,0,1,0,4.31,0,2.09,2.09,0,0,0-.32-1.11h1.1a2.09,2.09,0,0,0-.32,1.11,2.16,2.16,0,1,0,4-1.11h1.36a2.09,2.09,0,0,0-.32,1.11,2.16,2.16,0,1,0,4.31,0,2.09,2.09,0,0,0-.32-1.11H43.29V13.71H56.83ZM12.5,16.68a1,1,0,1,1-1,1,1,1,0,0,1,1-1m4.78,0a1,1,0,1,1-1,1,1,1,0,0,1,1-1m4.77,2a1,1,0,1,1,1-1,1,1,0,0,1-1,1m5-2a1,1,0,1,1-1,1,1,1,0,0,1,1-1m15.76-3.42v2.86H28.56a2.1,2.1,0,0,0-1.47-.59,2.12,2.12,0,0,0-1.48.59H23.53a2.15,2.15,0,0,0-3,0H18.75a2.1,2.1,0,0,0-1.47-.59,2.14,2.14,0,0,0-1.48.59H14a2.1,2.1,0,0,0-1.47-.59,2.14,2.14,0,0,0-1.48.59H5.65L.45,17.6v-1l1-.22.07-.95,4.18-1H42.72V13H57.57v.29l-.71-.05Z"/><polygon points="2.17 15.73 2.29 16.16 5.68 15.2 42.09 15.2 42.09 14.75 5.65 14.75 2.17 15.73"/></g></svg>
